<svg width="1000" height="1000" viewBox="0 0 1000 1000" fill="none" xmlns="http://www.w3.org/2000/svg">
<path d="M473.372 131.168C413.609 135.074 352.871 154.993 301.702 187.509C259.028 214.655 221.628 250.881 194.676 291.306C143.605 367.958 122.61 461.502 135.89 552.508C152.003 662.651 213.23 756.098 309.025 816.638C375.135 858.43 461.361 877.764 542.02 868.879C601.978 862.239 655.002 842.612 705.195 808.338C779.019 757.953 832.336 684.036 856.456 598.889C864.464 570.377 867.881 547.625 868.76 515.89C869.541 491.382 868.467 474.294 864.756 446.367C862.315 428.791 860.46 421.174 861.729 434.357C863.78 454.764 864.171 462.186 864.171 476.832C864.073 498.51 862.901 501.732 861.925 482.691C860.655 456.913 859.581 457.791 859.483 484.644C859.386 508.469 858.604 518.332 855.089 543.329C853.527 554.265 847.277 584.535 845.715 588.636C844.054 592.835 843.859 591.273 845.226 585.316C846.008 582.192 847.082 577.017 847.57 573.892C848.156 570.767 849.23 564.127 850.109 559.343C852.648 544.208 856.358 511.985 856.847 499.779C857.335 487.28 857.237 487.866 854.015 509.055C853.234 514.719 852.062 521.749 851.574 524.679C851.085 527.608 850.304 532.881 849.718 536.396C848.937 542.352 844.836 562.956 844.445 563.346C844.347 563.444 844.152 545.282 844.054 522.921C843.957 494.311 843.566 478.883 842.59 470.974L841.125 459.744L841.027 481.715C840.93 518.82 837.317 546.746 827.747 584.242C825.891 591.468 823.45 599.573 822.376 602.307C820.032 607.775 820.13 606.896 824.231 591.566C831.653 563.737 836.731 532.002 837.61 508.079C838.195 490.405 837.707 486.109 836.535 499.779C836.145 504.075 835.461 510.618 834.973 514.426C834.485 518.136 834.094 521.847 833.996 522.628C833.996 523.409 833.703 523.8 833.411 523.409C833.118 523.116 832.825 515.89 832.825 507.395C832.922 498.9 832.532 487.378 832.141 481.715C831.36 471.462 831.36 471.462 831.262 487.573C831.165 505.638 830.09 517.062 826.575 536.396C816.224 592.835 794.155 644.196 761.93 687.258C709.492 757.075 635.863 800.527 550.321 811.951C531.474 814.49 492.511 814.978 475.13 812.928C425.816 807.069 381.971 792.325 340.371 767.62C298.967 743.111 258.93 702.784 232.858 659.429C201.609 607.287 185.302 540.204 189.403 481.226C192.137 442.852 198.973 411.508 211.472 380.749C234.908 322.748 267.817 278.905 314.103 244.436C357.265 212.116 406.383 192.88 463.9 185.654C480.207 183.603 535.087 183.896 552.274 186.142C596.412 191.903 631.078 203.328 664.67 223.052C675.607 229.497 698.652 244.046 702.949 247.17C707.539 250.588 707.832 249.221 703.34 245.315C690.352 233.891 675.997 223.736 659.397 214.166C654.417 211.335 650.51 208.796 650.803 208.6C651.292 208.112 665.744 215.436 674.337 220.513C677.56 222.368 681.856 224.81 683.809 225.884C691.914 230.278 714.081 244.143 723.749 250.881C735.76 259.278 742.009 264.454 751.774 274.023C755.583 277.733 758.805 280.565 758.805 280.077C758.805 277.733 743.279 258.204 732.733 247.268C725.995 240.335 720.819 234.672 721.21 234.672C722.382 234.672 737.615 247.854 747.966 257.911C753.337 263.184 759.879 270.41 762.614 274.121C765.348 277.831 767.594 280.565 767.594 280.272C767.594 278.905 763.004 271.484 758.024 264.844C754.997 260.743 750.505 254.884 748.161 251.662C738.201 238.382 718.475 217.682 713.398 215.143C711.835 214.362 710.273 213.385 709.98 213.092C709.687 212.702 706.855 210.846 703.633 208.991C697.383 205.281 689.083 198.641 689.864 197.859C690.45 197.274 694.063 199.617 704.609 207.331C715.937 215.729 716.327 215.924 714.96 213.287C712.616 208.991 702.754 202.058 672.384 183.603C632.933 159.68 580.3 140.542 533.72 133.218C518.779 130.972 491.633 129.996 473.372 131.168ZM806.557 638.924C805.385 641.072 804.115 642.537 803.822 642.244C803.139 641.56 806.752 635.018 807.826 635.018C808.314 635.018 807.728 636.775 806.557 638.924Z" fill="#B22222"/>
<path d="M544.169 130.679C544.364 130.972 548.075 131.656 552.371 132.144C560.867 133.316 584.694 138.882 592.115 141.42C600.416 144.252 598.17 142.299 589.576 139.175C576.589 134.488 541.337 127.848 544.169 130.679Z" fill="#B22222"/>
<path d="M778.335 287.303C778.335 287.889 778.726 288.572 779.312 288.865C779.898 289.158 779.995 288.767 779.703 287.986C779.019 286.229 778.335 285.936 778.335 287.303Z" fill="#B22222"/>
<path d="M761.735 310.152C761.735 312.007 765.543 316.694 765.641 314.936C765.641 314.155 764.762 312.495 763.688 311.128C762.418 309.468 761.735 309.078 761.735 310.152Z" fill="#B22222"/>
<path d="M792.007 322.553C793.081 324.701 794.252 326.458 794.448 326.458C794.741 326.458 794.057 324.701 792.983 322.553C791.909 320.404 790.737 318.647 790.542 318.647C790.249 318.647 790.932 320.404 792.007 322.553Z" fill="#B22222"/>
<path fill-rule="evenodd" clip-rule="evenodd" d="M532.424 222.003C533.639 222.014 535.104 222.057 536.916 222.133C553.628 222.65 557.401 223.685 564.426 229.379C566.644 231.154 569.307 232.93 570.269 233.225C577.59 235.518 586.464 241.507 590.679 247.053C594.45 251.934 595.709 254.45 598.001 261.401C599.997 267.463 600.292 271.013 598.888 271.531C598.296 271.755 598.445 271.975 599.258 271.975C600.29 272.049 600.514 272.713 600.514 275.523C600.514 280.107 599.332 282.104 598.888 278.408C598.737 276.93 598.883 275.748 599.178 275.747C599.475 275.747 599.77 275.227 599.77 274.562C599.77 273.529 599.622 273.53 598.587 274.344C597.626 275.158 597.478 275.157 597.625 274.196C597.921 272.791 596.888 267.767 596.222 267.32C595.924 267.172 595.78 269.242 595.852 271.903C595.926 275.452 595.85 276.341 595.333 275.01C595.037 273.975 594.667 271.976 594.667 270.572C594.518 266.948 593.114 264.879 593.114 268.281C593.114 270.277 592.893 270.573 592.153 269.908C591.561 269.466 590.968 269.315 590.673 269.538C590.259 269.951 590.232 269.847 588.608 263.523C588.492 263.07 588.367 262.586 588.234 262.068C586.977 256.965 586.09 255.043 584.98 255.043C584.611 255.044 585.053 256.818 585.793 258.889C586.672 261.233 587.272 265.008 587.589 269.395C588.632 275.267 589.107 281.241 588.14 282.208C587.869 282.477 587.76 283.076 587.636 283.438C587.48 286.074 587.25 288.685 586.902 291.13L585.644 300.003L587.494 303.701C590.156 308.951 590.749 313.093 589.048 314.942C588.309 315.755 587.346 316.42 586.976 316.42C585.349 316.42 583.5 318.934 583.5 321.078C583.5 322.262 582.168 325.96 580.616 329.287C578.989 332.541 577.437 336.904 577.214 338.827C576.532 343.411 573.441 346.299 570.498 347.101C567.554 347.904 562.448 348.416 559.556 348.205C555.898 352.402 554.444 356.482 554.448 357.693C564.075 360.971 574.911 362.409 589.492 358.156C589.731 358.001 590.042 357.907 590.382 357.907C591.125 357.906 593.726 356.848 596.161 355.553C601.953 352.473 606.019 351.63 614.527 351.743C625.698 351.891 638.025 352.991 638.025 353.841C638.028 354.27 640.722 354.905 644.012 355.249C647.305 355.593 650.792 356.271 651.761 356.756C654.574 358.164 660.289 360.094 663.24 360.631C664.443 360.85 665.961 361.705 667.107 361.77C684.206 366.402 701.656 368.653 719.731 366.696C722.244 365.712 755.392 365.623 756.426 366.653C757.45 367.676 766.513 369.973 772.009 370.602C774.483 370.886 777.046 371.555 777.703 372.088C778.361 372.621 783.213 373.316 788.485 373.63C793.594 373.935 798.026 374.545 798.558 375.009C800.041 376.677 806.505 375.902 808.442 375.902C814.462 375.902 819.029 376.433 821.348 377.402C824.34 378.653 831.824 378.925 866.216 378.925C911.12 378.948 909.917 378.804 912.875 384.587C914.13 387.04 914.455 412.897 913.232 412.897C912.812 412.898 912.027 413.91 911.484 415.147C910.636 417.08 909.618 417.438 904.247 417.695L897.995 417.994C898 418 894.943 418.264 894.658 418.277L894.496 420.398L891.248 420.713C889.253 420.905 886.167 420.088 883.249 418.598C880.636 417.262 876.698 415.322 874.498 414.288C872.299 413.253 869.494 411.334 868.269 410.023C864.729 406.237 857.137 402.974 854.085 403.928C852.662 404.371 835.975 405.063 817.003 405.465C811.318 405.585 800.756 405.841 800.756 405.841C800.583 407.73 800.262 410.736 799.923 412.47C799.272 415.799 798.529 418.643 797.718 421.298C797.718 421.298 797.718 421.604 797.494 421.748C797.132 422.105 782.726 422.623 765.478 422.899C742.28 423.268 734.204 424.501 732.865 424.649C729.923 424.973 718.015 428.629 718.015 436.149C718.014 436.868 716.48 438.906 714.603 440.676L711.19 443.896H698.166C690.563 443.896 684.882 443.478 684.521 442.895C683.117 440.638 624.535 441.647 620.31 444.001C614.125 447.449 608.401 456.713 607.276 465.098C606.993 467.212 606.369 469.18 605.894 469.475C605.418 469.769 605.031 471.057 605.031 472.336C605.03 474.242 604.224 476.151 603.384 477.831C602.634 479.399 602.041 481.602 602.006 482.891C601.986 484.266 600.86 487.641 599.508 490.39C598.156 493.139 597.04 495.934 597.039 496.603C597.032 497.515 596.766 498.542 596.316 499.587C593.829 506.043 590.744 512.409 589.3 519.212C589.156 520.318 588.733 521.724 587.999 523.385C587.597 524.296 587.167 525.809 586.94 527.048C586.934 529.489 587.438 531.892 585.841 535.432C585.032 537.576 583.425 539.209 582.203 541.101C579.179 545.301 576.012 544.902 575.441 551.456C575.448 554.894 574.612 567.599 574.941 567.954C576.2 569.309 577.945 569.035 579.388 570.208C582.028 572.353 587.342 575.244 587.387 575.268C587.347 575.257 587.307 575.247 587.267 575.236C589.951 576.06 593.116 577.474 597.375 579.533C600.038 580.82 602.766 581.875 603.437 581.875C604.108 581.875 606.989 582.999 609.839 584.373C612.688 585.748 615.631 586.872 616.377 586.872C617.123 586.872 619.847 587.998 622.433 589.373C625.018 590.747 627.956 591.871 628.959 591.871C631.79 591.871 633.188 592.313 633.402 593.029C635.139 597.278 634.5 599.5 636.434 601.774L636.436 601.776C637.611 602.806 640.395 604.543 643.143 605.93C646.298 607.523 649.156 609.273 649.496 609.82C649.837 610.369 653.559 612.519 657.768 614.595C661.98 616.671 666.171 619.094 667.084 619.979C667.996 620.864 670.945 622.665 673.634 623.979C676.323 625.294 679.12 626.935 679.852 627.627C680.583 628.319 683.608 630.071 686.572 631.522C689.535 632.974 692.761 634.907 693.741 635.816C694.72 636.725 696.982 638.328 698.769 639.382C700.556 640.434 702.018 641.631 702.019 642.039C702.021 642.448 703.937 643.905 706.278 645.277C713.594 649.565 724.016 663.845 724.016 669.58C724.017 670.301 724.407 671.672 724.883 672.626C726.234 675.334 727.169 677.161 727.245 678.442C727.456 681.099 728.377 683.159 729.393 685.913C730.216 688.006 731.006 690.147 730.962 692.449C730.962 692.446 730.963 692.442 730.963 692.439C730.814 695 730.856 696.284 731.063 698.104C731.343 700.33 732.034 702.546 733.6 705.306C733.915 705.693 734.115 706.137 734.211 706.599C734.211 706.592 734.212 706.585 734.212 706.578C734.95 709.811 735.435 712.987 735.919 715.736C736.458 717.368 736.681 719.107 737.134 720.766C737.169 720.896 737.158 721.023 737.153 721.156C737.818 721.821 737.822 723.054 738.641 723.748C739.059 724.032 739.223 724.412 739.097 724.796C739.097 724.796 739.108 724.778 739.111 724.77C739.008 726.004 739.169 727.321 739 728.534C739.117 731.257 739.758 732.346 740.346 733.737C741.348 734.929 741.349 737.729 742.106 739.285C743.155 741.442 744.014 743.808 744.014 744.542C744.014 745.276 744.444 746.658 744.967 747.612C746.58 750.557 750.669 761.333 751.697 765.346C751.978 766.447 753.29 769.721 754.61 772.623C755.931 775.524 757.012 778.511 757.012 779.258C757.013 780.005 757.685 781.907 758.506 783.482C759.328 785.057 760.003 787.105 760.006 788.035C760.01 788.965 760.462 790.004 761.012 790.344C763.489 791.876 756.606 798.842 752.614 798.842C751.86 798.842 749.954 799.514 748.379 800.336C746.804 801.157 744.754 801.832 743.824 801.836C742.895 801.839 741.855 802.292 741.514 802.841C741.174 803.391 739.236 803.878 737.206 803.878C735.176 803.898 732.39 804.555 731.015 805.341C729.641 806.127 727.539 806.769 726.344 806.807C715.295 806.986 715.371 830.93 726.44 837.796C728.132 838.845 730.415 840.531 731.515 841.541C733.845 843.68 745.739 851.835 746.527 851.835C746.823 851.835 749.913 853.636 753.396 855.835C756.879 858.035 760.205 859.834 760.787 859.834C761.37 859.834 761.998 860.171 762.18 860.583C762.64 861.615 769.741 864.833 771.559 864.833C772.373 864.833 773.819 865.225 774.774 865.701C777.29 866.956 782.971 868.899 787.007 869.886C804.33 874.12 809.374 877.736 803.862 881.975C800.953 884.212 758.404 884.819 756.237 882.655C754.419 880.837 740.891 879.687 713.018 878.979C698.949 878.622 686.823 877.883 685.96 877.331C681.191 874.274 679.819 867.955 682.521 861.488C687.583 849.373 683.406 826.115 675.018 819.702C666.536 813.217 661.022 805.707 661.022 800.636C661.022 798.596 658.585 797.395 658.931 795.84C658.931 793.707 657.153 791.678 656.201 789.893C656.543 790.523 653.026 784.016 653.025 782.061C653.025 781.287 652.408 779.458 651.652 777.999C650.896 776.539 649.505 772.87 648.564 769.846C647.624 766.822 646.496 763.447 646.057 762.347C645.617 761.247 644.44 757.647 643.438 754.348C642.436 751.049 641.258 747.923 640.821 747.399C640.384 746.877 640.025 745.672 640.024 744.72C640.024 734.006 616.599 713.853 604.142 713.853C603.047 713.853 601.908 713.463 601.613 712.986C601.318 712.508 598.835 711.82 596.096 711.457C593.357 711.094 590.845 710.361 590.515 709.826C590.185 709.292 588.254 708.819 586.224 708.819C584.195 708.799 581.407 708.14 580.032 707.354C578.657 706.568 575.397 705.891 572.784 705.891C568.46 705.857 568.165 705.798 563.823 704.69C554.459 702.301 545.759 697.898 536.036 698.851L536.035 698.846L529.292 698.787C525.394 698.75 521.062 698.052 519.041 697.135C511.659 693.785 509.188 692.85 507.7 692.85C506.854 692.85 505.883 692.4 505.542 691.85C505.203 691.3 502.641 690.85 499.85 690.85C497.187 690.85 497.333 690.84 494.671 690.857C482.453 690.937 472.454 699.436 463.905 702.394C463.455 702.936 462.457 703.387 462.106 703.615L458.706 705.881C452.146 710.333 445.11 715.09 438.179 718.902C436.508 720.297 434.28 721.855 433.645 721.855C431.792 721.866 429.897 723.3 428.198 723.993C409.024 730.712 407.278 732.839 394.845 741.426C394.846 741.421 394.845 741.415 394.846 741.41C394.65 741.709 394.162 741.994 393.361 742.249C392.368 742.564 389.754 744.395 387.555 746.315C385.355 748.235 383.245 749.826 382.866 749.826C382.487 749.837 380.098 751.644 377.556 753.843C375.015 756.042 372.579 757.842 372.142 757.842C371.706 757.843 370.105 758.998 368.584 760.406C367.064 761.816 364.185 764.045 362.189 765.363C360.192 766.681 356.072 769.465 353.031 771.549C349.991 773.634 346.279 775.979 344.782 776.76C343.286 777.54 342.06 778.518 342.06 778.935C342.058 779.352 339.697 780.791 336.811 782.132C333.924 783.473 330.481 785.53 329.159 786.704C327.838 787.878 326.292 788.838 325.724 788.838C325.156 788.838 323.762 789.686 322.627 790.721C321.491 791.756 317.413 794.282 313.564 796.335C309.714 798.389 305.37 800.917 303.91 801.954C302.451 802.989 300.957 803.836 300.594 803.836C300.23 803.837 298.499 804.922 296.749 806.248C294.998 807.574 289.994 810.501 285.629 812.753L277.693 816.848L277.692 816.847C269.748 820.502 261.833 826.733 252.702 826.866C251.532 826.883 248.098 828.661 245.074 830.816C242.049 832.972 237.795 835.947 235.62 837.426C233.445 838.906 229.294 842.527 226.394 845.474C225.275 846.611 224.114 847.704 222.977 848.822C220.775 851.032 219.471 852.708 218.091 855.843C217.912 856.493 217.515 857.06 216.87 857.459C215.036 858.592 206.06 858.21 204.793 856.945C204.181 856.332 202.924 855.83 202.005 855.83C199.483 855.83 192.048 852.315 187.309 848.882C184.994 847.205 182.642 845.832 182.087 845.832C181.531 845.83 176.243 841.109 170.333 835.337C158.91 824.181 157.533 823.518 151.88 826.442C148.201 828.344 146.5 829.973 142.602 835.333C141.002 837.533 139.346 839.577 138.922 839.871C131.145 845.313 131.646 862.082 139.842 870.635C150.924 882.199 148.829 883.854 123.217 883.729L102.591 883.63L97.0953 880.595C90.6375 877.033 88.0909 874.39 88.0905 871.236C88.0905 869.978 87.6423 868.67 87.0926 868.33C85.0863 867.089 85.9927 858.082 88.5924 853.425C89.9668 850.963 91.0894 848.273 91.0902 847.445C91.0902 846.617 92.2171 843.823 93.5918 841.237C94.2507 839.998 95.4955 834.262 96.8414 833.669C97.2537 833.486 99.8412 828.911 102.591 823.503C106.815 815.197 123.355 796.028 129.54 791.714C129.524 791.723 129.509 791.731 129.495 791.739C132.773 788.981 135.199 785.314 137.441 781.607C139.3 777.557 143.24 774.424 148.727 773.304C151.46 772.376 154.194 771.465 156.927 770.156C157.613 769.773 158.692 769.172 159.834 768.537L163.085 766.728C164.873 765.904 166.659 764.738 168.583 764.256C170.315 763.821 171.026 761.844 172.623 761.844C175.29 761.844 185.685 755.919 188.44 752.828C191.008 749.946 209.663 739.848 212.421 739.848C213.179 739.848 215.325 738.82 217.188 737.563C221.525 734.638 230.78 731.396 239.074 729.898C243.185 729.155 247.075 727.665 249.659 725.844C251.906 724.259 255.919 722.414 258.576 721.746C261.944 720.898 265.055 719.031 268.86 715.586C271.861 712.868 275.834 710.013 277.685 709.239C279.536 708.466 284.092 705.793 287.809 703.3C291.526 700.807 295.692 698.489 297.067 698.152C298.442 697.814 300.574 696.883 301.807 696.085C303.04 695.287 304.687 694.879 305.465 695.177C308.839 696.471 311.245 688.562 312.236 686.165C314.641 680.345 317.132 676.856 320.541 675.431C322.675 674.54 324.48 672.894 325.093 671.283C325.652 669.813 327.165 667.781 328.454 666.767C329.879 665.646 331.044 663.387 331.425 661.01C332.158 656.423 335.105 652.366 337.719 652.366C338.923 652.362 339.46 651.749 339.267 650.602C338.998 649 341.116 646.767 342.229 645.957C344.519 643.769 346.97 641.905 349.12 639.516C349.426 638.846 351.192 636.656 353.311 634.334C355.557 631.873 357.195 628.163 360.048 626.39C360.628 625.882 361.423 624.885 363.15 621.756C363.612 619.027 368.055 617.437 368.059 614.795C368.059 614.257 369.177 613.389 370.541 612.87C372.086 612.283 372.816 611.394 372.476 610.51C372.147 609.65 373.235 608.19 375.246 606.796C377.068 605.533 382.607 600.853 387.557 596.397C395.632 589.128 398.756 586.638 403.91 583.368C404.612 582.922 407.176 581.285 410.069 579.436C419.428 572.322 419.911 572.7 420.907 570.708C421.363 569.796 421.96 567.454 422.74 565.909C422.96 563.954 424.459 551.956 425.642 545.033C425.959 542.457 420.722 527.073 419.41 524.132C418.493 522.193 417.902 520.446 417.79 519.154C417.692 518.02 417.247 513.286 415.07 511.894C412.1 510.305 393.236 507.986 382.797 507.929C375.196 507.887 374.803 508.011 363.302 514.044C336.497 528.104 334.725 528.791 331.901 526.236C319.793 515.278 298.314 447.52 304.258 439.03C307.041 435.058 343.829 403.455 361.763 389.631C367.772 384.998 375.738 378.203 379.466 374.529C394.617 359.6 401.687 356.469 435.051 349.906C443.575 348.229 452.348 346.352 454.549 345.736C456.748 345.121 462.361 344.042 467.022 343.338C471.68 342.635 475.654 341.575 475.853 340.983C476.05 340.392 476.802 339.907 477.522 339.907C478.242 339.907 479.089 339.231 479.407 338.407C479.631 337.823 480.9 337.296 480.975 337.011C483.596 336.634 486.217 335.227 488.837 333.506L487.797 330.702C487.336 330.535 486.913 330.387 486.491 330.239C485.969 330.057 485.446 329.875 484.85 329.655C483.813 330.545 478.701 335.632 472.576 336.755C473.167 335.572 474.202 334.166 474.794 333.648C476.569 332.317 475.532 332.097 469.986 332.911C465.697 333.428 464.292 333.354 462.073 332.392C460.521 331.727 459.264 330.839 459.263 330.469C459.264 329.138 462.592 327.66 466.881 327.142C472.058 326.551 480.117 323.371 484.924 319.969C486.846 318.638 488.769 317.305 489.14 317.01C489.586 316.714 489.734 316.345 489.511 316.05C489.289 315.828 488.255 316.345 487.22 317.085C486.259 317.898 484.41 318.786 483.227 319.081C481.379 319.451 481.599 319.23 484.483 317.307C489.437 314.128 489.807 312.796 485.074 315.458C475.534 320.928 458.6 323.738 450.17 321.298C444.551 319.671 444.698 318.342 450.614 317.159C453.128 316.715 457.195 315.308 459.636 314.125C461.165 313.45 462.944 312.639 464.4 311.974C465.337 311.546 466.141 311.179 466.662 310.947C469.103 309.91 468.731 309.911 461.114 310.281C450.318 310.799 438.783 309.098 435.233 306.51C434.05 305.623 433.974 305.325 434.787 304.291C435.526 303.402 437.081 303.108 440.63 303.108C443.292 303.108 447.509 302.812 449.95 302.368C452.464 301.998 456.087 301.482 458.009 301.259C463.925 300.52 461.337 299.929 451.279 299.706C440.483 299.484 434.715 298.08 427.542 293.791C423.254 291.204 420.297 288.615 420.887 287.948C421.108 287.8 423.474 288.466 426.21 289.427C429.39 290.611 432.644 291.277 435.084 291.202C437.229 291.128 438.339 290.98 437.599 290.757C435.751 290.24 436.786 289.057 439.152 289.056C440.261 289.056 441.518 288.762 441.962 288.468C442.48 288.171 439.301 287.948 434.938 287.948C426.508 287.874 422.807 287.06 418.444 284.102C415.043 281.809 414.528 279.148 417.559 279.888C420.591 280.625 431.978 280.626 435.233 279.812L438.191 279.147L434.938 278.777C432.276 278.407 431.609 278.037 431.462 276.632C431.166 275.006 431.314 275.006 438.779 275.006C444.473 275.006 447.212 274.637 450.022 273.601C455.048 271.606 462.956 267.761 462.964 267.167C462.964 266.944 461.041 266.947 458.601 267.242C455.347 267.612 452.39 267.316 446.622 266.058C437.379 264.062 435.899 263.174 442.554 263.692C446.102 263.988 447.433 263.839 447.434 263.248C447.434 262.73 447.804 262.582 448.174 262.805C448.619 263.028 448.91 262.952 448.911 262.658C448.91 262.288 447.138 261.399 445.067 260.66C440.187 258.959 439.447 258.295 441.517 257.629C442.404 257.333 443.515 257.48 443.958 257.924C444.995 258.959 454.904 258.959 458.823 257.924C460.45 257.48 463.186 256.519 464.813 255.78C466.44 255.114 469.101 254.079 470.728 253.561C479.602 250.751 489.734 243.505 492.618 237.885C493.431 236.332 495.429 234.187 497.129 233.078C499.198 231.673 499.79 230.932 499.051 230.785C497.644 230.489 484.483 233.743 478.198 235.888C475.833 236.701 473.763 237.218 473.539 237.071C472.727 236.257 483.817 232.264 493.651 229.824C495.278 229.38 498.091 228.566 499.94 227.9C506.817 225.534 508.593 225.239 515.617 224.944C520.72 224.722 523.604 224.202 525.601 223.241C527.376 222.299 528.777 221.965 532.424 222.003ZM410.185 457.97C400.608 447.797 401.033 447.772 384.307 459.419C379.543 462.737 381.155 464.679 392.556 469.35L398.552 471.805L402.176 472.823C404.462 472.823 414.461 473.466 417.746 472.442C417.847 471.482 417.98 470.581 418.099 469.651C418.065 469.394 418.051 469.084 418.051 468.719C418.051 467.109 415.483 463.599 410.185 457.97Z" fill="#DFDFD6"/>
<path d="M167.755 764.645H167.64C166.006 765.143 164.538 765.915 163.103 766.744L168.833 773.031C181.235 786.627 184.342 789.59 182.734 786.299C181.917 784.626 177.851 779.675 173.7 775.298C166.35 767.548 165.26 765.643 167.755 764.637V764.645ZM190.897 767.846C190.235 767.846 190.314 768.421 191.102 769.371C192.472 771.024 193.696 770.655 192.62 768.914C192.257 768.328 191.482 767.846 190.897 767.846ZM156.983 770.131C154.195 771.471 151.407 772.395 148.619 773.342C150.015 773.043 151.454 772.879 153.044 772.863C154.992 772.863 157.55 776.107 161.278 780.094C165.005 784.081 168.07 786.822 168.07 786.181C168.077 785.54 166.023 782.841 163.504 780.182C158.731 775.145 155.539 770.941 156.2 770.567C156.246 770.529 156.818 770.223 156.983 770.131ZM175.024 770.846C174.443 770.846 174.243 771.295 174.583 771.845C174.922 772.395 175.401 772.845 175.643 772.845C175.886 772.845 176.083 772.395 176.083 771.845C176.083 771.295 175.607 770.846 175.024 770.846ZM190.583 770.997C190.025 770.937 189.607 770.997 189.407 771.19C188.834 771.763 196.133 775.555 198.08 775.695C199.004 775.763 198.62 775.063 197.08 773.875C195.17 772.403 192.256 771.182 190.583 770.997ZM188.358 775.274C188.392 775.482 188.782 775.966 189.542 776.805C191.719 779.212 192.22 779.372 191.473 777.426C191.173 776.643 190.198 775.723 189.31 775.383C188.646 775.13 188.321 775.066 188.358 775.274ZM166.966 777.844C166.417 777.844 166.244 778.294 166.584 778.844C166.923 779.394 167.653 779.843 168.203 779.843C168.754 779.843 168.924 779.394 168.583 778.844C168.244 778.294 167.516 777.844 166.966 777.844ZM195.973 777.885C195.013 777.923 195.12 778.225 196.332 778.932C197.294 779.492 198.082 780.513 198.082 781.201C198.082 782.619 200.061 784.851 201.318 784.851C201.775 784.851 201.692 784.063 201.132 783.101C199.135 779.669 197.341 777.849 195.973 777.885ZM182.771 778.867C182.057 778.867 182.18 779.269 183.082 779.852C185.003 781.093 185.349 781.093 184.582 779.852C184.242 779.302 183.426 778.867 182.771 778.867ZM137.538 781.451C135.27 785.212 132.82 788.942 129.495 791.74C129.979 791.46 131.1 790.848 131.381 790.848C132.538 790.848 134.96 793.509 140.186 800.524C144.14 805.832 145.851 807.416 146.707 806.561C146.975 806.292 144.246 802.539 140.641 798.222C135.918 792.563 135.214 786.327 137.538 781.451ZM204.888 785.89C204.507 785.852 206.303 787.844 208.879 790.277C214.013 795.128 215.553 795.546 212.109 791.155C210.076 788.562 206.524 785.973 204.888 785.89ZM169.208 787.397C168.677 787.925 175.391 794.763 176.487 794.812C176.984 794.85 176.536 793.857 175.489 792.641C172.915 789.652 169.668 786.941 169.208 787.397Z" fill="#1B1B1F"/>
<path d="M220.075 768.901C219.088 768.901 219.432 769.559 221.077 770.846C223.639 772.85 225.077 773.339 225.077 772.207C225.077 771.152 221.685 768.901 220.075 768.901ZM220.577 774.6L223.075 776.575C226.501 779.281 232.074 781.006 232.074 779.36C232.074 778.835 226.903 776.546 222.991 775.341L220.577 774.6ZM218.96 776.845C218.411 776.845 218.237 777.295 218.577 777.845C218.917 778.395 219.647 778.845 220.196 778.845C220.747 778.845 220.917 778.395 220.577 777.845C220.238 777.295 219.51 776.845 218.96 776.845ZM228 782.875C227.511 782.875 227.076 783.155 227.076 783.762C227.076 784.644 236.651 789.849 238.272 789.849C238.716 789.849 239.075 789.4 239.075 788.849C239.075 788.299 238.491 787.849 237.776 787.849C237.062 787.849 235.942 787.316 235.29 786.664C234.637 786.011 233.084 785.324 231.84 785.135C230.595 784.946 229.429 784.357 229.244 783.823C229.033 783.208 228.489 782.875 228 782.875ZM241.389 790.136C241.137 790.178 241.073 790.533 241.073 791.226C241.073 792.223 241.911 792.847 243.242 792.847C244.434 792.847 245.223 792.722 244.992 792.567C244.763 792.412 243.787 791.681 242.825 790.945C242.075 790.37 241.639 790.095 241.389 790.136ZM246.572 808.817C244.295 808.817 244.751 809.917 248.324 812.989C251.084 815.361 251.346 815.95 250.072 816.888C248.906 817.747 248.861 818.108 249.861 818.511C255.318 820.714 255.669 825.598 252.7 826.869C262.699 826.869 269.975 820.397 277.697 816.846L274.081 814.346C270.306 811.73 269.071 811.306 269.071 812.624C269.071 813.055 270.49 814.246 272.225 815.272C275.199 817.028 275.276 817.215 273.536 818.488C271.213 820.188 269.988 820.221 270.622 818.567C270.891 817.867 269.795 816.486 268.187 815.536C264.462 813.336 264.312 813.387 264.498 816.089C264.582 817.326 265.196 818.225 265.861 818.089C266.526 817.953 267.07 818.643 267.07 819.626C267.07 821.957 263.584 822.221 260.395 820.131C258.517 818.901 258.257 818.324 259.264 817.634C260.296 816.926 260.174 816.482 258.698 815.538C257.667 814.879 255.402 813.407 253.665 812.267C251.928 811.127 249.96 810.364 249.29 810.587C248.621 810.81 248.072 810.518 248.072 809.924C248.072 809.328 247.397 808.817 246.572 808.817ZM242.758 812.479C241.777 812.279 241.842 813.213 243.276 814.647C244.63 816.001 246.074 816.229 246.074 815.088C246.074 814.67 245.172 813.765 244.072 813.079C243.525 812.735 243.087 812.547 242.758 812.479ZM252.401 814.186C253.427 813.159 257.073 816.934 257.073 819.023C257.073 820.049 258.198 821.402 259.572 822.028C260.947 822.655 262.07 823.545 262.07 824.007C262.07 825.328 260.779 824.943 258.073 822.813C256.698 821.732 254.993 820.36 254.282 819.767C253.559 819.172 253.26 817.827 253.597 816.768C253.973 815.582 253.738 814.846 252.976 814.846C252.296 814.846 252.039 814.547 252.401 814.186ZM242.577 817.535C242.203 817.573 242.075 817.834 242.075 818.367C242.075 819.517 243.458 820.286 246.324 820.73C246.737 820.794 247.07 820.507 247.066 820.095C247.063 819.683 245.937 818.827 244.566 818.191C243.573 817.731 242.951 817.497 242.577 817.535ZM200.505 840.079C200.016 840.569 210.479 847.972 214.828 850.212C217.354 851.514 218.61 854.051 218.07 855.893C219.657 852.273 221.135 850.593 223.984 847.832C219.484 851.732 217.985 851.232 212.01 846.754C206.181 842.375 201.136 839.448 200.505 840.079Z" fill="#1B1B1F"/>
<path fill-rule="evenodd" clip-rule="evenodd" d="M351.784 713.665C352.443 713.315 354.477 714.062 361.058 716.673C365.183 718.31 369.907 720.102 371.557 720.655C373.207 721.209 376.131 722.204 378.056 722.866C388.592 726.489 408.689 730.199 405.053 727.85C404.228 727.316 402.205 726.85 400.555 726.85C398.249 726.812 397.9 726.597 399.054 725.85C400.105 725.172 398.573 724.866 393.921 724.866C383.06 724.828 382.949 719.319 393.804 719.021C395.592 718.972 397.058 719.251 397.062 719.642C397.065 720.032 399.326 720.434 402.081 720.532C404.964 720.638 406.843 720.317 406.512 719.782C406.194 719.27 405.287 718.851 404.494 718.851C403.702 718.851 403.053 718.176 403.053 717.351C403.053 715.468 402.561 715.395 410.13 718.411C413.662 719.819 417.298 721.843 418.211 722.911C419.904 724.889 422.674 725.668 421.551 723.85C421.204 723.286 422.022 722.839 423.434 722.839C424.808 722.839 426.193 723.271 426.509 723.784C426.778 724.221 427.765 724.155 428.959 723.684L428.199 723.994C409.024 730.713 407.279 732.84 394.845 741.426C395.047 740.426 392.259 739.065 386.983 738.215C370.726 735.596 370.91 735.041 387.907 735.438C401.733 735.759 404.17 735.6 403.709 734.397C403.396 733.579 403.887 732.787 404.86 732.53C405.96 732.24 405.677 732.032 404.053 731.938C402.678 731.858 398.405 730.876 394.556 729.757C390.706 728.637 386.43 727.492 385.055 727.212C383.68 726.932 381.656 726.335 380.556 725.886C379.456 725.437 376.306 724.37 373.557 723.513C363.68 720.439 351.371 715.333 351.466 714.352C351.498 714.02 351.565 713.782 351.784 713.665Z" fill="#1B1B1F"/>
<path d="M386.87 734.172C387.591 733.885 388.453 733.92 388.785 734.252C389.118 734.585 388.528 734.819 387.475 734.777C386.31 734.728 386.072 734.493 386.87 734.172Z" fill="#1B1B1F"/>
<path d="M458.707 705.881C452.137 710.339 445.091 715.104 438.151 718.919C439.421 717.852 440.434 716.834 440.049 716.754C439.772 716.698 435.162 716.358 429.8 716.003C420.959 715.413 417.942 715.836 421.301 717.19C421.988 717.464 420.95 717.728 418.991 717.774C417.032 717.815 413.517 716.93 411.181 715.801C408.845 714.673 406.172 713.824 405.242 713.915C404.313 714.006 403.033 714.032 402.397 713.968C400.761 713.805 401.984 709.853 403.67 709.853C404.431 709.853 405.053 709.403 405.053 708.853C405.053 708.303 404.378 707.853 403.553 707.853C402.728 707.853 402.054 707.374 402.053 706.787C402.053 706.207 402.843 705.939 403.805 706.207C404.767 706.475 408.564 706.988 412.243 707.348C417.19 707.831 418.8 708.345 418.426 709.32C417.65 711.346 425.428 713.74 434.549 714.284C442.31 714.747 442.459 714.714 439.549 713.182C437.899 712.313 435.818 710.966 434.924 710.187C434.031 709.408 432.908 708.843 432.427 708.93C430.34 709.312 428.05 708.78 428.05 707.912C428.05 706.925 437.295 707.27 438.994 708.32C440.858 709.471 452.805 709.023 455.174 707.713C456.634 706.905 460.414 704.753 462.173 703.571L458.707 705.881Z" fill="#1B1B1F"/>
<path d="M397.484 714.095C397.827 713.751 399.099 714.454 400.305 715.661C401.893 717.248 402.093 717.855 401.028 717.817C399.256 717.771 396.599 714.98 397.484 714.095Z" fill="#1B1B1F"/>
<path d="M341.871 711.269C342.369 711.208 343.056 711.27 343.812 711.421C348.335 712.412 349.06 712.745 349.06 713.825C349.06 714.392 348.499 714.823 347.812 714.778C345.404 714.627 341.063 712.682 341.063 711.755C341.063 711.497 341.373 711.329 341.871 711.269Z" fill="#1B1B1F"/>
<path d="M373.057 709.855C373.057 709.06 373.552 708.769 374.389 708.947C375.225 709.125 376.408 709.77 377.787 710.855C379.185 711.955 379.845 712.855 379.253 712.855C378.662 712.855 377.898 712.404 377.558 711.855C377.218 711.305 376.067 710.855 375 710.855C373.933 710.855 373.057 710.405 373.057 709.855Z" fill="#1B1B1F"/>
<path d="M367.733 708.002C368.959 707.749 371.457 708.519 371.815 709.605C372.049 710.313 371.395 710.855 370.309 710.855C368.234 710.855 367.057 710.049 367.057 708.621C367.057 708.285 367.326 708.085 367.733 708.002Z" fill="#1B1B1F"/>
<path d="M385.057 707.303C385.061 706.629 390.366 707.941 391.392 708.871C391.853 709.288 391.853 709.861 391.391 710.148C390.543 710.672 385.058 708.208 385.057 707.303Z" fill="#1B1B1F"/>
<path d="M395.427 705.555C396.78 705.377 399.055 705.803 399.056 706.47C399.056 706.682 397.905 706.853 396.497 706.853C395.091 706.853 394.192 706.448 394.5 705.949C394.628 705.74 394.976 705.611 395.427 705.555Z" fill="#1B1B1F"/>
<path d="M389.826 693.033C390.386 692.95 391.574 693.346 393.422 694.224C395.312 695.121 397.825 695.855 399.007 695.855C401.121 695.855 407.055 698.456 407.055 699.382C407.054 700.965 391.164 696.647 389.986 694.744C389.333 693.686 389.265 693.116 389.826 693.033Z" fill="#1B1B1F"/>
<path d="M378.447 693.99C380.935 693.718 387.551 694.921 388.961 696.331C390.327 697.696 390.323 697.855 388.922 697.855C388.071 697.855 387.089 697.566 386.739 697.218C386.387 696.867 384.457 696.451 382.446 696.292C380.435 696.134 378.283 695.461 377.666 694.8C377.231 694.334 377.601 694.081 378.429 693.99H378.447Z" fill="#1B1B1F"/>
<path d="M392.554 681.433C394.203 681.754 395.742 682.208 395.972 682.439C397.141 683.608 395.203 683.505 392.556 682.257L389.557 680.847L392.554 681.433Z" fill="#1B1B1F"/>
<path d="M411.652 677.398C412.067 677.398 412.811 677.576 413.978 677.982C415.668 678.572 417.053 679.46 417.053 679.957C417.053 680.451 416.939 680.814 416.803 680.757C416.667 680.704 415.462 680.354 414.128 679.98C412.794 679.606 411.523 678.764 411.304 678.106C411.153 677.651 411.24 677.436 411.652 677.398Z" fill="#1B1B1F"/>
<path d="M453.549 672.481C455.199 672.832 456.977 673.512 457.5 673.991C459.066 675.426 455.787 674.929 453.049 673.317L450.549 671.844L453.549 672.481Z" fill="#1B1B1F"/>
<path d="M532.659 663.861C533.484 663.861 533.879 664.311 533.539 664.861C533.199 665.411 532.247 665.861 531.423 665.861C530.598 665.861 530.2 665.411 530.54 664.861C530.88 664.311 531.834 663.861 532.659 663.861Z" fill="#1B1B1F"/>
<path d="M349.119 639.514C349.123 640.528 361.616 645.864 364.05 645.865C365.199 645.865 367.901 646.764 370.057 647.864C372.213 648.964 374.644 649.864 375.459 649.864C377.024 649.864 378.601 651.657 377.767 652.491C377.493 652.762 374.41 652.074 370.914 650.963C361.37 647.932 346.696 643.835 345.562 643.884C345.137 643.903 344.56 643.961 343.968 644.344C346.105 642.558 348.469 639.944 349.119 639.514Z" fill="#1B1B1F"/>
<path d="M642.925 643.151C643.671 642.958 644.211 642.92 644.516 642.996C644.823 643.071 644.893 643.273 644.696 643.586C644.352 644.144 641.852 644.895 639.14 645.254C636.429 645.613 631.693 646.774 628.618 647.832C625.543 648.89 623.027 649.366 623.027 648.89C623.027 647.89 630.685 645.33 636.525 644.379C638.725 644.02 641.605 643.468 642.925 643.151Z" fill="#1B1B1F"/>
<path d="M627.528 644.17C623.834 645.855 619.027 647.093 619.027 646.36C619.027 645.62 622.783 644.26 627.028 643.462L630.528 642.803L627.528 644.17Z" fill="#1B1B1F"/>
<path d="M407.615 641.864C407.857 641.864 408.054 642.314 408.055 642.864C408.055 643.414 407.577 643.864 406.994 643.864C406.412 643.864 406.215 643.414 406.555 642.864C406.895 642.314 407.372 641.864 407.615 641.864Z" fill="#1B1B1F"/>
<path d="M422.293 640.251C423.067 640.296 423.174 640.464 422.551 640.736C419.37 642.132 409.382 643.239 410.552 642.068C411.102 641.518 414.477 640.797 418.051 640.465C420.081 640.291 421.519 640.202 422.293 640.251Z" fill="#1B1B1F"/>
<path d="M455.049 637.96C455.049 637.541 456.062 637.311 457.299 637.447C458.536 637.583 460.561 637.737 461.798 637.783C463.035 637.828 464.048 638.317 464.048 638.866C464.048 639.864 461.532 639.973 457.299 639.157C456.061 638.919 455.049 638.38 455.049 637.96Z" fill="#1B1B1F"/>
<path d="M419.469 627.753C420.644 627.681 421.468 627.716 421.611 627.962C421.872 628.384 421.744 628.935 421.32 629.184C419.8 630.089 407.568 631.075 408.383 630.229C409.267 629.311 415.945 627.972 419.469 627.753Z" fill="#1B1B1F"/>
<path d="M423.994 626.866C424.511 626.866 425.213 627.316 425.552 627.866C425.893 628.416 425.469 628.866 424.613 628.866C423.756 628.866 423.053 628.416 423.053 627.866C423.053 627.316 423.477 626.866 423.994 626.866Z" fill="#1B1B1F"/>
<path d="M370.952 621.182C372.323 621.051 372.949 621.238 372.625 621.762C372.247 622.371 370.955 622.886 369.751 622.924C367.244 622.988 362.535 624.832 359.935 626.49C360.527 626.01 361.307 625.097 363.154 621.753C363.019 622.546 363.556 622.86 364.81 622.508C367.463 621.761 369.58 621.311 370.952 621.182Z" fill="#1B1B1F"/>
<path d="M615.496 616.52C615.9 616.365 616.336 616.331 616.709 616.403C617.083 616.474 617.392 616.648 617.555 616.912C617.88 617.438 617.222 617.867 616.088 617.867C613.674 617.867 613.43 617.313 615.496 616.52Z" fill="#1B1B1F"/>
<path d="M589.593 614.87C591.711 614.87 592.9 615.274 592.532 615.869C592.192 616.419 590.592 616.869 588.974 616.869C587.357 616.869 586.031 616.419 586.031 615.869C586.031 615.319 587.636 614.87 589.593 614.87Z" fill="#1B1B1F"/>
<path d="M396.556 614.37C401.082 614.37 403.003 615.76 398.806 615.998C397.568 616.07 395.544 616.233 394.306 616.362C393.069 616.49 392.056 616.097 392.056 615.485C392.056 614.832 393.917 614.37 396.556 614.37Z" fill="#1B1B1F"/>
<path d="M594.782 615.206C595.469 614.93 596.594 614.93 597.282 615.206C597.969 615.481 597.407 615.711 596.032 615.711C594.657 615.711 594.095 615.485 594.782 615.206Z" fill="#1B1B1F"/>
<path d="M407.055 613.698C408.154 613.592 409.156 613.584 409.88 613.656C410.606 613.728 411.054 613.881 411.054 614.092C411.053 614.518 409.254 614.866 407.055 614.866C404.855 614.866 403.053 614.689 403.053 614.473C403.053 614.254 404.855 613.906 407.055 613.698Z" fill="#1B1B1F"/>
<path d="M608.792 614.147C610.036 613.909 611.836 613.921 612.792 614.185C613.747 614.433 612.731 614.619 610.53 614.619C608.331 614.619 607.548 614.4 608.792 614.162V614.147Z" fill="#1B1B1F"/>
<path d="M391.203 605.932C393.944 605.346 395.747 605.13 396.484 605.266C397.221 605.402 396.893 605.887 395.374 606.7C394.355 607.246 391.839 608.008 389.787 608.393C383.951 609.488 385.264 607.206 391.203 605.932Z" fill="#1B1B1F"/>
<path d="M399.306 604.183C400.268 603.929 401.843 603.929 402.805 604.183C403.767 604.437 402.979 604.638 401.055 604.638C399.13 604.638 398.344 604.436 399.306 604.183Z" fill="#1B1B1F"/>
<path d="M636.434 601.775C636.273 601.632 636.118 601.486 636.025 601.372C634.593 599.647 629.564 599.822 622.529 601.843C617.054 603.416 612.031 603.984 612.03 603.028C612.03 602.513 613.267 601.8 614.78 601.445C626.395 598.712 634.153 594.855 633.385 592.985C635.144 597.266 634.605 599.189 636.434 601.775Z" fill="#1B1B1F"/>
<path d="M416.803 596.209C417.491 595.933 418.616 595.933 419.303 596.209C419.991 596.484 419.428 596.715 418.051 596.715C416.676 596.715 416.116 596.489 416.803 596.209Z" fill="#1B1B1F"/>
<path d="M421.803 595.209C422.49 594.933 423.615 594.933 424.303 595.209C424.99 595.484 424.427 595.715 423.053 595.715C421.678 595.715 421.116 595.489 421.803 595.209Z" fill="#1B1B1F"/>
<path d="M429.552 592.872C430.377 592.872 431.052 593.322 431.052 593.871C431.052 594.421 430.377 594.871 429.552 594.871C428.727 594.871 428.052 594.421 428.052 593.871C428.052 593.322 428.727 592.872 429.552 592.872Z" fill="#1B1B1F"/>
<path d="M435.69 591.819C437.081 591.29 438.175 591.161 438.723 591.35C439.271 591.539 439.272 592.041 438.484 592.776C437.971 593.255 436.538 593.952 435.301 594.326C432.089 595.297 432.437 593.056 435.69 591.819Z" fill="#1B1B1F"/>
<path d="M420.282 590.932C420.789 590.932 421.051 591.246 421.051 591.872C421.051 592.422 420.041 592.858 418.803 592.858C416.984 592.858 416.838 592.654 418.051 591.872C419.021 591.246 419.774 590.932 420.282 590.932Z" fill="#1B1B1F"/>
<path d="M591.94 510.512C590.734 514.139 589.778 516.937 589.29 519.262C589.724 516.04 587.816 515.306 584.284 518.132C583.597 518.681 583.033 518.737 583.033 518.253C583.033 517.769 585.059 516.148 587.533 514.654C589.712 513.338 591.207 511.896 591.94 510.512Z" fill="#1B1B1F"/>
<path d="M446.167 459.512C453.381 459.028 461.347 462.518 468.446 469.744C468.446 469.744 474.407 476.175 473.722 480.971C467.955 521.384 461.408 514.012 429.169 516.676C427.959 516.776 420.409 516.886 419.303 516.886C417.913 516.895 417.791 517.959 417.791 519.21C416.961 515.961 416.461 513.961 415.051 511.881C418.96 512.777 422.865 512.721 426.767 512.695L426.773 512.705C436.555 512.648 449.226 511.751 453.549 510.294C462.341 507.33 463.023 506.306 466.514 490.841C466.514 490.841 469.695 483.982 467.955 479.781C466.83 477.066 463.813 474.106 463.813 474.106C453.927 464.011 445.965 462.449 436.471 468.737C433.254 470.868 430.374 471.815 425.808 472.246C424.696 472.352 419.861 472.355 417.747 472.442C417.461 471.467 417.747 470.779 418.101 469.647C418.203 471.031 418.682 470.957 420.303 470.568C421.54 470.269 424.26 469.718 426.347 469.339C428.746 468.904 431.687 467.209 434.346 464.729C437.781 461.524 441.839 459.803 446.167 459.512Z" fill="#1B1B1F"/>
<path d="M596.362 499.472C594.967 503.098 593.054 507.878 592.27 509.648C592.885 507.965 592.061 506.928 589.395 507.942C585.271 509.509 585.636 508.448 589.862 506.584C592.262 505.525 595.439 501.463 596.362 499.472Z" fill="#1B1B1F"/>
<path d="M528.29 498.165C529.802 497.934 532.277 497.934 533.789 498.165C535.302 498.393 534.065 498.582 531.04 498.582C528.015 498.582 526.778 498.395 528.29 498.165Z" fill="#1B1B1F"/>
<path d="M518.875 482.485C519.517 482.542 521.054 482.657 522.291 482.748C524.127 482.884 524.263 483.091 523.039 483.882C520.837 485.306 516.793 485.129 517.291 483.633C517.522 482.946 518.234 482.428 518.875 482.485Z" fill="#1B1B1F"/>
<path d="M531.28 482.538C534.237 482.13 536.787 482.084 538.478 482.334C540.17 482.587 541.002 483.133 540.521 483.911C539.966 484.808 538.116 484.8 530.04 483.858L525.54 483.333L531.28 482.538Z" fill="#1B1B1F"/>
<path d="M558.286 481.194C559.249 480.941 560.824 480.941 561.786 481.194C562.748 481.449 561.96 481.652 560.036 481.652C558.112 481.652 557.324 481.444 558.286 481.194Z" fill="#1B1B1F"/>
<path d="M519.291 480.168C520.803 479.937 523.278 479.937 524.791 480.168C526.303 480.398 525.066 480.584 522.041 480.584C519.016 480.584 517.779 480.398 519.291 480.168Z" fill="#1B1B1F"/>
<path d="M358.059 471.915C360.683 471.915 361.185 472.157 360.06 472.884C359.235 473.417 358.334 473.854 358.059 473.854C357.782 473.854 356.885 473.417 356.061 472.884C354.936 472.157 355.435 471.915 358.059 471.915Z" fill="#1B1B1F"/>
<path d="M532.04 471.401C533.388 471.288 534.364 471.273 534.889 471.349C535.414 471.424 535.49 471.595 535.041 471.841C532.418 473.278 521.041 474.207 521.041 472.983C521.041 472.379 522.503 471.873 524.291 471.835C526.078 471.797 529.565 471.613 532.04 471.401Z" fill="#1B1B1F"/>
<path d="M402.176 472.823C383.66 473.121 363.04 473.199 362.478 472.639C362.065 472.226 370.014 471.885 380.142 471.847L398.556 471.806L395.722 470.646L402.176 472.823Z" fill="#1B1B1F"/>
<path d="M348.312 472.194C349.274 471.941 350.849 471.941 351.811 472.194C352.773 472.449 351.985 472.653 350.061 472.653C348.137 472.653 347.349 472.444 348.312 472.194Z" fill="#1B1B1F"/>
<path d="M552.492 466.906C553.763 466.906 555.12 467.208 555.467 467.771C555.769 468.258 554.904 468.868 553.549 469.128C551.037 469.608 550.036 469.208 550.036 467.718C550.036 467.159 551.222 466.906 552.492 466.906Z" fill="#1B1B1F"/>
<path d="M545.85 468.203C546.572 467.915 547.434 467.95 547.766 468.283C548.099 468.615 547.509 468.852 546.456 468.807C545.291 468.758 545.053 468.524 545.85 468.203Z" fill="#1B1B1F"/>
<path d="M364.999 452.886C366.131 452.886 367.057 453.336 367.057 453.886C367.057 454.436 366.413 454.886 365.62 454.886C364.828 454.886 363.9 454.436 363.56 453.886C363.22 453.336 363.866 452.886 364.999 452.886Z" fill="#1B1B1F"/>
<path d="M414.864 443.206C415.586 442.919 416.452 442.954 416.784 443.286C417.116 443.619 416.527 443.857 415.472 443.811C414.307 443.762 414.067 443.527 414.864 443.206Z" fill="#1B1B1F"/>
<path d="M357.061 440.888C357.61 440.888 358.059 441.338 358.059 441.888C358.058 442.438 357.61 442.888 357.061 442.888C356.511 442.888 356.061 442.438 356.061 441.888C356.061 441.338 356.511 440.888 357.061 440.888Z" fill="#1B1B1F"/>
<path d="M367.057 440.888C371.192 440.888 373.933 441.277 373.6 441.818C372.916 442.925 361.117 442.787 360.424 441.666C360.161 441.239 363.144 440.888 367.057 440.888Z" fill="#1B1B1F"/>
<path d="M560.597 438.888C561.454 438.888 561.876 439.338 561.536 439.888C561.196 440.438 560.493 440.888 559.976 440.888C559.458 440.888 559.034 440.438 559.034 439.888C559.035 439.338 559.74 438.888 560.597 438.888Z" fill="#1B1B1F"/>
<path d="M587.033 437.888C588.198 437.888 588.873 438.338 588.533 438.888C588.193 439.438 587.518 439.888 587.033 439.888C586.548 439.888 585.873 439.438 585.533 438.888C585.193 438.338 585.87 437.888 587.033 437.888Z" fill="#1B1B1F"/>
<path d="M580.262 437.949C580.77 437.949 581.034 438.262 581.034 438.888C581.034 439.438 580.021 439.874 578.784 439.874C576.965 439.874 576.822 439.67 578.034 438.888C579.003 438.263 579.755 437.949 580.262 437.949Z" fill="#1B1B1F"/>
<path d="M593.118 437.441C593.8 437.441 594.636 437.554 595.555 437.83C598.496 438.708 598.486 438.715 594.583 438.802C592.021 438.859 590.976 438.549 591.607 437.916C591.909 437.612 592.436 437.441 593.118 437.441Z" fill="#1B1B1F"/>
<path d="M475.546 432.531C482.467 431.571 500.099 430.962 508.482 431.166C511.275 431.234 513.04 431.393 513.042 431.658C513.042 432.248 510.455 433.013 507.293 433.361C504.13 433.708 498.92 434.349 495.714 434.785C492.508 435.221 485.984 435.456 481.216 435.305C476.448 435.154 464.448 435.451 454.549 435.968C444.65 436.483 434.442 437.057 431.864 437.238C429.286 437.419 426.586 437.196 425.865 436.737C425.081 436.24 427.164 435.856 431.052 435.776C438.599 435.625 442.197 435.276 447.05 434.217C448.975 433.797 455.274 433.372 461.048 433.27C466.822 433.168 473.347 432.837 475.546 432.531Z" fill="#1B1B1F"/>
<path d="M499.794 435.227C500.481 434.951 501.606 434.951 502.293 435.227C502.981 435.502 502.418 435.732 501.043 435.732C499.669 435.732 499.106 435.506 499.794 435.227Z" fill="#1B1B1F"/>
<path d="M640.874 435.166C642.666 434.954 645.295 434.955 646.78 435.166C648.247 435.391 646.818 435.568 643.526 435.568C640.321 435.565 639.296 435.378 640.874 435.166Z" fill="#1B1B1F"/>
<path d="M622.779 434.229C623.466 433.953 624.591 433.953 625.278 434.229C625.966 434.504 625.403 434.735 624.029 434.735C622.653 434.735 622.092 434.508 622.779 434.229Z" fill="#1B1B1F"/>
<path d="M580.032 429.879C581.196 429.879 581.873 430.328 581.534 430.879C581.194 431.428 580.517 431.878 580.032 431.878C579.547 431.878 578.874 431.428 578.534 430.879C578.194 430.328 578.867 429.879 580.032 429.879Z" fill="#1B1B1F"/>
<path d="M567.104 430.053C570.692 430.109 574.281 430.468 574.66 431.078C574.932 431.516 571.5 431.875 567.035 431.875C561.684 431.875 559.137 431.523 559.56 430.838C559.931 430.241 563.516 429.996 567.104 430.053Z" fill="#1B1B1F"/>
<path d="M552.287 431.204C553.25 430.954 554.825 430.954 555.787 431.204C556.749 431.453 555.961 431.661 554.037 431.661C552.112 431.661 551.325 431.457 552.287 431.204Z" fill="#1B1B1F"/>
<path d="M799.927 412.454C799.275 415.797 798.915 417.474 797.715 421.294C797.715 418.974 788.062 418.698 771.677 418.662C759.03 418.625 754.042 418.368 757.011 417.842C759.486 417.406 764.938 417.017 769.125 416.975C773.312 416.934 779.05 416.463 781.877 415.926C784.703 415.391 789.492 414.869 792.518 414.77C796.286 414.646 799.288 413.612 799.927 412.454Z" fill="#1B1B1F"/>
<path d="M568.063 419.194C569.148 419.027 570.035 419.342 570.035 419.888C570.034 420.434 568.835 420.882 567.369 420.882C564.434 420.882 564.931 419.672 568.063 419.194Z" fill="#1B1B1F"/>
<path d="M561.329 419.253C561.511 419.174 561.759 419.212 562.034 419.382C562.584 419.722 563.036 420.197 563.036 420.439C563.036 420.68 562.584 420.88 562.034 420.88C561.484 420.88 561.036 420.402 561.036 419.82C561.036 419.527 561.152 419.333 561.329 419.253Z" fill="#1B1B1F"/>
<path d="M581.284 418.979C586.947 419.047 588.749 419.33 587.033 419.879C583.371 421.052 573.035 421.052 573.035 419.879C573.035 419.285 576.385 418.918 581.284 418.979Z" fill="#1B1B1F"/>
<path d="M590.847 419.197C591.568 418.913 592.429 418.942 592.761 419.275C593.093 419.605 592.504 419.842 591.451 419.797C590.29 419.748 590.059 419.514 590.847 419.197Z" fill="#1B1B1F"/>
<path d="M897 397.165C897.496 396.36 897.853 399.285 897.906 406.2L897.996 417.999C896.961 418.177 895.816 418.225 894.658 418.278L895.254 410.503C895.868 402.505 896.504 397.971 897 397.165Z" fill="#1B1B1F"/>
<path d="M474.713 415.056C475.637 415.108 476.046 415.334 476.046 415.741C476.046 416.367 474.584 416.882 472.797 416.885C471.009 416.889 466.397 417.178 462.548 417.526C458.698 417.873 455.874 417.809 456.271 417.378C456.669 416.95 458.694 416.514 460.771 416.412C462.848 416.31 467.135 415.859 470.297 415.414C472.349 415.127 473.788 415.006 474.713 415.056Z" fill="#1B1B1F"/>
<path d="M478.985 414.882C479.568 414.882 480.046 415.331 480.046 415.882C480.046 416.431 479.849 416.881 479.606 416.881C479.365 416.881 478.886 416.431 478.546 415.882C478.206 415.331 478.402 414.882 478.985 414.882Z" fill="#1B1B1F"/>
<path d="M607.454 411.761C610.677 411.22 613.59 411.087 615.217 411.261C616.845 411.435 617.188 411.92 615.276 412.602C612.612 413.553 614.236 414.381 618.775 414.385C627.448 414.385 650.302 415.83 650.879 416.404C651.345 416.87 615.764 416.465 612.526 415.967C611.975 415.883 605.427 415.97 597.975 416.163C590.522 416.356 583.998 416.405 583.477 416.28C582.956 416.155 581.292 415.779 579.78 415.446C573.455 414.051 577.528 412.884 588.482 412.952C594.78 412.994 603.317 412.456 607.454 411.761Z" fill="#1B1B1F"/>
<path d="M572.285 412.898C573.797 412.898 575.035 413.332 575.035 413.882C575.034 415.146 572.989 415.146 571.033 413.882C569.865 413.128 570.142 412.898 572.285 412.898Z" fill="#1B1B1F"/>
<path d="M781.297 412.382C783.532 412.254 784.94 412.586 784.738 413.194C784.313 414.468 780.982 414.772 778.426 413.771C776.078 412.85 776.473 412.658 781.297 412.382Z" fill="#1B1B1F"/>
<path d="M665.362 409.996C686.334 410.075 706.283 410.379 704.415 410.826C702.708 411.233 687.185 411.667 669.92 411.788C652.654 411.909 633.929 412.182 628.307 412.394C618.338 412.768 613.943 411.747 620.172 410.501C622.396 410.056 644.39 409.916 665.362 409.996Z" fill="#1B1B1F"/>
<path d="M800.757 405.841C800.598 408.006 800.359 410.075 800.035 411.868C800.008 411.666 799.905 411.463 799.707 411.264C798.486 410.045 783.824 408.978 765.512 408.778L746.514 408.57L760.512 407.744C768.211 407.29 776.31 406.757 778.51 406.557C779.781 406.441 791.985 406.079 800.757 405.841Z" fill="#1B1B1F"/>
<path d="M625.741 400.22C628.392 400.182 629.638 400.363 629.028 400.737C626.97 401.994 616.391 402.743 614.813 401.741C614.107 401.293 613.755 400.923 614.03 400.886C619.035 400.469 623.09 400.257 625.741 400.22Z" fill="#1B1B1F"/>
<path d="M653.775 400.22C654.462 399.944 655.587 399.944 656.275 400.22C656.962 400.497 656.4 400.723 655.023 400.723C653.648 400.723 653.088 400.495 653.775 400.22Z" fill="#1B1B1F"/>
<path d="M841.001 399.192C856.451 399.23 856.866 399.273 847.502 399.945C833.65 400.938 806.38 400.87 817.004 399.866C821.128 399.476 831.927 399.155 841.001 399.192Z" fill="#1B1B1F"/>
<path d="M607.029 393.898C607.579 393.898 608.03 394.348 608.031 394.898C608.031 395.448 607.579 395.898 607.029 395.898C606.479 395.898 606.031 395.448 606.031 394.898C606.031 394.348 606.479 393.898 607.029 393.898Z" fill="#1B1B1F"/>
<path d="M612.721 393.811C619.38 393.622 623.85 393.532 626.708 393.623C629.566 393.714 630.811 393.969 631.026 394.4C631.706 395.765 611.383 396.276 610.542 394.915C610.176 394.325 611.09 393.864 612.721 393.811Z" fill="#1B1B1F"/>
<path d="M798.309 390.905C815.596 390.868 826.628 391.019 825.505 391.407C824.563 391.732 772.171 393.053 749.014 393.337C743.239 393.409 738.065 393.71 737.515 394.012C735.127 395.318 720.017 395.081 720.002 393.736C720.001 392.644 719.831 392.639 719.156 393.699C718.646 394.502 716.438 394.977 713.422 394.935C710.723 394.897 691.533 395.081 670.773 395.345C639.281 395.748 627.249 395.262 633.278 393.832C638.3 392.639 746.446 390.985 798.309 390.895V390.905Z" fill="#1B1B1F"/>
<path d="M667.107 361.771C684.583 366.504 701.463 368.453 719.734 366.701C719.734 366.701 719.664 366.789 719.589 366.789C719.308 367.242 715.71 367.898 711.406 368.299L709.666 368.453C705.359 368.857 701.753 369.526 701.463 369.995C700.529 371.503 684.647 371.064 680.717 369.422C677.792 368.2 673.249 368.042 654.847 368.507C638.914 368.909 632.956 368.766 634.025 368.003C634.85 367.417 636.313 366.923 637.275 366.923C638.237 366.923 639.025 366.456 639.025 365.906C639.025 365.337 641.975 364.908 645.874 364.908C660.17 364.908 669.426 363.352 667.107 361.771Z" fill="#1B1B1F"/>
<path d="M617.779 367.909C624.489 367.909 622.728 369.547 615.28 370.25C606.971 371.035 604.093 370.982 601.572 369.997C599.524 369.196 609.397 367.909 617.779 367.909Z" fill="#1B1B1F"/>
<path fill-rule="evenodd" clip-rule="evenodd" d="M431.254 539.075C426.884 536.285 421.73 529.225 419.27 523.814C421.96 531.459 425.96 543.773 425.64 545.033C424.303 552.956 423.532 557.955 422.74 565.91C421.96 566.454 421.364 569.796 420.907 570.709C420.272 571.979 419.845 572.285 417.189 574.188C415.666 575.279 413.41 576.894 409.962 579.518C412.682 577.78 415.694 575.001 418.851 574.269C420.156 573.966 421.104 574.436 423.532 575.448C428.168 577.386 427.026 578.256 418.703 579.26C408.909 580.442 412.253 581.728 421.632 581.468C422.991 581.43 424.058 581.328 425.702 581.268C436.414 580.793 439.808 581.011 446.949 582.717C461.032 586.086 461.415 586.309 453.704 587.764C450.044 588.454 446.238 589.669 445.248 590.463C443.601 591.785 443.701 591.936 446.449 591.466C449.809 590.889 453.704 590.463 458.448 589.067C460.501 587.564 464.584 587.001 468.947 587.967C471.422 588.514 476.287 589.445 479.758 590.027C484.988 590.902 485.952 591.327 485.396 592.679C484.196 595.594 479.756 609.145 477.819 615.807C475.627 623.343 471.081 651.037 470.333 661.41C469.397 674.402 468.547 678.329 466.738 678.023C465.836 677.872 464.814 678.208 464.467 678.773C464.096 679.373 464.893 679.798 466.388 679.798C468.56 679.798 468.868 680.383 468.962 683.56L467.955 694.96C467.349 694.653 467.464 694.561 465.81 694.289C463.411 693.891 460.672 693.158 459.725 692.66C458.777 692.163 455.851 691.31 453.224 690.767C451.421 690.394 449.208 689.938 447.463 689.579C446.665 689.415 445.965 689.271 445.447 689.164C440.396 688.126 443.912 690.33 450.197 692.141C454.241 693.306 456.099 693.904 457.929 694.492C458.405 694.645 458.879 694.798 459.389 694.96C464.628 696.62 466.947 697.627 466.947 698.829C466.947 699.653 466.049 700.842 463.905 702.394C470.333 700.436 483.616 691.125 494.674 690.858L495.365 678.051C496.343 660.029 499.71 622.435 500.986 615.309C501.576 612.01 502.32 607.614 502.638 605.539C503.027 602.991 503.288 601.701 504.638 601.395C505.987 601.089 508.426 601.769 513.164 603.15C517.717 604.479 523.348 606.088 525.676 606.726C532.357 608.556 534.332 618.28 534.404 649.689L534.443 666.068L527.442 668.329C523.592 669.574 517.234 671.545 513.31 672.708C509.387 673.87 505.559 675.576 504.808 676.5C503.621 677.957 503.661 678.189 505.089 677.655C505.994 677.315 508.694 676.441 511.088 675.755C513.482 675.07 515.892 674.237 516.443 673.855C516.993 673.474 519.917 672.565 522.942 671.856C525.966 671.147 529.846 669.972 531.564 669.256L531.574 669.252C535.938 667.437 535.939 667.437 535.939 683.972L536.036 698.852C552.944 698.852 559.444 705.656 568.033 705.656V699.055C568.031 692.242 566.545 673.006 565.543 667.125C565.019 664.048 565.035 664.045 569.351 663.495L569.652 663.457C572.283 663.12 576.233 662.337 578.433 661.777C587.156 659.554 594.7 657.9 600.174 656.858C603.333 656.256 605.818 655.335 605.518 654.848C605.012 654.026 613.181 652.238 619.238 651.958C620.247 651.913 620.936 651.479 620.486 650.753C619.66 649.419 604.729 649.914 603.68 651.311C603.2 651.95 602.722 651.847 602.188 651.02C601.559 650.044 600.236 649.957 597.096 650.661C594.807 651.175 593.032 651.409 593.03 651.179C593.03 650.949 591.588 651.454 589.947 652.301C588.305 653.15 585.718 653.998 584.197 654.187C582.677 654.376 577.893 655.528 573.568 656.753C569.307 657.959 567.132 658.687 565.826 657.925C564.208 656.981 563.925 653.751 562.663 646.31C560.433 630.31 553.616 604.744 548.545 593.277C547.143 590.106 546.136 587.436 546.295 587.277C546.457 587.117 550.077 585.661 554.461 584.017C558.846 582.373 566.257 579.438 570.931 577.448C571.019 577.411 571.108 577.373 571.201 577.333C574.353 575.988 580.588 573.326 587.388 575.268C587.343 575.245 582.028 572.353 579.388 570.209C578.099 569.161 576.117 569.129 574.942 567.954C575.442 555.456 575.442 561.455 575.442 551.456C575.905 546.107 581.022 544.074 583.441 539.958C586.94 534.458 587.44 530.959 586.94 527.049C586.462 530.3 583.113 531.503 580.24 532.536C576.681 533.815 573.208 535.328 569.718 536.781C554.371 543.097 557.062 543.618 570.956 538.473C593.044 530.35 583.898 540.99 570.751 546.405C570.083 546.685 569.454 546.955 568.802 547.236C567.169 547.939 565.389 548.705 562.468 549.841C545.011 556.634 518.472 559.104 497.942 555.846C493.869 555.2 488.838 554.21 483.694 553.155L469.871 550.105C454.667 546.595 439.511 542.592 432.887 540.017C432.445 539.844 431.975 539.54 431.504 539.236C431.42 539.182 431.337 539.128 431.254 539.075Z" fill="#1B1B1F"/>
<path d="M489.557 335.44C490.978 339.27 493.086 344.429 494.239 346.903C495.391 349.378 497.421 353.843 498.752 356.825C500.816 361.452 509.148 375 520.196 391.696C521.76 394.06 523.039 396.191 523.04 396.431C523.04 397.33 529.449 407.485 531.379 409.645C534.215 412.82 534.35 412.711 537.491 404.646C539.044 400.659 541.305 395.147 542.518 392.397C545.205 386.308 549.319 374.494 551.564 366.422C552.339 363.634 553.336 360.595 554.448 357.693C564.197 361.012 574.442 361.982 589.49 358.152C589.703 358.157 589.616 358.223 589.463 358.339C589.289 358.47 589.032 358.665 589.032 358.907C589.032 359.484 592.516 359.948 597.281 360.008C612.251 360.193 600.965 361.792 579.842 362.479L560.151 363.119L558.678 367.263C557.868 369.542 554.98 377.704 552.261 385.403C543.803 409.346 534.479 429.873 523.811 448.039C511.921 468.288 511.908 468.42 522.19 467.045C529.887 466.015 539.698 466.536 540.618 468.023C540.913 468.502 540.342 468.93 539.348 468.975C538.354 469.02 536.334 469.256 534.863 469.497C533.391 469.739 531.903 469.46 531.554 468.916C531.207 468.353 530.247 467.89 529.422 467.89C528.597 467.89 528.2 468.342 528.539 468.892C528.934 469.529 525.931 469.892 520.239 469.892H511.32L495.869 490.639C487.37 502.05 477.213 515.885 473.296 521.384C463.966 534.483 461.389 537.543 460.461 536.623C460.04 536.205 460.847 534.63 462.256 533.124C463.665 531.617 469.441 522.96 475.09 513.886C480.74 504.812 486.649 495.589 488.222 493.389C489.795 491.189 494.338 484.888 498.316 479.389C513.191 458.827 526.02 435.055 523.255 433.177C521.706 432.125 521.755 432.007 523.764 431.954C528.199 431.836 533.066 418.894 529.92 415.585C518.409 403.477 483.045 345.141 483.045 338.261C483.044 337.343 482.317 336.905 481.498 336.943C481.438 336.945 481.346 336.985 481.256 337.024C481.096 337.093 480.939 337.161 480.975 337.011C481.836 336.655 482.518 336.241 483.225 335.812C484.555 335.006 485.975 334.145 488.838 333.507L489.557 335.44Z" fill="#1B1B1F"/>
<path d="M692.081 638.863C691.564 638.863 690.861 639.312 690.521 639.862C690.181 640.412 690.605 640.863 691.462 640.863C692.319 640.863 693.02 640.412 693.02 639.862C693.02 639.312 692.599 638.863 692.081 638.863ZM669.953 646.151C668.755 646.223 667.021 647.137 667.021 647.969C667.021 649.109 668.126 649.083 669.996 647.901C670.805 647.389 671.206 646.711 670.888 646.394C670.691 646.197 670.352 646.113 669.953 646.151ZM651.025 649.862C649.925 649.862 649.024 650.271 649.024 650.77C649.024 651.27 649.925 651.44 651.025 651.152C652.125 650.865 653.025 650.458 653.025 650.246C653.025 650.035 652.125 649.862 651.025 649.862ZM642.837 652.18C642.039 652.501 642.28 652.734 643.444 652.783C644.5 652.828 645.089 652.594 644.756 652.26C644.424 651.927 643.559 651.893 642.837 652.18ZM663.307 654.861C659.503 654.861 657.025 655.736 657.025 657.079C657.025 658.261 664.03 657.189 665.475 655.784C666.061 655.216 665.231 654.861 663.307 654.861ZM653.992 657.155C653.491 657.095 652.516 657.155 651.084 657.322C648.638 657.616 646.202 658.293 645.671 658.824C644.484 660.011 651.83 659.013 654.031 657.687C654.508 657.396 654.489 657.22 653.992 657.155ZM639.777 659.876C638.265 659.876 637.025 660.31 637.025 660.86C637.025 662.125 639.07 662.125 641.027 660.86C642.195 660.107 641.919 659.876 639.777 659.876ZM649.846 663.063C649.705 662.931 649.125 663.014 648.026 663.237C646.651 663.516 643.839 664.015 641.776 664.348C639.714 664.68 638.027 665.325 638.027 665.783C638.027 667.127 647.384 665.745 649.024 664.178C649.684 663.541 649.984 663.196 649.846 663.063ZM691.122 672.265C689.756 672.174 687.987 672.994 688.529 673.87C688.801 674.308 689.953 674.43 691.089 674.131C692.311 673.813 692.787 673.223 692.255 672.692C691.99 672.427 691.577 672.302 691.122 672.265ZM719.685 672.344C718.678 672.627 716.09 672.858 713.936 672.858C711.781 672.858 710.018 673.308 710.018 673.857C710.018 675.325 715.057 674.995 718.517 673.299C720.167 672.491 720.692 672.061 719.685 672.344ZM685.109 672.908C684.099 672.753 683.058 672.995 682.606 673.725C682.311 674.201 680.922 674.37 679.518 674.102C678.114 673.834 675.067 674.105 672.745 674.706C670.424 675.306 660.424 676.323 650.525 676.963C625.908 678.556 625.004 678.642 621.029 679.78C618.187 680.596 619.032 680.697 625.528 680.342C629.928 680.1 638.252 679.644 644.026 679.33C658.976 678.516 667.527 677.882 675.333 677.007C679.078 676.588 682.365 676.607 682.641 677.052C683.47 678.394 682.058 679.809 680.49 679.208C679.683 678.898 679.02 679.144 679.02 679.753C679.02 680.361 677.728 680.86 676.147 680.86C671.712 680.86 666.997 682.008 667.578 682.948C668.118 683.822 671.95 683.364 678.022 681.7C679.947 681.172 682.871 680.502 684.521 680.204C686.171 679.909 687.776 679.252 688.089 678.749C688.401 678.245 692.676 677.349 697.588 676.759C708.219 675.481 711.967 673.344 702.019 674.232C698.445 674.55 693.839 675.095 691.782 675.443C688.872 675.935 687.906 675.722 687.425 674.47C687.099 673.619 686.119 673.063 685.109 672.908ZM714.356 677.248C710.694 677.365 706.085 677.73 703.017 678.261C701.642 678.499 699.17 678.783 697.52 678.892L694.52 679.096L697.52 679.856C699.17 680.272 701.194 680.416 702.019 680.17C702.844 679.924 706.894 679.482 711.018 679.191C715.143 678.9 719.192 678.235 720.017 677.711C720.732 677.246 718.017 677.131 714.356 677.248ZM727.243 678.411C727.378 681.106 723.643 681.428 711.768 682.44C703.893 683.111 700.921 684.889 707.769 684.832C711.239 684.795 724.211 683.334 726.944 682.659C727.571 682.504 728.692 684.069 729.473 686.127C728.423 683.254 727.454 681.152 727.243 678.411ZM693.725 680.212C693.544 680.144 693.294 680.174 693.018 680.355C692.468 680.696 692.018 681.425 692.018 681.975C692.018 682.526 692.468 682.696 693.018 682.356C693.568 682.016 694.018 681.288 694.018 680.738C694.018 680.462 693.907 680.28 693.725 680.212ZM665.836 686.174C665.038 686.496 665.277 686.73 666.441 686.78C667.495 686.821 668.084 686.583 667.752 686.252C667.42 685.92 666.558 685.887 665.836 686.174ZM671.328 689.969C670.83 689.969 669.897 690.263 668.521 690.855C666.594 691.683 666.601 691.716 668.713 691.784C669.918 691.822 671.181 691.405 671.521 690.855C671.887 690.263 671.825 689.969 671.328 689.969ZM730.963 692.439C730.929 693.284 730.665 693.861 730.17 693.861C729.705 693.861 728.281 694.766 727.009 695.87L724.694 697.878L727.856 697.245C729.735 696.867 730.97 697.026 731.013 697.624C730.849 695.976 730.933 694.252 730.963 692.439ZM717.017 694.456C716.468 694.509 714.893 694.623 713.518 694.706C712.143 694.789 711.018 695.318 711.018 695.883C711.018 697.157 717.423 696.603 717.767 695.299C717.905 694.781 717.568 694.4 717.017 694.456ZM731.013 697.659C730.974 698.224 728.63 698.938 725.766 699.301C714.602 700.718 713.425 702.751 724.266 702.084C729.149 701.854 731.055 702.046 730.104 702.711C728.993 703.472 729.206 703.751 731.104 704.02C732.251 704.182 733.081 704.672 733.603 705.31C731.931 702.364 731.255 700.039 731.013 697.659ZM711.829 698.172C711.031 698.494 711.271 698.729 712.436 698.778C713.491 698.819 714.081 698.582 713.748 698.251C713.416 697.918 712.55 697.885 711.829 698.172ZM697.289 699.162C696.316 699.416 696.87 699.623 698.52 699.661C700.168 699.698 700.966 699.472 700.289 699.2C699.612 698.928 698.262 698.909 697.289 699.162ZM713.078 701.854C711.946 701.854 711.018 702.304 711.018 702.854C711.018 703.404 711.667 703.853 712.459 703.853C713.252 703.853 714.178 703.404 714.518 702.854C714.858 702.304 714.211 701.854 713.078 701.854ZM730.324 710.655C724.044 710.542 722.017 710.814 722.017 711.755C722.017 712.247 723.929 712.547 726.266 712.423C732.893 712.064 735.922 715.434 735.922 716.934C735.922 717.934 738.342 721.907 735.015 723.005C732.897 723.704 733.011 723.76 735.765 723.368C736.422 723.248 737.922 723.248 738.642 723.748C736.759 720.933 735.983 714.334 734.213 706.578C734.213 707.501 734.213 710.655 730.324 710.655ZM705.96 706.853C704.278 706.853 703.142 707.244 703.437 707.72C703.935 708.525 709.016 708.086 709.016 707.238C709.016 707.026 707.642 706.853 705.96 706.853ZM722.402 707.964C719.004 708.119 711.378 709.219 710.059 709.937C707.831 711.148 695.078 713.889 684.25 715.487C681.9 715.834 679.718 716.537 679.401 717.049C679.065 717.593 680.222 717.747 682.174 717.427C684.016 717.12 689.277 716.39 693.866 715.802C698.455 715.213 703.318 714.309 704.677 713.792C706.036 713.276 707.965 712.853 708.962 712.853C709.959 712.853 712.517 712.099 714.646 711.175C716.776 710.252 719.634 709.321 720.999 709.11C722.364 708.898 723.716 708.478 723.999 708.176C724.197 707.968 723.534 707.911 722.402 707.964ZM719.824 711.329C719.516 711.019 718.956 711.574 718.582 712.561C718.039 713.986 718.155 714.102 719.142 713.122C719.825 712.444 720.134 711.639 719.824 711.329ZM714.246 712.914C713.739 712.914 712.985 713.228 712.016 713.854C710.803 714.636 710.949 714.84 712.768 714.84C714.006 714.84 715.016 714.404 715.016 713.854C715.016 713.229 714.754 712.914 714.246 712.914ZM729.616 718.869C725.274 719.314 719.017 720.985 719.017 722.045C719.017 722.565 719.804 722.758 720.767 722.474C721.729 722.191 724.317 721.686 726.516 721.349C728.716 721.013 731.639 720.473 733.014 720.152L735.515 719.566L733.014 718.9C732.295 718.704 731.063 718.715 729.616 718.863V718.869ZM728.969 723.28C728.348 723.28 727.701 723.488 727.003 723.862C725.022 724.921 725.109 726.852 727.135 726.852C727.686 726.852 727.856 726.402 727.516 725.852C727.162 725.279 728.095 724.861 729.707 724.824C732.085 724.786 732.249 724.638 730.779 723.781C730.185 723.437 729.59 723.28 728.969 723.28ZM736.765 726.128L734.515 726.585L736.765 726.721C738.012 726.796 738.642 727.238 738.642 728.05C738.642 728.583 737.985 729.656 734.015 729.227C731.093 728.914 729.016 729.109 729.016 729.673C729.016 730.874 733.748 732.139 735.105 731.3C736.422 730.747 740.107 733.602 740.352 733.747C739.546 731.839 738.922 730.432 739.112 724.77C738.922 725.248 738.098 725.871 736.765 726.128ZM732.457 725.852C731.599 725.852 731.176 726.303 731.516 726.852C731.856 727.402 732.557 727.852 733.074 727.852C733.592 727.852 734.015 727.402 734.015 726.852C734.015 726.303 733.314 725.852 732.457 725.852ZM700.018 729.852C699.468 729.852 699.02 730.302 699.02 730.851C699.02 731.402 699.468 731.852 700.018 731.852C700.567 731.852 701.019 731.402 701.019 730.851C701.019 730.302 700.567 729.852 700.018 729.852ZM715.328 729.965C708.151 729.897 702.882 730.26 702.519 730.85C701.763 732.074 717.674 732.119 723.517 730.91C726.54 730.284 724.543 730.052 715.328 729.965ZM694.833 731.17C694.035 731.491 694.273 731.726 695.438 731.775C696.493 731.821 697.083 731.583 696.75 731.25C696.418 730.918 695.554 730.883 694.833 731.17ZM729.016 735.851C727.916 735.851 727.014 736.206 727.014 736.638C727.014 737.072 727.916 737.423 729.016 737.423C730.116 737.423 731.016 737.072 731.016 736.638C731.016 736.206 730.116 735.851 729.016 735.851ZM711.018 736.849C709.918 736.849 709.016 737.299 709.016 737.849C709.016 738.399 709.918 738.849 711.018 738.849C712.118 738.849 713.018 738.399 713.018 737.849C713.018 737.299 712.118 736.849 711.018 736.849ZM711.829 745.166C711.031 745.487 711.271 745.722 712.436 745.771C713.491 745.813 714.081 745.579 713.748 745.247C713.416 744.914 712.55 744.879 711.829 745.166ZM697.27 752.16C696.307 752.413 697.095 752.616 699.02 752.616C700.943 752.616 701.732 752.409 700.769 752.16C699.807 751.906 698.232 751.906 697.27 752.16ZM701.588 754.165C701.197 753.867 700.451 753.851 699.494 754.218C698.612 754.558 698.166 755.287 698.51 755.841C699.32 757.153 700.724 757.126 701.554 755.785C702.019 755.04 701.985 754.462 701.593 754.167L701.588 754.165ZM661.3 755.899C660.822 755.899 660 756.213 659.02 756.847C657.73 757.682 657.757 757.833 659.214 757.833C660.144 757.833 661.182 757.396 661.522 756.847C661.915 756.215 661.782 755.899 661.304 755.899H661.3ZM683.844 758.348C683.028 758.503 682.133 758.809 681.354 759.231L678.518 760.766L681.018 760.728C682.393 760.728 684.418 760.327 685.517 759.875C687.289 759.147 687.332 758.975 685.855 758.371C685.397 758.178 684.661 758.178 683.846 758.333L683.844 758.348ZM709.089 767.595C707.939 767.705 707.019 768.017 707.019 768.462C707.019 768.674 708.706 768.813 710.768 768.775C713.624 768.723 714.047 768.522 712.536 767.932C711.621 767.558 710.239 767.484 709.089 767.595ZM705.829 770.163C705.031 770.484 705.272 770.719 706.437 770.768C707.492 770.81 708.082 770.575 707.749 770.243C707.417 769.91 706.551 769.876 705.829 770.163ZM684.144 776.562C683.214 776.562 681.861 776.842 679.737 777.387C676.869 778.119 673.398 778.751 672.023 778.789C666.103 778.955 658.054 780.082 658.433 780.695C658.821 781.321 676.34 781.182 705.386 780.324C716.683 779.988 720.408 779.512 718.935 778.581C718.706 778.437 712.891 778.543 706.017 778.853C696.596 779.257 693.248 779.076 692.411 778.116C690.935 776.426 689.672 776.496 690.339 778.234C691 779.955 687.607 779.256 686.019 777.343C685.584 776.817 685.075 776.562 684.144 776.562ZM693.831 777.16C693.033 777.481 693.273 777.716 694.438 777.765C695.493 777.811 696.083 777.573 695.75 777.24C695.418 776.908 694.552 776.873 693.831 777.16ZM710.518 787.848C709.628 787.848 709.178 788.298 709.518 788.848C709.858 789.398 710.307 789.848 710.518 789.848C710.728 789.848 711.178 789.398 711.518 788.848C711.858 788.298 711.408 787.848 710.518 787.848ZM702.937 788.862C699.076 788.862 697.95 789.156 699.02 789.846C700.328 790.691 706.78 790.234 707.936 789.215C708.165 789.015 705.916 788.862 702.937 788.862ZM656.202 789.893C657.281 791.916 658.755 793.743 658.932 795.839C659.194 795.18 661.984 795.116 671.001 795.21C684.267 795.346 687.932 794.333 684.918 791.355C684.23 790.676 683.585 790.896 682.943 792.033C682.026 793.658 660.519 793.523 657.932 791.924C657.432 791.615 656.932 791.239 656.202 789.893ZM689.021 789.848C688.471 789.848 688.019 790.298 688.019 790.848C688.019 791.397 688.471 791.848 689.021 791.848C689.571 791.848 690.021 791.397 690.021 790.848C690.021 790.298 689.571 789.848 689.021 789.848Z" fill="#1B1B1F"/>
<path fill-rule="evenodd" clip-rule="evenodd" d="M493.932 597.417C494.381 597.44 494.857 597.742 495.463 598.186C497.212 599.464 497.214 599.942 495.503 611.438C494.229 619.995 493.506 633.531 492.948 659.357C492.52 679.155 491.662 698.502 491.042 702.351C490.422 706.201 489.608 713.85 489.23 719.349L488.542 729.348L488.54 729.347C488.451 731.434 488.451 733.431 488.54 735.349L488.542 735.35C489.08 741.84 489.044 748.286 489.044 754.796C489.044 765.835 488.889 766.042 481.545 764.703C471.086 762.796 471.614 763.471 470.455 750.498L469.754 742.65C469.58 740.751 469.686 738.788 470.162 736.94C470.32 736.278 470.693 735.604 471.296 735C472.045 734.252 472.343 733.336 472.565 732.402C472.97 729.518 473.888 728.46 474.693 725.434C476.387 717.853 476.069 709.07 470.373 703.096C469.666 702.354 469.397 700.451 469.722 698.452C471.701 685.349 469.6 689.28 472.017 669.355C475.189 643.204 477.858 632.996 487.949 608.42C491.495 599.783 492.586 597.349 493.932 597.417Z" fill="#DFDFD6"/>
<path d="M542.509 598.274C544.395 597.665 545.438 599.687 548.264 606.615C559.778 634.846 565.041 670.443 563.666 710.783C562.976 731.044 562.712 731.584 555.171 728.31C553.321 727.506 550.588 726.849 549.098 726.849C544.021 726.849 542.038 723.296 542.038 714.191C542.038 708.77 541.51 705.1 540.409 702.894C538.957 699.982 538.854 695.969 539.466 665.994C539.907 644.431 539.758 626.815 539.052 616.903L537.951 601.442L540.243 599.677C541.157 598.973 541.88 598.478 542.509 598.274Z" fill="#DFDFD6"/>
<path d="M526.141 559.871C532.882 559.871 533.412 560.043 536.64 563.271L540.038 566.669V578.119C540.038 591.804 537.236 596.987 526.54 603.078C525.989 603.391 522.259 602.008 518.25 600.007C503.222 592.503 502.754 591.456 504.892 570.134C505.807 561.003 506.548 560.191 512.465 561.848C517.905 563.371 518.361 564.791 517.867 578.588C517.688 583.589 517.878 587.472 518.291 587.217C518.704 586.961 519.041 580.701 519.041 573.309V559.871H526.141Z" fill="#DFDFD6"/>
<path d="M425.642 545.033C425.784 544.846 428.521 545.861 431.725 547.287C437.638 549.92 454.202 554.833 470.547 558.804C475.496 560.007 483.12 561.865 487.486 562.931C491.852 563.999 496.464 564.87 497.735 564.87C499.952 564.87 500.043 565.187 500.043 572.714C500.043 584.238 498.145 585.316 483.045 582.379C462.819 578.444 425.153 568.155 422.744 565.907C422.089 565.287 424.735 546.23 425.642 545.033Z" fill="#DFDFD6"/>
<path d="M570.378 552.415C572.535 551.491 573.942 550.985 574.841 551.189C576.34 551.528 576.423 553.834 576.2 559.451C575.868 567.846 575.298 568.975 570.535 570.684C568.884 571.276 563.26 573.354 558.036 575.301C545.579 579.944 545.424 579.93 544.557 574.119C544.167 571.507 543.217 567.861 542.448 566.015C540.737 561.908 541.083 561.272 545.465 560.449C549.642 559.666 565.064 554.693 570.378 552.415Z" fill="#DFDFD6"/>
<path fill-rule="evenodd" clip-rule="evenodd" d="M470.164 736.931C469.454 738.931 469.454 740.931 469.754 742.651C472.954 741.931 478.953 743.43 483.953 743.93C488.952 744.43 489.032 747.93 489.032 747.93C489.032 747.93 489.452 744.93 488.842 739.931C488.892 743.43 485.286 742.93 483.953 742.73C481.953 742.431 478.315 741.475 475.454 740.931C472.304 740.332 469.629 739.943 470.164 736.931Z" fill="#1B1B1F"/>
<path d="M472.534 732.552C472.944 729.432 473.934 728.432 474.774 725.053C473.934 729.432 479.953 728.432 488.542 729.342C488.452 731.432 488.452 733.432 488.542 735.351C487.952 735.431 489.952 735.931 478.953 734.431C467.954 732.932 479.63 733.155 482.953 733.432C488.952 733.932 488.952 732.132 483.952 731.932C475.454 731.632 472.944 731.432 472.534 732.552Z" fill="#1B1B1F"/>
</svg>
