<svg width="870" height="870" viewBox="0 0 870 870" fill="none" xmlns="http://www.w3.org/2000/svg">
<path d="M518.241 502.128C514.613 501.833 511.323 502.892 506.091 505.118C501.416 507.108 494.004 510.079 489.618 511.724C485.232 513.369 481.513 514.846 481.355 515.005C481.196 515.164 482.214 517.889 483.616 521.06C488.688 532.529 495.487 558.099 497.718 574.101C499.605 587.639 499.187 587.245 508.728 584.544C513.053 583.32 517.838 582.166 519.358 581.978C520.879 581.789 523.467 580.942 525.108 580.093C526.75 579.245 528.093 578.739 528.093 578.97C528.093 579.201 529.968 578.967 532.259 578.452C535.399 577.747 536.629 577.834 537.259 578.812C537.793 579.638 538.363 579.742 538.843 579.102C539.891 577.705 554.731 577.21 555.556 578.544C555.922 579.135 555.412 579.64 554.403 579.687C548.344 579.966 540.04 581.709 540.583 582.587C540.855 583.03 538.496 583.884 535.337 584.485C529.862 585.528 522.318 587.264 513.593 589.487C511.393 590.048 507.443 590.782 504.812 591.12C500.082 591.728 500.031 591.77 500.568 594.919C501.57 600.8 503.09 620.039 503.091 626.852V633.602L507.843 633.64C510.455 633.64 513.716 634.318 515.091 635.103C516.466 635.889 519.254 636.548 521.284 636.568C523.314 636.568 525.245 637.042 525.575 637.576C525.904 638.111 528.417 638.843 531.157 639.207C533.897 639.57 536.38 640.258 536.675 640.736C536.97 641.213 538.108 641.603 539.204 641.603C551.663 641.603 575.091 661.758 575.091 672.474C575.091 673.426 575.45 674.632 575.888 675.154C576.325 675.677 577.503 678.803 578.505 682.103C579.507 685.404 580.684 689.003 581.124 690.103C581.563 691.203 582.691 694.578 583.632 697.603C584.573 700.628 585.964 704.298 586.72 705.758C587.476 707.217 588.093 709.046 588.093 709.82C588.093 711.521 591.753 719.276 592.886 719.976C595.474 721.576 617.098 721.416 618.015 719.791C618.657 718.654 619.301 718.433 619.989 719.113C623.003 722.091 619.338 723.105 606.071 722.969C593.78 722.841 593.085 722.931 594.542 724.549C595.395 725.491 596.091 727.224 596.091 728.398C596.091 733.47 601.605 740.981 610.089 747.467C618.478 753.88 622.655 777.142 617.593 789.258C614.89 795.727 616.262 802.046 621.032 805.104C621.893 805.655 634.021 806.395 648.093 806.752C675.97 807.46 689.499 808.61 691.317 810.428C693.482 812.592 736.04 811.985 738.948 809.748C744.461 805.508 739.417 801.891 722.091 797.657C718.054 796.67 712.373 794.726 709.857 793.471C708.902 792.995 707.456 792.604 706.642 792.604C704.823 792.604 697.719 789.385 697.261 788.354C697.079 787.941 696.451 787.603 695.868 787.603C695.286 787.603 691.959 785.804 688.476 783.604C684.992 781.404 681.901 779.603 681.607 779.603C680.818 779.603 668.922 771.448 666.593 769.309C665.493 768.299 663.209 766.612 661.517 765.563C650.446 758.696 650.371 734.749 661.421 734.569C662.616 734.531 664.718 733.89 666.093 733.103C667.468 732.317 670.254 731.661 672.284 731.641C674.315 731.641 676.253 731.154 676.593 730.604C676.933 730.054 677.973 729.601 678.903 729.598C679.833 729.595 681.883 728.919 683.458 728.098C685.034 727.276 686.94 726.604 687.695 726.604C691.687 726.604 698.571 719.636 696.093 718.104C695.543 717.764 695.09 716.725 695.087 715.795C695.084 714.865 694.409 712.816 693.587 711.241C692.765 709.665 692.093 707.765 692.093 707.018C692.093 706.27 691.012 703.284 689.691 700.381C688.37 697.479 687.058 694.204 686.776 693.104C685.749 689.09 681.659 678.312 680.046 675.367C679.523 674.412 679.093 673.031 679.093 672.297C679.093 671.563 678.234 669.197 677.185 667.039C676.135 664.882 675.476 662.796 675.718 662.405C676.363 661.361 671.355 658.325 670.183 659.049C668.826 659.888 664.093 658.623 664.093 657.422C664.093 656.857 666.171 656.679 669.093 656.994C673.063 657.423 674.093 657.232 674.093 656.068C674.093 655.256 673.09 654.545 671.843 654.469L669.593 654.333L671.843 653.899C675.583 653.179 674.648 650.576 670.843 651.116C668.089 651.507 667.974 651.453 670.093 650.753C671.538 650.276 672.433 649.333 672.212 648.517C672 647.741 671.54 645.784 671.185 644.169C670.447 640.816 667.97 639.811 661.343 640.169C659.006 640.294 657.093 639.996 657.093 639.502C657.093 638.559 659.121 638.289 665.401 638.402C670.164 638.489 670.875 632.428 666.181 631.765C664.283 631.497 664.07 631.218 665.181 630.456C666.132 629.804 664.227 629.6 659.343 629.829C648.676 630.331 649.677 628.502 660.843 627.085C663.73 626.719 666.093 625.955 666.093 625.388C666.093 624.764 664.846 624.607 662.933 624.99L659.771 625.623L662.085 623.614C663.358 622.51 664.781 621.605 665.247 621.605C666.496 621.605 666.255 618.64 664.638 614.107C663.853 611.907 662.676 610.24 662.021 610.402C659.287 611.077 646.313 612.547 642.843 612.576C635.994 612.632 638.967 610.854 646.843 610.183C664.371 608.689 664.18 608.832 659.96 600.371C659.483 599.415 659.093 598.045 659.093 597.324C659.093 591.588 648.67 577.307 641.353 573.019C639.01 571.646 637.093 570.189 637.093 569.78C637.093 569.372 635.63 568.175 633.843 567.122C632.055 566.068 629.793 564.465 628.814 563.556C627.834 562.647 624.608 560.713 621.644 559.261C618.679 557.81 615.654 556.058 614.923 555.366C614.192 554.674 611.394 553.032 608.704 551.718C606.015 550.403 603.066 548.602 602.153 547.716C601.241 546.831 597.049 544.408 592.837 542.331C588.625 540.255 584.902 538.104 584.564 537.556C584.223 537.009 581.365 535.259 578.21 533.666C575.055 532.073 571.851 530.021 571.091 529.105C569.659 527.38 564.629 527.554 557.593 529.575C552.117 531.149 547.093 531.717 547.093 530.761C547.093 530.245 548.33 529.533 549.843 529.177C565.672 525.453 574.335 519.605 564.025 519.605C563.021 519.605 560.083 518.482 557.497 517.107C554.911 515.732 552.186 514.605 551.441 514.605C550.695 514.605 547.752 513.482 544.902 512.107C542.051 510.732 539.17 509.607 538.499 509.607C537.828 509.607 535.1 508.552 532.437 507.265C525.84 504.076 521.87 502.429 518.241 502.134L518.241 502.128Z" fill="#DFDFD6"/>
<path d="M439.79 529.18C438.441 529.486 438.177 530.776 437.788 533.324C437.471 535.4 436.727 539.795 436.136 543.095C434.86 550.222 431.492 587.821 430.515 605.846L429.823 618.598H434.9C437.692 618.598 440.253 619.047 440.593 619.598C440.933 620.147 441.904 620.598 442.751 620.598C444.239 620.598 446.71 621.532 454.093 624.883C456.114 625.8 460.447 626.498 464.345 626.535L471.093 626.596V611.763C471.093 595.213 471.093 595.159 466.718 596.978C465 597.695 461.12 598.86 458.095 599.568C455.07 600.277 452.145 601.17 451.595 601.552C451.045 601.933 448.634 602.806 446.24 603.492C443.845 604.177 441.145 605.016 440.239 605.355C438.812 605.889 438.771 605.748 439.958 604.291C440.71 603.367 444.538 601.66 448.462 600.497C452.386 599.335 458.745 597.364 462.595 596.119L469.597 593.857L469.558 577.476C469.486 546.063 467.511 536.338 460.83 534.507C458.501 533.869 452.869 532.26 448.316 530.931C443.577 529.548 441.14 528.869 439.791 529.175L439.79 529.18Z" fill="#DFDFD6"/>
<path d="M627.153 566.604C626.636 566.604 625.933 567.053 625.593 567.603C625.253 568.153 625.677 568.603 626.534 568.603C627.392 568.603 628.093 568.153 628.093 567.603C628.093 567.053 627.671 566.604 627.153 566.604ZM605.022 573.892C603.825 573.964 602.091 574.879 602.091 575.711C602.091 576.851 603.195 576.825 605.066 575.643C605.875 575.131 606.276 574.453 605.958 574.135C605.761 573.939 605.422 573.855 605.022 573.892ZM586.093 577.604C584.993 577.604 584.091 578.013 584.091 578.512C584.091 579.012 584.993 579.182 586.093 578.895C587.193 578.607 588.093 578.2 588.093 577.988C588.093 577.777 587.193 577.604 586.093 577.604ZM577.903 579.922C577.106 580.243 577.346 580.476 578.511 580.525C579.566 580.57 580.156 580.336 579.823 580.002C579.491 579.669 578.625 579.635 577.903 579.922ZM598.376 582.604C594.571 582.604 592.093 583.479 592.093 584.822C592.093 586.004 599.099 584.932 600.544 583.527C601.13 582.958 600.3 582.604 598.376 582.604ZM589.06 584.898C588.559 584.838 587.584 584.898 586.151 585.064C583.705 585.359 581.268 586.036 580.737 586.567C579.55 587.754 586.898 586.756 589.099 585.43C589.576 585.139 589.556 584.963 589.06 584.898ZM574.843 587.619C573.331 587.619 572.091 588.054 572.091 588.604C572.091 589.868 574.136 589.868 576.093 588.604C577.261 587.85 576.986 587.619 574.843 587.619ZM584.913 590.807C584.773 590.674 584.193 590.758 583.093 590.981C581.718 591.26 578.905 591.759 576.843 592.092C574.78 592.424 573.093 593.069 573.093 593.527C573.093 594.871 582.451 593.489 584.091 591.922C584.751 591.285 585.051 590.94 584.913 590.807ZM626.194 600.01C624.828 599.919 623.059 600.739 623.601 601.615C623.873 602.054 625.025 602.175 626.161 601.876C627.384 601.558 627.859 600.969 627.327 600.437C627.062 600.172 626.65 600.047 626.194 600.01ZM654.761 600.089C653.753 600.372 651.166 600.603 649.011 600.603C646.856 600.603 645.093 601.053 645.093 601.603C645.093 603.07 650.132 602.74 653.593 601.044C655.243 600.236 655.768 599.805 654.761 600.089ZM620.181 600.653C619.17 600.498 618.129 600.74 617.677 601.47C617.382 601.946 615.993 602.115 614.589 601.848C613.185 601.579 610.137 601.851 607.816 602.451C605.493 603.051 595.493 604.068 585.593 604.709C560.973 606.302 560.069 606.388 556.093 607.526C553.25 608.342 554.096 608.443 560.593 608.088C564.993 607.846 573.318 607.39 579.093 607.076C594.045 606.262 602.596 605.628 610.403 604.752C614.149 604.333 617.436 604.353 617.712 604.798C618.542 606.14 617.129 607.555 615.561 606.954C614.754 606.644 614.091 606.89 614.091 607.499C614.091 608.107 612.799 608.606 611.218 608.606C606.782 608.606 602.067 609.754 602.648 610.694C603.188 611.569 607.02 611.11 613.093 609.446C615.018 608.918 617.943 608.248 619.593 607.95C621.243 607.655 622.847 606.998 623.161 606.495C623.473 605.991 627.749 605.095 632.661 604.504C643.293 603.226 647.042 601.089 637.093 601.977C633.518 602.295 628.911 602.84 626.855 603.188C623.944 603.68 622.978 603.468 622.497 602.215C622.171 601.364 621.191 600.808 620.181 600.653ZM649.431 604.993C645.769 605.11 641.159 605.476 638.091 606.007C636.716 606.245 634.243 606.528 632.593 606.638L629.593 606.842L632.593 607.602C634.243 608.018 636.268 608.162 637.093 607.916C637.918 607.67 641.968 607.228 646.093 606.937C650.218 606.646 654.268 605.981 655.093 605.456C655.808 604.992 653.092 604.876 649.431 604.993ZM662.231 606.157C662.366 608.852 658.72 609.175 646.843 610.186C638.967 610.857 635.994 612.636 642.843 612.579C646.313 612.541 659.287 611.08 662.021 610.405C662.647 610.25 663.739 611.815 664.52 613.874L664.509 613.821C663.581 611.209 662.435 609.961 662.31 606.253L662.231 606.157ZM628.798 607.958C628.616 607.89 628.367 607.92 628.091 608.102C627.541 608.442 627.091 609.171 627.091 609.721C627.091 610.272 627.541 610.442 628.091 610.102C628.641 609.762 629.091 609.034 629.091 608.484C629.091 608.209 628.979 608.026 628.798 607.958ZM600.905 613.921C600.108 614.242 600.346 614.477 601.511 614.527C602.564 614.568 603.154 614.33 602.821 613.999C602.489 613.667 601.627 613.634 600.905 613.921ZM606.398 617.716C605.9 617.716 604.967 618.011 603.591 618.603C601.664 619.43 601.67 619.464 603.783 619.532C604.987 619.57 606.251 619.153 606.591 618.603C606.957 618.011 606.895 617.716 606.398 617.716ZM665.97 620.187C665.936 621.032 665.742 621.609 665.247 621.609C664.781 621.609 663.358 622.514 662.085 623.618L659.77 625.626L662.933 624.993C664.812 624.615 666.018 624.774 666.062 625.372C665.904 623.792 665.933 622.183 666.007 620.345L665.97 620.187ZM652.093 622.204C651.543 622.257 649.968 622.371 648.593 622.454C647.218 622.537 646.093 623.066 646.093 623.631C646.093 624.905 652.499 624.351 652.843 623.048C652.98 622.529 652.643 622.147 652.093 622.204ZM666.067 625.407C666.029 625.973 663.707 626.725 660.843 627.089C649.677 628.505 648.676 630.335 659.343 629.833C664.226 629.603 666.132 629.795 665.181 630.46C664.07 631.221 664.283 631.5 666.181 631.769C667.329 631.931 668.144 632.421 668.665 633.06C666.993 630.113 666.309 627.787 666.067 625.407ZM646.903 625.921C646.106 626.242 646.346 626.477 647.511 626.526C648.566 626.568 649.156 626.33 648.823 625.999C648.491 625.667 647.625 625.634 646.903 625.921ZM632.362 626.911C631.389 627.164 631.943 627.372 633.593 627.409C635.242 627.447 636.039 627.221 635.362 626.948C634.686 626.676 633.335 626.658 632.362 626.911ZM648.153 629.603C647.021 629.603 646.093 630.053 646.093 630.603C646.093 631.153 646.742 631.603 647.534 631.603C648.327 631.603 649.253 631.153 649.593 630.603C649.933 630.053 649.286 629.603 648.153 629.603ZM668.737 633.198C670.188 635.19 668.92 638.469 665.401 638.405C659.121 638.292 657.093 638.564 657.093 639.505C657.093 639.997 659.006 640.298 661.343 640.173C667.97 639.814 670.447 640.819 671.185 644.173C671.54 645.787 672 647.744 672.212 648.521C672.433 649.337 671.538 650.28 670.093 650.757C667.974 651.456 668.089 651.511 670.843 651.12C672.703 650.855 673.848 651.351 674.126 652.001C674.099 651.963 674.074 651.948 674.042 651.804C671.695 649.817 671.06 642.085 669.29 634.328C669.107 634.037 668.903 633.493 668.737 633.198ZM641.034 634.603C639.352 634.603 638.216 634.993 638.511 635.469C639.009 636.275 644.091 635.836 644.091 634.987C644.091 634.776 642.717 634.603 641.034 634.603ZM657.478 635.714C654.08 635.869 646.453 636.969 645.134 637.687C642.905 638.898 630.151 641.639 619.321 643.237C616.971 643.585 614.789 644.288 614.472 644.8C614.136 645.344 615.293 645.498 617.245 645.178C619.087 644.871 624.349 644.141 628.939 643.553C633.528 642.964 638.392 642.06 639.751 641.543C641.11 641.026 643.039 640.604 644.036 640.604C645.033 640.604 647.592 639.849 649.722 638.926C651.851 638.002 654.71 637.071 656.075 636.86C657.44 636.648 658.792 636.228 659.075 635.926C659.273 635.718 658.61 635.661 657.478 635.714ZM654.9 639.079C654.592 638.769 654.032 639.325 653.657 640.311C653.115 641.737 653.23 641.852 654.218 640.872C654.901 640.194 655.209 639.389 654.9 639.079ZM649.321 640.665C648.814 640.665 648.06 640.979 647.091 641.605C645.878 642.387 646.023 642.591 647.843 642.591C649.081 642.591 650.091 642.155 650.091 641.605C650.091 640.979 649.829 640.665 649.321 640.665ZM664.693 646.62C660.35 647.065 654.093 648.736 654.093 649.796C654.093 650.317 654.88 650.509 655.843 650.226C656.805 649.942 659.393 649.437 661.593 649.101C663.793 648.765 666.716 648.225 668.091 647.903L670.593 647.318L668.091 646.652C667.372 646.455 666.14 646.466 664.693 646.614V646.62ZM664.046 651.032C663.425 651.032 662.777 651.24 662.079 651.614C660.099 652.673 660.186 654.605 662.212 654.605C662.762 654.605 662.933 654.154 662.593 653.604C662.238 653.031 663.172 652.613 664.784 652.576C667.162 652.538 667.327 652.39 665.856 651.532C665.262 651.188 664.667 651.032 664.046 651.032ZM674.157 652.081C674.356 652.747 673.675 653.55 671.843 653.903L669.593 654.337L671.843 654.473C673.09 654.549 674.093 655.261 674.093 656.073C674.093 657.236 673.063 657.426 669.093 656.998C666.171 656.685 664.093 656.862 664.093 657.426C664.093 658.627 668.826 659.892 670.183 659.053C671.347 658.334 676.27 661.316 675.706 662.379L675.745 662.145C674.939 660.237 673.687 658.26 674.167 652.522C674.193 652.212 674.184 652.134 674.157 652.081ZM667.534 653.604C666.676 653.604 666.253 654.055 666.593 654.605C666.933 655.155 667.634 655.604 668.151 655.604C668.669 655.604 669.093 655.155 669.093 654.605C669.093 654.055 668.392 653.604 667.534 653.604ZM635.091 657.604C634.541 657.604 634.093 658.054 634.093 658.604C634.093 659.155 634.541 659.605 635.091 659.605C635.641 659.605 636.093 659.155 636.093 658.604C636.093 658.054 635.641 657.604 635.091 657.604ZM650.403 657.718C643.225 657.65 637.956 658.012 637.593 658.602C636.837 659.827 652.749 659.872 658.593 658.663C661.617 658.037 659.62 657.805 650.403 657.718ZM629.905 658.923C629.108 659.244 629.345 659.479 630.511 659.528C631.566 659.574 632.156 659.336 631.823 659.003C631.491 658.671 630.627 658.636 629.905 658.923ZM664.093 663.605C662.993 663.605 662.091 663.96 662.091 664.392C662.091 664.826 662.993 665.177 664.093 665.177C665.193 665.177 666.093 664.825 666.093 664.392C666.093 663.96 665.193 663.605 664.093 663.605ZM646.093 664.603C644.993 664.603 644.091 665.053 644.091 665.603C644.091 666.153 644.993 666.603 646.093 666.603C647.193 666.603 648.093 666.153 648.093 665.603C648.093 665.053 647.193 664.603 646.093 664.603ZM646.903 672.921C646.106 673.242 646.346 673.477 647.511 673.526C648.566 673.568 649.156 673.334 648.823 673.001C648.491 672.669 647.625 672.634 646.903 672.921ZM632.343 679.915C631.38 680.169 632.168 680.372 634.093 680.372C636.017 680.372 636.805 680.164 635.843 679.915C634.88 679.662 633.305 679.662 632.343 679.915ZM636.661 681.921C636.27 681.623 635.525 681.607 634.568 681.974C633.685 682.314 633.239 683.043 633.583 683.597C634.393 684.909 635.798 684.882 636.628 683.541C637.093 682.796 637.058 682.218 636.667 681.923L636.661 681.921ZM596.368 683.656C595.89 683.656 595.068 683.969 594.089 684.603C592.798 685.438 592.825 685.589 594.282 685.589C595.213 685.589 596.251 685.153 596.591 684.603C596.984 683.971 596.85 683.656 596.372 683.656H596.368ZM618.915 686.105C618.1 686.26 617.204 686.565 616.425 686.988L613.589 688.523L616.089 688.485C617.464 688.485 619.489 688.084 620.589 687.632C622.361 686.903 622.403 686.732 620.927 686.128C620.468 685.935 619.733 685.935 618.917 686.09L618.915 686.105ZM644.163 695.353C643.013 695.462 642.093 695.775 642.093 696.22C642.093 696.432 643.78 696.571 645.843 696.533C648.699 696.48 649.122 696.28 647.61 695.69C646.696 695.316 645.314 695.242 644.163 695.353ZM640.903 697.921C640.105 698.242 640.346 698.477 641.511 698.526C642.566 698.568 643.156 698.334 642.823 698.001C642.491 697.668 641.625 697.634 640.903 697.921ZM619.216 704.321C618.285 704.321 616.932 704.601 614.808 705.146C611.94 705.879 608.468 706.51 607.093 706.548C601.172 706.715 593.122 707.841 593.501 708.454C593.889 709.08 611.41 708.942 640.46 708.084C651.758 707.747 655.484 707.271 654.011 706.34C653.782 706.196 647.966 706.302 641.091 706.612C631.669 707.016 628.32 706.835 627.483 705.876C626.007 704.185 624.745 704.255 625.411 705.993C626.072 707.715 622.679 707.016 621.091 705.102C620.656 704.576 620.147 704.321 619.216 704.321ZM628.903 704.919C628.105 705.24 628.346 705.475 629.511 705.524C630.566 705.57 631.156 705.332 630.823 704.999C630.491 704.667 629.625 704.632 628.903 704.919ZM645.593 715.609C644.702 715.609 644.253 716.058 644.593 716.608C644.933 717.159 645.381 717.609 645.593 717.609C645.803 717.609 646.253 717.159 646.593 716.608C646.933 716.058 646.483 715.609 645.593 715.609ZM638.011 716.622C634.15 716.622 633.023 716.917 634.093 717.607C635.402 718.452 641.855 717.995 643.011 716.976C643.24 716.776 640.99 716.622 638.011 716.622ZM591.12 717.037L591.189 717.653C592.267 719.677 593.899 721.475 594.075 723.571C594.338 722.913 597.052 722.877 606.071 722.972C619.338 723.108 623.004 722.094 619.989 719.116C619.301 718.436 618.657 718.657 618.015 719.794C617.098 721.419 595.474 721.579 592.886 719.979C592.531 719.76 591.78 718.236 591.12 717.037ZM624.093 717.609C623.543 717.609 623.091 718.058 623.091 718.608C623.091 719.158 623.543 719.609 624.093 719.609C624.643 719.609 625.093 719.158 625.093 718.608C625.093 718.058 624.643 717.609 624.093 717.609Z" fill="#1B1B1F"/>
<path d="M415.442 59.1882C354.625 63.1625 292.815 83.4316 240.743 116.518C197.317 144.14 159.257 181.002 131.83 222.136C79.8577 300.132 58.4925 395.318 72.0072 487.92C88.4038 599.996 150.711 695.082 248.196 756.685C315.472 799.21 403.219 818.883 485.301 809.841C546.316 803.085 600.276 783.114 651.354 748.239C726.48 696.97 780.738 621.756 805.283 535.115C813.432 506.103 816.91 482.952 817.804 450.66C818.599 425.722 817.506 408.334 813.73 379.917C811.246 362.033 809.357 354.283 810.649 367.696C812.736 388.462 813.134 396.013 813.134 410.917C813.034 432.975 811.842 436.254 810.848 416.879C809.556 390.648 808.463 391.542 808.364 418.866C808.264 443.109 807.469 453.144 803.892 478.58C802.302 489.708 795.942 520.509 794.352 524.683C792.663 528.955 792.464 527.365 793.855 521.304C794.65 518.125 795.743 512.859 796.24 509.679C796.836 506.5 797.93 499.744 798.824 494.875C801.408 479.474 805.184 446.686 805.681 434.266C806.177 421.548 806.078 422.145 802.799 443.705C802.004 449.468 800.811 456.622 800.314 459.603C799.818 462.583 799.023 467.949 798.426 471.526C797.631 477.587 793.458 498.551 793.06 498.949C792.961 499.048 792.762 480.567 792.663 457.814C792.563 428.702 792.166 413.004 791.172 404.956L789.682 393.529L789.582 415.885C789.483 453.641 785.806 482.058 776.067 520.211C774.179 527.564 771.695 535.811 770.602 538.593C768.217 544.157 768.316 543.263 772.49 527.663C780.042 499.346 785.21 467.055 786.104 442.712C786.7 424.728 786.203 420.356 785.011 434.266C784.614 438.638 783.918 445.295 783.421 449.17C782.924 452.946 782.527 456.721 782.427 457.516C782.427 458.311 782.129 458.709 781.831 458.311C781.533 458.013 781.235 450.66 781.235 442.016C781.334 433.372 780.937 421.648 780.539 415.885C779.744 405.452 779.744 405.452 779.645 421.847C779.545 440.228 778.452 451.853 774.875 471.526C764.341 528.955 741.883 581.217 709.09 625.035C655.726 696.076 580.799 740.29 493.748 751.915C474.569 754.499 434.919 754.995 417.23 752.909C367.047 746.947 322.428 731.944 280.095 706.807C237.961 681.868 197.218 640.833 170.685 596.717C138.885 543.66 122.29 475.401 126.464 415.388C129.246 376.34 136.202 344.446 148.922 313.148C172.772 254.129 206.261 209.518 253.364 174.444C297.287 141.556 347.271 121.983 405.802 114.63C422.398 112.544 478.245 112.842 495.735 115.127C540.652 120.989 575.929 132.614 610.114 152.684C621.244 159.242 644.696 174.047 649.068 177.226C653.739 180.704 654.037 179.313 649.466 175.338C636.249 163.713 621.641 153.38 604.748 143.643C599.68 140.761 595.705 138.178 596.003 137.979C596.5 137.483 611.207 144.935 619.952 150.101C623.231 151.989 627.604 154.473 629.591 155.566C637.839 160.037 660.397 174.146 670.235 181.002C682.458 189.546 688.818 194.812 698.755 204.55C702.631 208.325 705.91 211.207 705.91 210.71C705.91 208.325 690.109 188.454 679.377 177.325C672.52 170.271 667.254 164.508 667.651 164.508C668.844 164.508 684.346 177.922 694.879 188.155C700.345 193.521 707.003 200.873 709.785 204.649C712.568 208.425 714.853 211.207 714.853 210.909C714.853 209.518 710.183 201.966 705.115 195.21C702.034 191.037 697.463 185.075 695.078 181.797C684.942 168.284 664.869 147.22 659.701 144.636C658.111 143.842 656.521 142.848 656.223 142.55C655.925 142.152 653.043 140.265 649.764 138.377C643.404 134.601 634.957 127.845 635.752 127.05C636.348 126.454 640.025 128.838 650.758 136.688C662.285 145.233 662.682 145.431 661.291 142.749C658.906 138.377 648.87 131.322 617.964 112.544C577.818 88.2008 524.255 68.7266 476.854 61.2747C461.65 58.9895 434.024 57.9959 415.442 59.1882ZM754.503 575.852C753.311 578.038 752.019 579.528 751.721 579.23C751.025 578.535 754.702 571.878 755.795 571.878C756.292 571.878 755.696 573.666 754.503 575.852Z" fill="#B22222"/>
<path d="M487.487 58.6914C487.686 58.9895 491.462 59.685 495.835 60.1818C504.48 61.3741 528.727 67.0375 536.28 69.6208C544.726 72.5022 542.441 70.515 533.696 67.3356C520.479 62.5664 484.605 55.81 487.487 58.6914Z" fill="#B22222"/>
<path d="M725.784 218.062C725.784 218.658 726.182 219.354 726.778 219.652C727.374 219.95 727.474 219.553 727.176 218.758C726.48 216.969 725.784 216.671 725.784 218.062Z" fill="#B22222"/>
<path d="M708.891 241.312C708.891 243.2 712.767 247.969 712.866 246.181C712.866 245.386 711.972 243.697 710.878 242.306C709.587 240.617 708.891 240.219 708.891 241.312Z" fill="#B22222"/>
<path d="M739.697 253.931C740.79 256.117 741.982 257.905 742.181 257.905C742.479 257.905 741.784 256.117 740.69 253.931C739.597 251.745 738.405 249.956 738.206 249.956C737.908 249.956 738.604 251.745 739.697 253.931Z" fill="#B22222"/>
<path d="M187.421 741.951C187.058 742.314 187.315 742.611 187.995 742.611C188.757 742.611 188.993 743.347 188.616 744.533C188.28 745.593 188.579 746.938 189.302 747.533C190.013 748.127 191.718 749.499 193.093 750.58C195.8 752.709 197.091 753.095 197.091 751.773C197.091 751.311 195.968 750.421 194.593 749.795C193.218 749.168 192.093 747.816 192.093 746.789C192.093 744.7 188.447 740.925 187.421 741.951Z" fill="#DFDFD6"/>
<path d="M353.992 501.913C352.687 502.215 351.025 503.388 347.173 505.851C343.517 508.188 339.815 510.551 338.948 511.101C333.793 514.372 330.67 516.861 322.593 524.132C317.643 528.588 312.103 533.269 310.281 534.532C308.269 535.926 307.181 537.386 307.511 538.247C307.851 539.131 307.121 540.02 305.575 540.607C304.211 541.126 303.093 541.994 303.093 542.532C303.093 543.071 301.968 544.636 300.593 546.011C297.688 548.915 297.328 550.95 299.843 550.242C305.151 548.747 308.307 548.447 307.659 549.495C307.281 550.104 305.989 550.627 304.784 550.657C301.367 550.744 293.783 554.141 293.157 555.864C292.847 556.719 290.681 559.512 288.343 562.073C286.006 564.634 284.095 567.036 284.103 567.413C284.103 568.425 296.649 573.601 299.083 573.601C300.233 573.601 302.935 574.501 305.091 575.601C307.247 576.701 309.679 577.601 310.493 577.601C312.059 577.601 313.636 579.394 312.802 580.227C312.53 580.499 309.445 579.811 305.949 578.7C296.403 575.668 281.727 571.571 280.593 571.621C278.611 571.707 274.009 576.624 274.298 578.343C274.491 579.491 273.954 580.104 272.749 580.108C270.135 580.108 267.188 584.166 266.454 588.753C266.074 591.131 264.909 593.39 263.484 594.511C262.194 595.525 260.681 597.557 260.122 599.027C259.509 600.639 257.704 602.285 255.569 603.177C252.16 604.602 249.669 608.09 247.263 613.911C246.991 614.57 246.69 614.871 246.419 615.601C244.366 621.144 242.35 623.637 240.492 622.925C239.714 622.626 238.067 623.034 236.833 623.833C235.6 624.632 233.468 625.562 232.093 625.9C230.718 626.236 226.551 628.554 222.833 631.048C219.116 633.542 214.56 636.216 212.708 636.989C210.857 637.763 206.883 640.619 203.882 643.337C200.077 646.783 196.965 648.649 193.597 649.497C190.94 650.166 186.926 652.01 184.679 653.595C182.094 655.417 178.204 656.906 174.093 657.65C165.798 659.148 156.541 662.391 152.204 665.316C150.34 666.573 148.195 667.601 147.437 667.601C144.679 667.601 126.021 677.7 123.452 680.583C120.698 683.674 110.301 689.601 107.634 689.601C106.787 689.601 106.093 690.003 106.093 690.493C106.093 690.984 104.968 691.668 103.593 692.013C99.8229 692.959 100.486 694.387 108.71 703.06C112.862 707.438 116.929 712.389 117.745 714.061C119.354 717.353 116.246 714.39 103.843 700.792L98.095 694.485L94.843 696.294C93.0553 697.288 91.4203 698.199 91.2082 698.32C90.5468 698.694 93.7394 702.899 98.513 707.937C101.032 710.596 103.087 713.295 103.079 713.936C103.079 714.577 100.014 711.836 96.2864 707.849C92.5587 703.861 88.8537 700.608 88.052 700.616C72.8678 700.771 66.1221 714.563 75.6477 725.975C79.2522 730.293 81.9821 734.048 81.7141 734.316C80.858 735.172 79.147 733.587 75.1925 728.279C69.9654 721.262 67.5436 718.6 66.3859 718.6C62.8842 718.6 42.3684 741.878 37.593 751.268C34.843 756.677 32.2553 761.251 31.843 761.435C31.4306 761.616 31.093 762.339 31.093 763.036C31.093 763.733 29.968 766.419 28.593 769.005C27.218 771.591 26.0911 774.385 26.0911 775.212C26.0911 776.04 24.968 778.731 23.593 781.194C20.9927 785.852 20.086 794.86 22.093 796.101C22.6429 796.441 23.091 797.749 23.091 799.007C23.091 802.161 25.6377 804.805 32.0969 808.368L37.593 811.403L58.2219 811.501C83.8369 811.626 85.9323 809.972 74.8488 798.406C66.6518 789.851 66.1499 773.081 73.929 767.638C74.3523 767.344 76.0087 765.299 77.6086 763.099C81.5076 757.739 83.2081 756.11 86.8879 754.207C92.542 751.283 93.9182 751.946 105.343 763.104C111.255 768.877 116.544 773.6 117.099 773.6C117.654 773.6 120.006 774.973 122.322 776.65C127.061 780.084 134.497 783.599 137.019 783.599C137.939 783.599 139.195 784.101 139.808 784.714C141.074 785.98 150.052 786.362 151.886 785.228C154.355 783.702 153.234 779.724 149.843 777.977C145.494 775.736 135.029 768.332 135.519 767.842C136.15 767.211 141.195 770.14 147.025 774.52C154.011 779.769 155.081 779.674 161.411 773.242C164.312 770.295 168.463 766.673 170.638 765.193C172.813 763.713 177.068 760.738 180.093 758.582C183.118 756.426 186.552 754.648 187.722 754.631C193.164 754.552 191.218 748.83 184.88 746.271C183.88 745.868 183.925 745.507 185.091 744.648C186.365 743.71 186.104 743.121 183.343 740.748C179.769 737.676 179.313 736.599 181.591 736.599C182.416 736.599 183.091 737.087 183.091 737.684C183.091 738.279 183.64 738.584 184.31 738.361C184.979 738.138 186.948 738.887 188.685 740.027C190.422 741.167 192.687 742.64 193.718 743.299C195.195 744.243 195.316 744.687 194.284 745.394C193.277 746.085 193.537 746.662 195.415 747.893C198.605 749.982 202.091 749.718 202.091 747.387C202.091 746.403 201.547 745.712 200.882 745.849C200.217 745.985 199.603 745.087 199.519 743.849C199.334 741.147 199.481 741.127 203.208 743.328C204.816 744.278 205.912 745.628 205.644 746.328C205.009 747.981 206.235 747.948 208.558 746.248C210.299 744.975 210.221 744.788 207.247 743.032C205.511 742.006 204.093 740.815 204.093 740.383C204.093 739.065 205.328 739.49 209.103 742.106L212.716 744.612L220.654 740.516C225.019 738.264 230.024 735.337 231.775 734.011C233.525 732.684 235.256 731.599 235.62 731.599C235.983 731.599 237.477 730.751 238.937 729.715C240.397 728.679 244.741 726.15 248.591 724.096C252.441 722.042 256.52 719.516 257.656 718.481C258.791 717.446 260.185 716.598 260.753 716.598C261.321 716.598 262.867 715.638 264.189 714.463C265.51 713.289 268.953 711.233 271.841 709.891C274.729 708.55 277.091 707.11 277.091 706.694C277.091 706.277 278.317 705.299 279.814 704.518C281.31 703.738 285.023 701.392 288.064 699.307C291.105 697.222 295.225 694.437 297.222 693.12C299.219 691.802 302.098 689.572 303.618 688.163C305.139 686.754 306.741 685.598 307.177 685.598C307.613 685.598 310.049 683.798 312.591 681.598C315.133 679.399 317.522 677.591 317.901 677.581C318.281 677.581 320.391 675.99 322.591 674.069C324.791 672.149 327.405 670.318 328.398 670.003C332.003 668.856 329.283 667.135 322.019 665.965C305.759 663.346 305.944 662.79 322.943 663.186C336.772 663.508 339.209 663.349 338.747 662.145C338.434 661.328 338.925 660.535 339.898 660.278C340.999 659.987 340.715 659.78 339.091 659.686C337.716 659.607 333.443 658.625 329.593 657.505C325.743 656.385 321.466 655.24 320.091 654.96C318.716 654.68 316.691 654.082 315.591 653.633C314.491 653.185 311.341 652.117 308.591 651.26C298.714 648.185 286.403 643.079 286.497 642.098C286.626 640.771 287.315 640.939 296.091 644.421C300.216 646.058 304.941 647.849 306.591 648.403C308.241 648.956 311.166 649.952 313.091 650.614C323.628 654.238 343.727 657.948 340.091 655.598C339.266 655.065 337.243 654.616 335.593 654.598C333.286 654.561 332.937 654.345 334.091 653.598C335.143 652.918 333.61 652.624 328.958 652.614C318.095 652.576 317.984 647.066 328.841 646.768C330.629 646.719 332.095 646.999 332.099 647.389C332.103 647.78 334.363 648.18 337.118 648.28C340.002 648.385 341.882 648.064 341.55 647.53C341.233 647.018 340.325 646.598 339.532 646.598C338.74 646.598 338.091 645.923 338.091 645.098C338.091 643.214 337.599 643.142 345.169 646.159C348.702 647.566 352.338 649.591 353.251 650.659C354.944 652.637 357.715 653.417 356.591 651.598C356.243 651.034 357.062 650.598 358.474 650.598C359.849 650.598 361.233 651.019 361.55 651.532C361.883 652.073 363.272 651.864 364.859 651.038C366.362 650.254 368.085 649.609 368.687 649.606C369.815 649.606 375.984 644.682 375.091 644.501C374.815 644.444 370.204 644.106 364.841 643.749C355.998 643.159 352.981 643.582 356.341 644.936C357.029 645.212 355.99 645.477 354.031 645.52C352.072 645.562 348.557 644.676 346.22 643.547C343.883 642.418 341.21 641.568 340.281 641.661C339.352 641.752 338.071 641.778 337.435 641.713C335.798 641.551 337.021 637.598 338.708 637.598C339.469 637.598 340.091 637.149 340.091 636.598C340.091 636.048 339.416 635.598 338.591 635.598C337.766 635.598 337.091 635.119 337.091 634.532C337.091 633.944 337.88 633.684 338.843 633.952C339.805 634.22 343.603 634.733 347.283 635.092C352.23 635.576 353.84 636.09 353.466 637.065C352.689 639.091 360.468 641.486 369.591 642.03C377.353 642.493 377.502 642.46 374.591 640.928C372.941 640.06 370.86 638.711 369.966 637.932C369.072 637.153 367.949 636.588 367.468 636.676C365.381 637.058 363.091 636.525 363.091 635.657C363.091 634.67 372.337 635.015 374.036 636.065C375.9 637.217 387.849 636.768 390.218 635.458C398.474 630.889 402.093 628.199 402.093 626.631C402.093 625.429 399.774 624.423 394.534 622.762C392.063 621.979 390.438 621.411 385.341 619.942C379.056 618.131 375.539 615.927 380.591 616.966C382.241 617.306 385.741 618.025 388.368 618.569C390.995 619.112 393.922 619.964 394.87 620.462C395.818 620.96 398.556 621.693 400.956 622.09C402.61 622.363 403.503 622.582 404.109 622.887V611.36C404.014 608.183 403.706 607.598 401.534 607.598C400.039 607.598 399.242 607.173 399.613 606.573C399.96 606.008 400.982 605.67 401.884 605.823C403.694 606.129 404.544 602.202 405.48 589.208C406.228 578.833 410.774 551.135 412.966 543.598C414.904 536.935 419.344 523.382 420.544 520.468C421.101 519.116 420.136 518.655 414.905 517.78C411.434 517.198 406.568 516.275 404.093 515.727C399.73 514.761 395.646 515.104 393.593 516.606C393.043 517.009 390.793 517.637 388.593 518.003C386.393 518.369 383.243 518.898 381.593 519.18C378.844 519.65 378.744 519.573 380.392 518.251C381.381 517.457 385.188 516.242 388.849 515.551C396.561 514.096 396.177 513.807 382.093 510.438C374.95 508.729 371.557 508.495 360.843 508.969C347.787 509.547 343.313 508.32 353.843 507.049C362.168 506.045 363.31 505.133 358.673 503.196C356.245 502.182 355.297 501.612 353.992 501.913Z" fill="#DFDFD6"/>
<path d="M102.765 692.402H102.65C101.016 692.9 99.5474 693.672 98.1124 694.501L103.843 700.789C116.246 714.387 119.354 717.35 117.745 714.058C116.929 712.386 112.862 707.434 108.71 703.056C101.36 695.305 100.269 693.4 102.765 692.394V692.402ZM125.909 695.603C125.247 695.603 125.326 696.178 126.115 697.129C127.485 698.781 128.708 698.413 127.632 696.672C127.27 696.085 126.494 695.603 125.909 695.603ZM91.9914 697.888C89.2031 699.229 86.4148 700.233 83.6262 701.18C85.0222 700.881 86.462 700.637 88.052 700.621C88.8537 700.621 92.5587 703.865 96.2864 707.853C100.014 711.841 103.079 714.582 103.079 713.941C103.087 713.3 101.032 710.6 98.513 707.941C93.7394 702.904 90.5468 698.698 91.2082 698.324C91.254 698.286 91.8264 697.98 91.9914 697.888ZM110.034 698.603C109.453 698.603 109.253 699.053 109.593 699.603C109.933 700.153 110.412 700.603 110.654 700.603C110.896 700.603 111.093 700.153 111.093 699.603C111.093 699.053 110.617 698.603 110.034 698.603ZM125.595 698.755C125.037 698.694 124.619 698.755 124.419 698.948C123.846 699.521 131.146 703.313 133.093 703.453C134.017 703.521 133.633 702.821 132.093 701.633C130.183 700.161 127.268 698.94 125.595 698.755ZM79.5774 702.563C79.3087 702.654 79.0396 702.745 78.7707 702.836L78.6653 702.926C78.9412 702.775 79.2878 702.699 79.5774 702.563ZM123.37 703.033C123.404 703.24 123.794 703.724 124.554 704.563C126.731 706.971 127.233 707.131 126.486 705.184C126.186 704.402 125.21 703.482 124.322 703.141C123.657 702.888 123.333 702.825 123.37 703.033ZM101.976 705.602C101.427 705.602 101.253 706.052 101.593 706.603C101.933 707.153 102.662 707.602 103.212 707.602C103.763 707.602 103.933 707.153 103.593 706.603C103.253 706.052 102.526 705.602 101.976 705.602ZM130.986 705.644C130.026 705.682 130.133 705.984 131.345 706.691C132.307 707.251 133.095 708.272 133.095 708.96C133.095 710.378 135.074 712.611 136.331 712.611C136.789 712.611 136.706 711.823 136.146 710.861C134.148 707.428 132.354 705.608 130.986 705.644ZM117.782 706.626C117.068 706.626 117.192 707.028 118.093 707.611C120.014 708.852 120.36 708.852 119.593 707.611C119.253 707.061 118.437 706.626 117.782 706.626ZM74.2102 706.755L73.9094 707.012C73.5616 707.549 73.2384 708.079 72.9152 708.608C73.2731 707.95 73.7396 707.352 74.2102 706.755ZM72.5442 709.21C70.2753 712.971 68.3965 716.465 65.0715 719.263C65.5551 718.983 66.1048 718.608 66.3859 718.608C67.5436 718.608 69.9655 721.27 75.1925 728.286C79.1471 733.594 80.858 735.179 81.7141 734.323C81.9821 734.055 79.2522 730.301 75.6477 725.983C70.9236 720.324 70.2198 714.086 72.5442 709.21ZM139.901 713.65C139.521 713.612 141.318 715.604 143.894 718.038C149.028 722.889 150.568 723.307 147.124 718.915C145.09 716.322 141.538 713.733 139.901 713.65ZM104.218 715.157C103.687 715.685 110.402 722.524 111.497 722.573C111.995 722.611 111.547 721.618 110.499 720.401C107.925 717.412 104.678 714.701 104.218 715.157ZM62.9173 720.833C62.805 720.904 62.7002 720.98 62.585 721.048L62.6039 721.097C62.7097 721.007 62.8145 720.916 62.9173 720.833Z" fill="#1B1B1F"/>
<path d="M155.091 696.658C154.103 696.658 154.447 697.316 156.093 698.604C158.655 700.608 160.093 701.097 160.093 699.965C160.093 698.91 156.701 696.658 155.091 696.658ZM155.593 702.358L158.091 704.334C161.518 707.04 167.091 708.765 167.091 707.119C167.091 706.594 161.919 704.305 158.007 703.1L155.593 702.358ZM153.976 704.604C153.427 704.604 153.253 705.054 153.593 705.603C153.933 706.153 154.662 706.603 155.212 706.603C155.763 706.603 155.933 706.153 155.593 705.603C155.253 705.054 154.526 704.604 153.976 704.604ZM163.017 710.635C162.528 710.635 162.093 710.914 162.093 711.521C162.093 712.404 171.668 717.61 173.29 717.61C173.734 717.61 174.093 717.16 174.093 716.609C174.093 716.059 173.509 715.609 172.794 715.609C172.08 715.609 170.96 715.076 170.308 714.423C169.655 713.771 168.102 713.083 166.857 712.894C165.612 712.705 164.446 712.116 164.261 711.582C164.05 710.968 163.506 710.635 163.017 710.635ZM176.407 717.897C176.155 717.938 176.091 718.293 176.091 718.986C176.091 719.984 176.929 720.607 178.261 720.607C179.453 720.607 180.241 720.483 180.011 720.328C179.782 720.173 178.805 719.442 177.843 718.705C177.094 718.13 176.657 717.855 176.407 717.897ZM181.591 736.603C179.313 736.603 179.769 737.68 183.343 740.752C186.104 743.125 186.365 743.714 185.091 744.652C183.925 745.511 183.88 745.872 184.88 746.275C190.338 748.478 192.507 753.008 189.538 754.279C199.619 752.875 204.983 748.162 212.706 744.609L209.103 742.11C205.328 739.493 204.093 739.069 204.093 740.387C204.093 740.819 205.511 742.009 207.247 743.035C210.221 744.792 210.299 744.979 208.558 746.252C206.235 747.952 205.009 747.985 205.644 746.331C205.913 745.631 204.816 744.282 203.208 743.331C199.483 741.131 199.334 741.15 199.519 743.853C199.603 745.09 200.217 745.989 200.882 745.853C201.547 745.717 202.091 746.407 202.091 747.39C202.091 749.721 198.605 749.985 195.415 747.896C193.537 746.665 193.277 746.088 194.284 745.398C195.316 744.69 195.195 744.246 193.718 743.302C192.687 742.643 190.422 741.17 188.685 740.03C186.948 738.89 184.979 738.141 184.31 738.364C183.64 738.587 183.091 738.281 183.091 737.687C183.091 737.09 182.416 736.603 181.591 736.603ZM177.777 740.243C176.795 740.042 176.861 740.977 178.294 742.41C179.649 743.765 181.093 743.993 181.093 742.852C181.093 742.434 180.191 741.529 179.091 740.842C178.543 740.498 178.105 740.311 177.777 740.243ZM187.421 741.949C188.447 740.923 192.093 744.698 192.093 746.787C192.093 747.814 193.218 749.166 194.593 749.793C195.968 750.419 197.091 751.31 197.091 751.772C197.091 753.093 195.8 752.707 193.093 750.578C191.718 749.497 190.013 748.125 189.302 747.531C188.579 746.936 188.28 745.591 188.616 744.531C188.993 743.345 188.757 742.609 187.995 742.609C187.315 742.609 187.058 742.311 187.421 741.949ZM177.595 745.299C177.222 745.337 177.093 745.598 177.093 746.131C177.093 747.281 178.476 748.051 181.343 748.494C181.756 748.558 182.089 748.271 182.085 747.859C182.081 747.447 180.956 746.591 179.585 745.955C178.591 745.495 177.969 745.261 177.595 745.299ZM135.519 767.846C135.029 768.336 145.494 775.74 149.843 777.981C152.37 779.283 153.625 781.82 153.085 783.662C154.093 781.362 154.445 779.358 159.206 775.369L159.447 775.067C154.903 779.326 153.139 779.116 147.025 774.522C141.195 770.142 136.149 767.215 135.519 767.846ZM153.04 783.758C152.956 784.007 152.702 784.169 152.548 784.387L152.706 784.478C152.833 784.232 152.935 783.994 153.04 783.758Z" fill="#1B1B1F"/>
<path d="M409.841 659.175C408.604 659.137 407.593 659.644 407.593 660.304C407.593 660.963 407.03 662.065 406.343 662.753C404.348 664.747 404.867 667.513 407.343 668.089C408.581 668.376 411.393 669.014 413.593 669.506C422.517 671.504 424.25 671.057 423.901 666.852L423.591 663.103L416.749 662.427C407.596 661.522 406.999 660.574 415.976 661.198C420.573 661.516 423.091 661.323 423.091 660.647C423.091 660.069 420.635 659.524 417.591 659.425C414.567 659.326 411.079 659.212 409.841 659.175Z" fill="#DFDFD6"/>
<path d="M404.8 670.404L405.501 678.254C406.66 691.229 406.132 690.554 416.593 692.461C423.937 693.799 424.093 693.592 424.093 682.552C424.093 671.263 424.96 672.135 412.696 671.082L404.8 670.404Z" fill="#DFDFD6"/>
<path d="M477.564 526.009C476.935 526.214 476.212 526.708 475.298 527.412L473.005 529.177L474.107 544.64C474.813 554.554 474.961 572.172 474.521 593.738C473.908 623.717 474.011 627.73 475.464 630.643C476.565 632.849 477.093 636.519 477.093 641.941C477.093 651.048 479.076 654.601 484.154 654.601C485.645 654.601 488.377 655.259 490.228 656.062C497.769 659.337 498.033 658.797 498.724 638.533C500.099 598.188 494.835 562.586 483.319 534.351C480.493 527.422 479.45 525.4 477.564 526.009Z" fill="#DFDFD6"/>
<path d="M428.981 525.152C427.635 525.084 426.543 527.518 422.997 536.156C412.905 560.735 410.236 570.945 407.063 597.099C404.646 617.027 406.748 613.096 404.769 626.2C404.444 628.2 404.712 630.102 405.419 630.845C410.209 635.869 412.036 644.95 409.835 652.806C409.004 655.774 410.472 656.388 419.591 656.884L423.591 657.1L424.278 647.1C424.656 641.6 425.471 633.95 426.091 630.1C426.711 626.25 427.569 606.9 427.997 587.1C428.555 561.27 429.278 547.732 430.552 539.174C432.263 527.676 432.262 527.199 430.513 525.92C429.907 525.477 429.43 525.175 428.981 525.152Z" fill="#DFDFD6"/>
<path d="M454.093 487.601V501.04C454.093 508.433 453.757 514.694 453.343 514.95C452.93 515.207 452.74 511.323 452.919 506.319C453.414 492.521 452.957 491.1 447.517 489.577C441.599 487.92 440.858 488.733 439.943 497.864C437.804 519.19 438.273 520.237 453.302 527.741C457.312 529.744 461.043 531.126 461.593 530.813C472.291 524.721 475.093 519.538 475.093 505.851V494.4L471.695 491.001C468.467 487.773 467.936 487.601 461.195 487.601H454.093Z" fill="#DFDFD6"/>
<path d="M509.9 478.918C509.001 478.714 507.594 479.22 505.437 480.144C500.122 482.422 484.698 487.395 480.521 488.179C476.138 489.001 475.792 489.638 477.503 493.746C478.272 495.592 479.223 499.239 479.613 501.851C480.48 507.662 480.634 507.676 493.093 503.032C498.318 501.085 503.943 499.007 505.593 498.416C510.357 496.706 510.927 495.577 511.259 487.181C511.482 481.563 511.399 479.257 509.9 478.918Z" fill="#DFDFD6"/>
<path d="M360.683 472.761C359.776 473.954 357.128 493.025 357.784 493.638C360.194 495.886 397.865 506.177 418.093 510.112C433.195 513.05 435.093 511.971 435.093 500.446C435.093 492.917 435.002 492.601 432.784 492.601C431.514 492.601 426.902 491.729 422.534 490.661C418.168 489.594 410.543 487.737 405.593 486.534C389.247 482.562 372.68 477.648 366.767 475.015C363.562 473.588 360.825 472.574 360.683 472.761Z" fill="#DFDFD6"/>
<path d="M409.722 653.291C409.264 656.037 408.458 658.26 407.56 660.346H407.567C407.567 660.346 407.594 660.308 407.594 660.293C407.594 659.633 408.605 659.126 409.842 659.164C411.08 659.202 414.567 659.315 417.592 659.414C420.635 659.512 423.092 660.058 423.092 660.636C423.092 661.312 420.573 661.504 415.976 661.187C406.999 660.563 407.596 661.512 416.75 662.415L423.59 663.091C423.522 661.653 423.479 660.011 423.592 657.089L419.592 656.874C411.101 656.412 409.351 655.768 409.807 653.297L409.722 653.291ZM405.276 664.717L405.177 664.83C404.811 666.794 404.736 668.51 404.824 670.406L412.696 671.082C421.889 671.872 423.704 671.581 424.037 676.141C423.889 673.349 423.885 670.683 423.921 667.881L423.871 667.213C424.054 671.003 422.193 671.432 413.593 669.508C411.393 669.015 408.581 668.377 407.343 668.09C405.628 667.691 404.928 666.233 405.276 664.717ZM424.036 676.168C424.04 676.24 424.034 676.395 424.038 676.47H424.049C424.042 676.368 424.042 676.266 424.034 676.164L424.036 676.168Z" fill="#DFDFD6"/>
<path d="M416.544 264.644C415.725 264.682 414.813 265.173 414.454 266.107C414.137 266.932 413.29 267.607 412.57 267.607C411.849 267.607 411.097 268.092 410.9 268.683C410.703 269.275 406.729 270.335 402.068 271.039C397.406 271.742 391.793 272.822 389.593 273.437C387.393 274.053 378.618 275.93 370.093 277.607C336.724 284.172 329.654 287.303 314.501 302.234C310.773 305.908 302.807 312.704 296.796 317.337C278.86 331.164 242.068 362.77 239.284 366.744C233.339 375.232 254.821 443.001 266.931 453.96C269.756 456.517 271.526 455.829 298.335 441.767C309.838 435.733 310.231 435.61 317.833 435.652C328.273 435.709 347.139 438.028 350.109 439.617C353.587 441.478 381.808 440.305 388.593 438.017C397.386 435.053 398.068 434.029 401.56 418.562L404.124 407.203L398.859 401.826C388.971 391.729 381.008 390.166 371.513 396.455C368.295 398.586 365.415 399.533 360.849 399.964C351.202 400.875 298.357 401.203 297.511 400.357C297.098 399.944 305.048 399.59 315.177 399.566L333.593 399.525L327.593 397.067C316.191 392.396 314.578 390.454 319.343 387.135C336.071 375.487 335.646 375.511 345.224 385.686C350.523 391.316 353.091 394.827 353.091 396.437C353.091 398.409 353.487 398.731 355.343 398.286C356.581 397.987 359.301 397.436 361.388 397.058C363.787 396.623 366.729 394.927 369.388 392.446C378.549 383.9 392.133 385.898 403.492 397.462L409.39 403.466L408.769 408.69C405.34 437.639 395.035 444.441 354.343 444.604C348.552 444.642 360.498 464.869 368.031 467.798C379.098 472.1 414.072 480.609 433.093 483.628C453.625 486.886 480.168 484.416 497.626 477.622C515.016 470.855 516.542 470.067 518.833 466.667C523.171 460.231 522.29 460.193 506.115 466.142C484.248 474.183 490.639 469.907 514.093 460.804C520.262 458.409 521.646 457.468 521.886 455.501C522.045 454.185 522.574 452.21 523.06 451.11C525.913 444.649 524.083 442.062 519.343 445.854C518.656 446.405 518.091 446.46 518.091 445.975C518.091 445.491 520.118 443.871 522.593 442.376C527.989 439.116 529.476 433.753 524.454 435.663C520.33 437.231 520.695 436.17 524.921 434.305C528.473 432.738 532.074 427.729 532.101 424.325C532.101 423.656 533.217 420.86 534.57 418.11C535.922 415.36 537.049 411.985 537.068 410.61C537.106 409.235 537.777 406.82 538.599 405.245C539.42 403.669 540.093 401.333 540.093 400.053C540.093 398.774 540.481 397.486 540.956 397.192C541.432 396.897 542.056 394.929 542.339 392.815C543.464 384.428 549.188 375.163 555.374 371.716C559.6 369.361 618.197 368.351 619.593 370.61C619.952 371.193 625.634 371.61 633.239 371.61H646.265L649.679 368.389C651.557 366.618 653.091 364.58 653.091 363.862C653.091 361.586 661.864 353.61 664.367 353.61C665.646 353.61 667.256 353.047 667.943 352.36C668.866 351.435 677.359 350.98 700.56 350.61C717.814 350.334 732.223 349.817 732.579 349.459C734.455 347.577 724.589 346.398 706.759 346.371C694.11 346.333 689.121 346.077 692.091 345.551C694.566 345.115 700.019 344.725 704.206 344.684C708.394 344.642 714.134 344.172 716.96 343.635C719.787 343.099 724.577 342.578 727.603 342.479C732.647 342.312 736.334 340.517 734.792 338.975C733.573 337.756 718.909 336.69 700.593 336.489L681.593 336.281L695.593 335.454C703.293 335 711.393 334.467 713.593 334.267C715.793 334.067 733.116 333.575 752.091 333.173C771.066 332.772 787.756 332.08 789.177 331.637C792.23 330.683 799.823 333.946 803.362 337.732C804.588 339.043 807.393 340.962 809.593 341.998C811.793 343.032 815.732 344.972 818.345 346.308C821.263 347.799 824.35 348.616 826.345 348.423L829.593 348.11L830.351 338.213C831.579 322.214 832.897 320.076 833.003 333.908L833.093 345.705L839.345 345.407C844.717 345.15 845.735 344.791 846.583 342.858C847.126 341.62 847.912 340.607 848.331 340.607C849.554 340.607 849.23 314.744 847.974 312.293C845.016 306.509 846.219 306.654 801.31 306.631C766.913 306.631 759.428 306.358 756.437 305.107C754.117 304.138 749.55 303.608 743.529 303.608C738.403 303.608 733.972 303.226 733.683 302.758C733.395 302.289 728.843 301.649 723.57 301.334C718.296 301.021 713.444 300.326 712.786 299.793C712.129 299.26 709.566 298.59 707.091 298.307C701.594 297.677 692.529 295.38 691.507 294.358C690.446 293.297 655.325 293.422 654.665 294.49C654.367 294.974 650.292 295.688 645.611 296.078C640.929 296.468 636.846 297.196 636.536 297.697C635.604 299.205 619.719 298.767 615.788 297.124C612.863 295.902 608.32 295.744 589.915 296.209C573.979 296.611 568.02 296.469 569.091 295.705C569.916 295.119 571.379 294.632 572.341 294.625C573.303 294.625 574.091 294.158 574.091 293.607C574.091 293.038 577.041 292.609 580.941 292.609C598.687 292.609 608.516 290.19 598.31 288.334C595.358 287.797 589.642 285.866 586.829 284.458C585.859 283.973 582.372 283.295 579.079 282.951C575.787 282.607 573.091 281.972 573.091 281.543C573.091 280.693 560.763 279.593 549.591 279.445C541.081 279.332 537.015 280.175 531.222 283.256C528.787 284.55 526.186 285.609 525.443 285.609C524.7 285.609 524.091 286.059 524.091 286.609C524.091 287.187 527.576 287.652 532.341 287.711C547.313 287.896 536.025 289.495 514.9 290.181L495.206 290.822L493.734 294.967C492.924 297.245 490.035 305.409 487.316 313.109C478.857 337.055 469.532 357.585 458.863 375.754C446.971 396.005 446.958 396.137 457.242 394.761C464.94 393.732 474.752 394.253 475.671 395.74C475.966 396.219 475.395 396.646 474.402 396.691C473.407 396.737 471.387 396.971 469.915 397.215C468.444 397.456 466.955 397.177 466.607 396.633C466.259 396.07 465.299 395.607 464.474 395.607C463.649 395.607 463.251 396.059 463.591 396.609C463.986 397.248 460.982 397.609 455.29 397.609H446.37L430.917 418.359C422.418 429.772 412.259 443.607 408.341 449.107C399.01 462.208 396.433 465.27 395.505 464.35C395.083 463.931 395.891 462.356 397.3 460.849C398.709 459.343 404.486 450.684 410.136 441.609C415.786 432.534 421.696 423.309 423.269 421.109C424.842 418.909 429.385 412.608 433.364 407.107C448.242 386.543 461.073 362.767 458.306 360.889C456.757 359.838 456.806 359.719 458.816 359.666C463.251 359.549 468.119 346.605 464.972 343.294C453.46 331.185 418.091 272.841 418.091 265.961C418.091 265.042 417.364 264.612 416.544 264.644Z" fill="#DFDFD6"/>
<path d="M354.316 451.554C359.651 461.876 360.552 469.502 359.804 476.424C360.137 474.602 360.458 473.062 360.683 472.765C360.801 472.61 363.259 473.588 365.747 474.642L366.396 466.863C362.025 464.072 356.866 457.011 354.406 451.599L354.316 451.554Z" fill="#1B1B1F"/>
<path d="M356.048 498.5C355.048 500.5 354.565 499.977 345.101 507.178C345.982 506.615 346.252 506.445 347.173 505.855C351.025 503.392 352.687 502.222 353.992 501.92C355.297 501.618 356.245 502.186 358.673 503.199C363.31 505.136 362.168 506.048 353.843 507.053C344.048 508.235 347.393 509.296 356.773 509.035L363.048 507L363.964 496.056C361 495.055 358.274 494.1 357.784 493.643C357.495 493.37 356.504 497.588 356.048 498.5Z" fill="#1B1B1F"/>
<path d="M521.991 454.777C521.972 454.906 521.9 455.383 521.886 455.502C521.646 457.469 520.262 458.409 514.093 460.804C510.291 462.28 507.733 463.378 504.876 464.568L505.083 466.494C505.554 466.324 505.614 466.328 506.114 466.143C522.29 460.194 523.171 460.232 518.833 466.668C517.125 469.202 513.654 471.002 505.909 474.191L506.505 479.738C508.006 479.138 509.179 478.758 509.9 478.922C510.976 479.164 511.212 480.968 511.24 483.736L511.314 483.699C512.028 473.079 514.686 472.304 518.745 466.8C523.051 460.938 521.973 458.03 521.991 454.777Z" fill="#1B1B1F"/>
<path d="M305.985 548.92C304.614 549.048 302.497 549.499 299.843 550.246C298.588 550.597 298.051 550.284 298.187 549.49C296.34 552.835 295.56 553.748 294.968 554.228C297.568 552.57 302.278 550.726 304.784 550.662C305.989 550.624 307.281 550.109 307.659 549.5C307.983 548.976 307.357 548.789 305.985 548.92ZM294.372 554.709C294.304 554.766 294.224 554.852 294.15 554.92C294.237 554.845 294.272 554.785 294.372 554.709ZM284.874 566.447C282.359 569.306 280.492 571.102 278.999 572.35C279.59 571.966 280.168 571.644 280.593 571.625C281.727 571.576 296.403 575.673 305.948 578.705C309.445 579.816 312.53 580.504 312.802 580.232C313.636 579.398 312.059 577.605 310.493 577.605C309.679 577.605 307.247 576.705 305.091 575.605C302.935 574.505 300.232 573.605 299.083 573.605C296.649 573.605 284.103 568.43 284.103 567.417C284.101 567.349 284.758 566.638 284.874 566.447ZM277.829 573.277C277.376 573.621 276.947 573.93 276.548 574.205L276.718 574.265C277.076 573.891 277.453 573.603 277.829 573.277Z" fill="#1B1B1F"/>
<path d="M504.876 464.568C490.508 470.552 488.31 472.592 505.083 466.494L504.876 464.568ZM366.396 466.863L365.747 474.642C366.248 474.854 366.23 474.779 366.767 475.02C372.68 477.654 389.246 482.568 405.593 486.54C410.543 487.743 418.167 489.6 422.534 490.667C426.902 491.734 431.514 492.606 432.784 492.606C435.002 492.606 435.093 492.923 435.093 500.452C435.093 511.976 433.195 513.056 418.093 510.118C401.979 506.983 375.573 499.98 363.964 496.057L363.048 507L356.773 509.035C358.132 508.997 359.199 509.036 360.843 508.975C371.557 508.501 374.95 508.737 382.093 510.444C396.177 513.813 396.56 514.102 388.849 515.557C385.187 516.248 381.381 517.463 380.392 518.257C378.744 519.579 378.844 519.656 381.593 519.186C383.243 518.903 386.393 518.375 388.593 518.008C390.793 517.642 393.043 517.014 393.593 516.612C395.646 515.109 399.73 514.767 404.093 515.733C406.568 516.281 411.434 517.204 414.905 517.786C420.136 518.661 421.101 519.122 420.544 520.474C419.344 523.388 414.904 536.941 412.966 543.604C410.774 551.141 406.228 578.838 405.48 589.214C404.543 602.207 403.694 606.135 401.884 605.829C400.982 605.678 399.96 606.014 399.612 606.579C399.242 607.179 400.039 607.604 401.534 607.604C403.706 607.604 404.014 608.189 404.108 611.366V622.894C403.503 622.587 402.61 622.368 400.956 622.096C398.556 621.699 395.818 620.965 394.87 620.468C393.922 619.97 390.995 619.118 388.368 618.575C385.741 618.031 382.241 617.312 380.591 616.971C375.538 615.933 379.056 618.137 385.341 619.948C390.438 621.417 392.063 621.985 394.534 622.768C399.773 624.429 402.093 625.436 402.093 626.638C402.093 627.461 400.94 628.652 398.796 630.203C400.885 629.704 402.905 628.222 405.388 630.772C404.715 629.997 404.451 628.166 404.769 626.21C406.748 613.105 404.647 617.034 407.064 597.106C410.236 570.952 412.905 560.743 422.997 536.163C426.544 527.525 427.635 525.089 428.982 525.159C429.43 525.196 429.907 525.484 430.513 525.926C432.262 527.205 432.264 527.682 430.552 539.18C429.278 547.738 428.555 561.276 427.997 587.106C427.726 599.654 427.29 610.381 426.843 618.737L429.898 618.608H429.823L430.515 605.856C431.492 587.832 434.86 550.233 436.136 543.106C436.727 539.806 437.471 535.411 437.788 533.335C438.177 530.787 438.438 529.497 439.788 529.191C441.138 528.884 443.577 529.565 448.316 530.946C452.869 532.275 458.501 533.884 460.829 534.522C467.511 536.353 469.486 546.078 469.558 577.491L469.597 593.872L462.595 596.134C458.745 597.379 452.385 599.35 448.462 600.513C444.538 601.675 440.709 603.382 439.958 604.305C438.771 605.762 438.811 605.904 440.239 605.37C441.144 605.03 443.845 604.192 446.239 603.506C448.634 602.821 451.044 601.949 451.595 601.567C452.145 601.186 455.07 600.292 458.095 599.583C461.12 598.874 465 597.709 466.718 596.993C471.093 595.174 471.093 595.228 471.093 611.778V626.61H471.026C472.233 626.678 473.395 626.799 474.55 626.928C474.043 622.904 474.087 614.95 474.519 593.75C474.96 572.185 474.812 554.566 474.105 544.652L473.004 529.189L475.297 527.424C476.211 526.72 476.934 526.226 477.562 526.022C479.449 525.413 480.492 527.434 483.318 534.363C494.25 561.167 499.474 594.664 498.807 632.5C500.229 632.863 501.634 633.257 503.09 633.561V626.863C503.089 620.05 501.568 600.811 500.566 594.93C500.03 591.781 500.081 591.739 504.81 591.131C507.441 590.795 511.392 590.059 513.592 589.498C522.316 587.275 529.861 585.539 535.336 584.496C538.495 583.894 540.854 583.041 540.582 582.598C540.039 581.72 548.343 579.977 554.402 579.697C555.411 579.652 555.921 579.146 555.555 578.555C554.73 577.221 539.89 577.716 538.842 579.113C538.362 579.753 537.792 579.649 537.258 578.823C536.628 577.846 535.398 577.759 532.258 578.463C529.967 578.978 528.092 579.212 528.092 578.981C528.092 578.75 526.749 579.257 525.107 580.104C523.466 580.953 520.878 581.8 519.357 581.989C517.836 582.178 513.052 583.331 508.726 584.555C499.186 587.256 499.604 587.65 497.717 574.112C495.486 558.11 488.687 532.54 483.615 521.071C482.213 517.9 481.195 515.175 481.354 515.016C481.512 514.857 485.231 513.38 489.617 511.735C494.003 510.09 501.415 507.119 506.09 505.129C509.146 503.829 515.548 501 522.548 503C522.548 503 517.199 500.154 514.548 498C512.619 496.433 511.307 493.452 510.548 494C509.789 494.548 506.907 497.954 505.592 498.426C503.942 499.018 498.316 501.096 493.092 503.043C480.632 507.687 480.478 507.673 479.611 501.862C479.221 499.249 478.271 495.602 477.502 493.756C475.79 489.648 476.136 489.012 480.519 488.19C484.696 487.406 500.121 482.433 505.436 480.155C505.862 479.974 506.134 479.894 506.504 479.745L505.908 474.198C503.263 475.287 502.053 475.906 497.625 477.629C480.166 484.424 453.624 486.894 433.092 483.636C429.018 482.989 423.987 481.999 418.842 480.944L417.057 482.089L405.017 477.893C389.812 474.383 374.653 470.38 368.029 467.805C367.508 467.601 366.948 467.223 366.394 466.869L366.396 466.863ZM454.093 487.606H461.194C467.936 487.606 468.466 487.779 471.695 491.006L475.093 494.404V505.856C475.093 519.543 472.29 524.726 461.593 530.818C461.043 531.132 457.312 529.748 453.302 527.746C438.273 520.242 437.804 519.194 439.942 497.869C440.858 488.738 441.598 487.925 447.517 489.582C452.957 491.105 453.414 492.526 452.919 506.324C452.74 511.328 452.93 515.212 453.343 514.955C453.756 514.698 454.093 508.438 454.093 501.045V487.606ZM355.321 518.666C354.814 518.666 354.061 518.98 353.091 519.606C351.878 520.388 352.023 520.592 353.843 520.592C355.081 520.592 356.091 520.156 356.091 519.606C356.091 518.98 355.829 518.666 355.321 518.666ZM373.765 519.084C373.217 518.895 372.123 519.023 370.731 519.553C367.478 520.79 367.13 523.031 370.343 522.061C371.58 521.686 373.013 520.988 373.526 520.509C374.314 519.774 374.313 519.273 373.765 519.084ZM364.593 520.605C363.768 520.605 363.093 521.055 363.093 521.605C363.093 522.155 363.768 522.605 364.593 522.605C365.418 522.605 366.093 522.155 366.093 521.605C366.093 521.055 365.418 520.605 364.593 520.605ZM568.366 520.718C569.136 522.589 561.459 526.447 549.843 529.18C548.33 529.535 547.093 530.248 547.093 530.763C547.093 531.719 552.117 531.152 557.593 529.578C564.629 527.556 569.659 527.382 571.091 529.108C571.184 529.221 571.58 529.459 571.741 529.602C569.576 526.541 569.002 523.795 568.404 520.725L568.366 520.718ZM356.843 522.943C356.155 523.223 356.718 523.449 358.093 523.449C359.468 523.449 360.03 523.218 359.343 522.943C358.655 522.667 357.53 522.667 356.843 522.943ZM351.843 523.943C351.155 524.223 351.716 524.449 353.091 524.449C354.468 524.449 355.03 524.219 354.343 523.943C353.656 523.668 352.53 523.668 351.843 523.943ZM334.343 531.918C333.381 532.171 334.168 532.373 336.093 532.373C338.017 532.373 338.805 532.172 337.843 531.918C336.88 531.664 335.306 531.664 334.343 531.918ZM331.521 533.002C330.784 532.866 328.981 533.081 326.239 533.668C320.3 534.942 318.986 537.224 324.823 536.129C326.876 535.744 329.392 534.981 330.411 534.435C331.93 533.622 332.258 533.138 331.521 533.002ZM344.919 541.393C344.194 541.321 343.193 541.329 342.093 541.434C339.893 541.642 338.091 541.991 338.091 542.21C338.091 542.425 339.893 542.603 342.093 542.603C344.293 542.603 346.093 542.255 346.093 541.829C346.093 541.617 345.644 541.465 344.919 541.393ZM543.855 541.898C542.61 542.137 543.393 542.355 545.593 542.355C547.794 542.355 548.81 542.17 547.855 541.922C546.898 541.657 545.098 541.646 543.855 541.884V541.898ZM331.593 542.106C328.954 542.106 327.093 542.569 327.093 543.222C327.093 543.834 328.105 544.227 329.343 544.098C330.581 543.97 332.605 543.807 333.843 543.736C338.041 543.498 336.12 542.106 331.593 542.106ZM524.654 542.606C522.696 542.606 521.091 543.056 521.091 543.607C521.091 544.156 522.417 544.606 524.034 544.606C525.652 544.606 527.253 544.156 527.593 543.607C527.961 543.011 526.772 542.606 524.654 542.606ZM529.843 542.943C529.155 543.222 529.718 543.448 531.093 543.448C532.468 543.448 533.03 543.218 532.343 542.943C531.655 542.667 530.53 542.667 529.843 542.943ZM551.773 544.14C551.4 544.068 550.963 544.102 550.56 544.257C548.493 545.05 548.737 545.605 551.152 545.605C552.286 545.605 552.943 545.176 552.618 544.65C552.456 544.385 552.147 544.212 551.773 544.14ZM359.034 554.605C358.517 554.605 358.093 555.054 358.093 555.604C358.093 556.154 358.796 556.605 359.654 556.605C360.51 556.605 360.933 556.154 360.593 555.604C360.253 555.054 359.552 554.605 359.034 554.605ZM354.509 555.491C350.984 555.711 344.305 557.05 343.421 557.968C342.607 558.814 354.841 557.828 356.361 556.923C356.784 556.674 356.912 556.123 356.651 555.7C356.509 555.455 355.684 555.42 354.509 555.491ZM392.343 565.187C391.105 565.05 390.093 565.281 390.093 565.701C390.093 566.12 391.105 566.66 392.343 566.898C396.577 567.714 399.093 567.605 399.093 566.607C399.093 566.057 398.08 565.568 396.843 565.522C395.605 565.477 393.58 565.323 392.343 565.187ZM357.333 567.992C356.559 567.943 355.121 568.031 353.091 568.205C349.516 568.538 346.141 569.258 345.591 569.809C344.42 570.98 354.41 569.873 357.591 568.477C358.215 568.204 358.107 568.037 357.333 567.992ZM342.654 569.605C342.411 569.605 341.933 570.055 341.593 570.605C341.253 571.155 341.45 571.605 342.032 571.605C342.615 571.605 343.093 571.155 343.093 570.605C343.093 570.055 342.895 569.605 342.654 569.605ZM565.593 570.544L562.093 571.202C557.847 572.001 554.091 573.361 554.091 574.101C554.091 574.835 558.898 573.596 562.593 571.911L565.593 570.544ZM579.583 570.737C579.278 570.661 578.738 570.699 577.991 570.892C576.672 571.209 573.791 571.761 571.591 572.12C565.75 573.071 558.091 575.631 558.091 576.632C558.091 577.108 560.607 576.632 563.683 575.573C566.759 574.515 571.494 573.354 574.206 572.995C576.918 572.636 579.419 571.885 579.763 571.327C579.959 571.014 579.889 570.812 579.583 570.737ZM467.712 591.604C466.887 591.604 465.933 592.054 465.593 592.604C465.253 593.155 465.651 593.604 466.476 593.604C467.301 593.604 468.253 593.155 468.593 592.604C468.933 592.054 468.537 591.604 467.712 591.604ZM385.593 599.589L388.093 601.061C390.831 602.674 394.11 603.171 392.544 601.735C392.022 601.256 390.243 600.577 388.593 600.225L385.593 599.589ZM346.691 605.143C346.279 605.181 346.192 605.396 346.343 605.852C346.562 606.51 347.833 607.351 349.167 607.725C350.502 608.099 351.707 608.45 351.843 608.503C351.979 608.559 352.093 608.197 352.093 607.702C352.093 607.206 350.707 606.317 349.017 605.727C347.849 605.321 347.106 605.143 346.691 605.143ZM324.593 608.592L327.593 610.003C330.24 611.251 332.178 611.354 331.009 610.184C330.779 609.954 329.24 609.5 327.591 609.178L324.593 608.592ZM324.863 620.78C324.301 620.863 324.369 621.433 325.023 622.491C326.199 624.395 342.093 628.714 342.093 627.13C342.093 626.204 336.159 623.602 334.044 623.602C332.862 623.602 330.349 622.869 328.458 621.972C326.61 621.094 325.422 620.697 324.863 620.78ZM313.464 621.737C312.636 621.828 312.266 622.081 312.7 622.547C313.318 623.209 315.47 623.881 317.482 624.04C319.493 624.198 321.423 624.614 321.775 624.966C322.125 625.313 323.106 625.603 323.958 625.603C325.359 625.603 325.363 625.444 323.997 624.079C322.586 622.669 315.97 621.465 313.481 621.737H313.464ZM398.329 630.487C396.4 631.849 393.925 633.41 390.218 635.462C387.849 636.772 375.9 637.221 374.036 636.069C372.337 635.019 363.091 634.674 363.091 635.661C363.091 636.529 365.381 637.062 367.468 636.68C367.949 636.593 369.072 637.158 369.966 637.936C370.86 638.715 372.941 640.064 374.591 640.932C377.501 642.464 377.353 642.496 369.591 642.034C360.468 641.49 352.688 639.095 353.466 637.069C353.84 636.094 352.229 635.58 347.282 635.096C343.602 634.737 339.805 634.225 338.843 633.956C337.88 633.688 337.091 633.956 337.091 634.536C337.091 635.123 337.766 635.602 338.591 635.602C339.416 635.602 340.091 636.053 340.091 636.603C340.091 637.153 339.469 637.602 338.708 637.602C337.021 637.602 335.798 641.555 337.435 641.718C338.071 641.782 339.351 641.755 340.28 641.665C341.21 641.574 343.883 642.422 346.22 643.551C348.556 644.68 352.071 645.566 354.03 645.524C355.99 645.479 357.028 645.214 356.341 644.94C352.981 643.586 355.999 643.163 364.841 643.752C370.204 644.108 374.815 644.448 375.091 644.504C375.476 644.584 374.463 645.578 373.192 646.645L373.862 646.302C377.657 642.904 384.3 640.044 393.751 633.63L398.329 630.487ZM330.464 633.304C330.013 633.361 329.665 633.489 329.536 633.698C329.228 634.196 330.127 634.602 331.534 634.602C332.942 634.602 334.093 634.432 334.093 634.219C334.093 633.552 331.818 633.126 330.464 633.304ZM320.093 635.052C320.093 635.957 325.579 638.421 326.427 637.897C326.889 637.61 326.89 637.037 326.429 636.62C325.403 635.69 320.097 634.378 320.093 635.052ZM302.767 635.751C302.359 635.834 302.091 636.034 302.091 636.37C302.091 637.798 303.268 638.604 305.343 638.604C306.429 638.604 307.083 638.062 306.849 637.354C306.491 636.268 303.992 635.498 302.767 635.751ZM309.423 636.696C308.586 636.519 308.091 636.809 308.091 637.604C308.091 638.154 308.967 638.604 310.034 638.604C311.102 638.604 312.253 639.054 312.593 639.604C312.933 640.154 313.697 640.604 314.288 640.604C314.88 640.604 314.22 639.704 312.821 638.604C311.443 637.52 310.26 636.874 309.423 636.696ZM276.901 639.018C276.403 639.079 276.093 639.247 276.093 639.505C276.093 640.431 280.434 642.377 282.843 642.528C283.53 642.573 284.091 642.143 284.091 641.575C284.091 640.495 283.366 640.162 278.843 639.171C278.087 639.019 277.4 638.958 276.901 639.018ZM286.816 641.415C286.596 641.532 286.529 641.77 286.497 642.103C286.403 643.083 298.714 648.189 308.591 651.264C311.341 652.121 314.491 653.189 315.591 653.638C316.691 654.086 318.716 654.684 320.091 654.964C321.466 655.243 325.743 656.389 329.593 657.509C333.443 658.628 337.716 659.611 339.091 659.69C340.716 659.784 340.999 659.992 339.898 660.282C338.925 660.539 338.434 661.332 338.747 662.149C339.209 663.352 336.771 663.512 322.943 663.19C305.944 662.794 305.759 663.349 322.019 665.969C327.296 666.819 330.084 667.958 329.882 668.958C342.317 660.37 344.062 658.465 363.24 651.745L364.042 651.335C362.847 651.807 361.819 651.972 361.55 651.535C361.233 651.022 359.849 650.601 358.474 650.601C357.062 650.601 356.243 651.037 356.591 651.602C357.715 653.42 354.944 652.641 353.251 650.662C352.338 649.595 348.702 647.57 345.169 646.162C337.599 643.145 338.091 643.218 338.091 645.102C338.091 645.926 338.74 646.601 339.532 646.601C340.325 646.601 341.232 647.021 341.55 647.533C341.881 648.068 340.002 648.389 337.118 648.283C334.363 648.185 332.103 647.783 332.099 647.393C332.095 647.002 330.629 646.723 328.841 646.772C317.984 647.07 318.095 652.579 328.958 652.617C333.61 652.617 335.143 652.923 334.091 653.602C332.937 654.349 333.286 654.564 335.593 654.602C337.243 654.602 339.266 655.068 340.091 655.602C343.727 657.951 323.628 654.241 313.091 650.617C311.166 649.955 308.241 648.96 306.591 648.406C304.941 647.853 300.216 646.061 296.091 644.424C289.509 641.812 287.475 641.065 286.816 641.415ZM332.521 641.845C331.635 642.73 334.293 645.522 336.065 645.567C337.131 645.605 336.931 644.999 335.343 643.411C334.136 642.204 332.864 641.501 332.521 641.845ZM321.905 661.924C321.108 662.246 321.346 662.481 322.511 662.53C323.564 662.572 324.154 662.337 323.821 662.005C323.489 661.672 322.627 661.637 321.905 661.924ZM327.905 663.923C328.627 663.635 329.489 663.669 329.821 664.002C330.154 664.334 329.565 664.57 328.511 664.525C327.346 664.476 327.108 664.239 327.905 663.923Z" fill="#1B1B1F"/>
<path d="M350.091 439.614C351.938 442.084 352.729 444.46 352.866 446.934H352.972C352.873 445.579 353.169 444.599 354.343 444.592C357.959 444.592 361.058 444.437 364.21 444.309L361.808 440.418C356.24 440.456 351.37 440.281 350.109 439.605H350.09L350.091 439.614Z" fill="#1B1B1F"/>
<path d="M531.423 427.193L531.416 427.195C530.206 430.086 527.557 433.144 524.922 434.306C520.695 436.171 520.33 437.232 524.455 435.664C529.476 433.755 527.989 439.118 522.593 442.377C520.118 443.872 518.091 445.493 518.091 445.977C518.091 446.461 518.656 446.405 519.343 445.855C522.876 443.03 524.777 443.763 524.343 446.986C524.835 444.644 525.854 441.602 527.072 437.94C527.557 437.013 529.825 431.346 531.423 427.193ZM524.31 447.156C524.287 447.3 524.173 447.535 524.142 447.689H524.207C524.237 447.527 524.275 447.346 524.31 447.174L524.31 447.156Z" fill="#1B1B1F"/>
<path d="M423.886 261.207C421.265 262.928 418.644 264.334 416.023 264.711L415.996 264.82C416.183 264.768 416.36 264.65 416.545 264.643C417.364 264.605 418.092 265.043 418.092 265.961C418.092 272.842 453.461 331.186 464.973 343.295C468.119 346.605 463.252 359.549 458.816 359.666C456.807 359.719 456.758 359.837 458.307 360.889C461.073 362.767 448.243 386.543 433.365 407.108C429.386 412.608 424.843 418.909 423.27 421.109C421.696 423.309 415.787 432.535 410.137 441.61C404.486 450.685 398.71 459.343 397.301 460.85C395.891 462.357 395.084 463.931 395.506 464.35C396.434 465.27 399.011 462.209 408.342 449.108C412.259 443.608 422.418 429.772 430.918 418.36L446.371 397.61H455.291C460.983 397.61 463.986 397.247 463.592 396.61C463.252 396.06 463.65 395.608 464.475 395.608C465.3 395.608 466.26 396.07 466.607 396.633C466.956 397.178 468.444 397.457 469.916 397.215C471.388 396.973 473.407 396.737 474.402 396.692C475.396 396.647 475.967 396.219 475.672 395.741C474.753 394.253 464.941 393.732 457.242 394.762C446.959 396.137 446.971 396.005 458.863 375.754C469.533 357.586 478.857 337.055 487.316 313.11C490.036 305.41 492.924 297.245 493.734 294.967L495.207 290.822L514.9 290.182C536.026 289.495 547.314 287.896 532.342 287.711C527.577 287.65 524.092 287.187 524.092 286.609C524.092 286.143 524.566 285.809 525.15 285.7L525.107 285.698C510.244 290.151 499.254 288.715 489.504 285.395C488.392 288.298 487.395 291.337 486.619 294.126C484.374 302.199 480.259 314.014 477.572 320.104C476.359 322.855 474.097 328.367 472.545 332.354C469.403 340.42 469.269 340.53 466.431 337.354C464.502 335.194 458.092 325.038 458.092 324.139C458.092 323.901 456.813 321.768 455.248 319.403C444.198 302.704 435.865 289.155 433.801 284.528C432.47 281.545 430.44 277.079 429.287 274.604C428.134 272.129 426.026 266.969 424.605 263.139L423.886 261.207ZM601.874 289.458C604.193 291.04 595.239 292.611 580.94 292.611C577.041 292.611 574.091 293.04 574.091 293.609C574.091 294.16 573.303 294.627 572.341 294.627C571.378 294.627 569.916 295.121 569.091 295.707C568.02 296.47 573.979 296.613 589.915 296.211C608.32 295.746 612.863 295.904 615.788 297.126C619.719 298.769 635.604 299.207 636.536 297.699C636.846 297.198 640.929 296.47 645.61 296.08C650.291 295.69 654.367 294.976 654.665 294.492C654.711 294.416 655.953 294.382 656.314 294.318C656.209 294.318 656.105 294.28 656.001 294.269C637.498 296.459 619.654 294.208 602.177 289.474L601.874 289.458ZM552.843 295.613C544.459 295.613 534.585 296.9 536.634 297.701C539.155 298.687 542.033 298.739 550.343 297.954C557.792 297.251 559.553 295.613 552.843 295.613ZM733.394 318.602C681.525 318.692 573.366 320.346 568.343 321.539C562.313 322.969 574.347 323.455 605.843 323.052C626.606 322.788 645.799 322.605 648.497 322.642C651.514 322.684 653.722 322.209 654.232 321.406C654.907 320.345 655.077 320.351 655.077 321.444C655.092 322.788 670.205 323.025 672.593 321.72C673.143 321.417 678.318 321.115 684.093 321.044C707.254 320.76 759.655 319.439 760.593 319.114C761.717 318.726 750.683 318.574 733.394 318.612V318.602ZM561.772 321.33C558.914 321.239 554.444 321.33 547.784 321.519C546.153 321.572 545.238 322.032 545.605 322.622C546.446 323.984 566.773 323.472 566.091 322.107C565.876 321.676 564.631 321.42 561.772 321.33ZM542.091 321.606C541.541 321.606 541.093 322.056 541.093 322.606C541.093 323.156 541.541 323.606 542.091 323.606C542.641 323.606 543.093 323.156 543.093 322.606C543.093 322.056 542.641 321.606 542.091 321.606ZM832.097 324.873C831.6 325.678 830.965 330.214 830.351 338.213L829.755 345.988C830.913 345.936 832.058 345.868 833.093 345.69L833.003 333.909C832.95 326.993 832.593 324.068 832.097 324.873ZM776.091 326.901C767.016 326.863 756.216 327.184 752.091 327.574C741.465 328.578 768.74 328.647 782.593 327.654C791.958 326.981 791.543 326.939 776.091 326.901ZM560.806 327.928C558.154 327.966 554.099 328.177 549.093 328.594C548.818 328.632 549.17 329.001 549.876 329.449C551.455 330.451 562.035 329.702 564.093 328.445C564.703 328.071 563.457 327.89 560.806 327.928ZM588.843 327.928C588.156 328.204 588.716 328.432 590.091 328.432C591.468 328.432 592.03 328.205 591.343 327.928C590.655 327.652 589.531 327.652 588.843 327.928ZM735.843 333.633C727.069 333.871 714.864 334.15 713.593 334.266C711.393 334.466 703.293 334.999 695.593 335.453L681.593 336.279L700.593 336.488C718.909 336.688 733.573 337.755 734.792 338.974C735.165 339.348 735.205 339.734 735.021 340.11C735.396 338.18 735.668 336.015 735.843 333.633ZM600.431 337.706C579.456 337.626 557.46 337.766 555.236 338.211C549.006 339.457 553.402 340.478 563.372 340.104C568.994 339.892 587.722 339.619 604.989 339.498C622.257 339.377 637.782 338.943 639.49 338.536C641.358 338.089 621.405 337.785 600.431 337.706ZM550.281 338.971C548.653 338.797 545.74 338.929 542.517 339.471C538.379 340.166 529.841 340.704 523.542 340.662C512.586 340.594 508.513 341.761 514.839 343.156C516.352 343.489 518.015 343.866 518.536 343.99C519.057 344.115 525.582 344.066 533.036 343.873C540.49 343.68 547.039 343.593 547.589 343.677C550.827 344.175 586.412 344.58 585.946 344.114C585.372 343.54 562.513 342.095 553.839 342.095C549.299 342.091 547.674 341.263 550.339 340.311C552.252 339.629 551.908 339.144 550.281 338.971ZM716.38 340.092C711.555 340.368 711.161 340.56 713.509 341.481C716.065 342.483 719.397 342.179 719.822 340.905C720.024 340.296 718.615 339.963 716.38 340.092ZM735.013 340.164C734.373 341.322 731.371 342.356 727.603 342.48C724.576 342.578 719.787 343.101 716.96 343.637C714.133 344.173 708.394 344.644 704.206 344.686C700.019 344.727 694.566 345.116 692.091 345.552C689.121 346.078 694.11 346.335 706.759 346.373C723.992 346.411 733.68 347.507 732.622 349.281C733.459 346.544 734.339 343.615 735.013 340.164ZM507.343 340.608C505.2 340.608 504.922 340.838 506.091 341.592C508.048 342.856 510.093 342.856 510.093 341.592C510.093 341.042 508.855 340.608 507.343 340.608ZM414.032 342.591C413.449 342.591 413.253 343.041 413.593 343.592C413.933 344.142 414.412 344.592 414.653 344.592C414.897 344.592 415.093 344.142 415.093 343.592C415.093 343.041 414.615 342.591 414.032 342.591ZM409.759 342.765C408.834 342.716 407.396 342.837 405.343 343.124C402.18 343.57 397.893 344.02 395.816 344.122C393.738 344.224 391.713 344.661 391.316 345.089C390.918 345.52 393.743 345.583 397.593 345.236C401.443 344.889 406.056 344.6 407.843 344.596C409.631 344.592 411.093 344.077 411.093 343.451C411.093 343.044 410.683 342.818 409.759 342.765ZM516.343 346.689C511.443 346.629 508.093 346.996 508.093 347.59C508.093 348.763 518.43 348.763 522.093 347.59C523.809 347.041 522.007 346.757 516.343 346.689ZM503.12 346.905C499.988 347.383 499.491 348.592 502.427 348.592C503.893 348.592 505.093 348.145 505.093 347.598C505.093 347.052 504.206 346.738 503.12 346.905ZM525.907 346.907C525.119 347.225 525.35 347.459 526.511 347.508C527.565 347.554 528.154 347.316 527.821 346.985C527.489 346.652 526.629 346.624 525.907 346.907ZM496.386 346.964C496.208 347.043 496.093 347.238 496.093 347.53C496.093 348.113 496.541 348.591 497.091 348.591C497.641 348.591 498.093 348.391 498.093 348.15C498.093 347.908 497.641 347.433 497.091 347.093C496.816 346.922 496.567 346.884 496.386 346.964ZM515.091 357.591C513.925 357.591 513.253 358.04 513.593 358.591C513.933 359.141 514.606 359.591 515.091 359.591C515.576 359.591 516.253 359.141 516.593 358.591C516.933 358.04 516.255 357.591 515.091 357.591ZM502.161 357.765C498.572 357.708 494.987 357.954 494.616 358.55C494.194 359.236 496.741 359.587 502.093 359.587C506.558 359.587 509.99 359.229 509.718 358.791C509.341 358.181 505.75 357.822 502.161 357.765ZM443.532 358.878C435.149 358.674 417.515 359.284 410.593 360.243C408.393 360.55 401.868 360.88 396.093 360.982C390.318 361.084 384.018 361.509 382.093 361.929C377.24 362.989 373.641 363.338 366.093 363.49C362.204 363.569 360.12 363.953 360.905 364.451C361.627 364.909 364.327 365.132 366.905 364.951C369.484 364.769 379.693 364.197 389.593 363.681C399.493 363.164 411.494 362.866 416.263 363.017C421.031 363.168 427.556 362.934 430.763 362.498C433.969 362.061 439.18 361.421 442.343 361.073C445.505 360.726 448.093 359.961 448.093 359.37C448.093 359.106 446.327 358.946 443.532 358.878ZM487.343 358.916C486.38 359.169 487.168 359.373 489.093 359.373C491.017 359.373 491.806 359.165 490.843 358.916C489.881 358.667 488.306 358.667 487.343 358.916ZM557.843 361.942C557.156 362.221 557.717 362.447 559.093 362.447C560.467 362.447 561.03 362.217 560.343 361.942C559.655 361.666 558.531 361.666 557.843 361.942ZM575.941 362.879C574.362 363.091 575.387 363.278 578.593 363.281C581.884 363.281 583.314 363.104 581.847 362.879C580.361 362.668 577.733 362.668 575.941 362.879ZM434.843 362.94C434.155 363.219 434.718 363.445 436.093 363.445C437.467 363.445 438.03 363.215 437.343 362.94C436.655 362.664 435.53 362.664 434.843 362.94ZM528.179 365.154C527.497 365.154 526.97 365.324 526.667 365.628C526.035 366.262 527.081 366.572 529.644 366.515C533.547 366.428 533.558 366.421 530.616 365.543C529.696 365.267 528.861 365.154 528.179 365.154ZM522.093 365.601C520.929 365.601 520.253 366.052 520.593 366.601C520.933 367.151 521.608 367.602 522.093 367.602C522.578 367.602 523.253 367.151 523.593 366.601C523.933 366.052 523.258 365.601 522.093 365.601ZM515.321 365.662C514.814 365.662 514.062 365.976 513.093 366.601C511.88 367.383 512.024 367.588 513.843 367.588C515.08 367.588 516.093 367.151 516.093 366.601C516.093 365.976 515.829 365.662 515.321 365.662ZM495.653 366.601C494.796 366.601 494.091 367.052 494.091 367.602C494.091 368.152 494.515 368.602 495.032 368.602C495.55 368.602 496.253 368.152 496.593 367.602C496.933 367.052 496.511 366.601 495.653 366.601ZM292.093 368.602C291.543 368.602 291.093 369.051 291.093 369.601C291.093 370.151 291.543 370.602 292.093 370.602C292.643 370.602 293.091 370.151 293.091 369.601C293.091 369.051 292.643 368.602 292.093 368.602ZM302.091 368.602C298.176 368.602 295.192 368.953 295.456 369.38C296.15 370.502 307.95 370.639 308.634 369.532C308.968 368.991 306.227 368.602 302.091 368.602ZM349.903 370.92C349.106 371.241 349.346 371.476 350.511 371.525C351.566 371.571 352.156 371.332 351.823 371C351.491 370.667 350.625 370.633 349.903 370.92ZM300.032 380.602C298.899 380.602 298.253 381.052 298.593 381.601C298.933 382.151 299.861 382.601 300.653 382.601C301.446 382.601 302.091 382.151 302.091 381.601C302.091 381.052 301.165 380.602 300.032 380.602ZM381.21 387.228C376.881 387.519 372.823 389.24 369.388 392.445C366.728 394.926 363.787 396.621 361.388 397.056C359.301 397.435 356.58 397.986 355.343 398.285C353.722 398.674 353.303 398.285 353.2 396.9C353.07 398 352.903 399.039 352.786 400.16C354.901 400.073 359.737 400.069 360.849 399.963C365.415 399.532 368.295 398.585 371.513 396.454C381.008 390.165 388.971 391.728 398.859 401.825L404.124 407.202L401.56 418.561C398.068 434.028 397.386 435.052 388.593 438.016C384.269 439.474 371.591 440.373 361.808 440.429L364.21 444.319C396.535 442.984 405.645 435.067 408.769 408.69L409.39 403.465L403.491 397.461C396.392 390.234 388.425 386.744 381.21 387.228ZM487.548 394.623C486.277 394.623 485.091 394.876 485.091 395.436C485.091 396.925 486.092 397.326 488.605 396.846C489.96 396.585 490.825 395.975 490.522 395.488C490.176 394.925 488.819 394.623 487.548 394.623ZM480.905 395.92C480.108 396.241 480.346 396.476 481.511 396.525C482.565 396.57 483.154 396.332 482.821 396C482.489 395.667 481.627 395.632 480.905 395.92ZM330.759 398.363L333.593 399.523L315.177 399.565C305.048 399.603 297.098 399.943 297.511 400.356C298.071 400.916 318.695 400.839 337.214 400.541L330.759 398.363ZM469.942 399.066C469.417 398.991 468.442 399.006 467.093 399.119C464.618 399.331 461.13 399.515 459.343 399.552C457.555 399.59 456.093 400.097 456.093 400.701C456.093 401.925 467.472 400.996 470.095 399.558C470.544 399.313 470.467 399.142 469.942 399.066ZM293.091 399.633C290.467 399.633 289.968 399.875 291.093 400.602C291.918 401.135 292.815 401.572 293.091 401.572C293.366 401.572 294.268 401.135 295.093 400.602C296.218 399.875 295.716 399.633 293.091 399.633ZM283.343 399.912C282.38 400.162 283.168 400.371 285.093 400.371C287.017 400.371 287.805 400.167 286.843 399.912C285.88 399.659 284.305 399.659 283.343 399.912ZM454.343 407.887C452.83 408.118 454.068 408.303 457.093 408.303C460.119 408.303 461.355 408.118 459.843 407.887C458.33 407.656 455.855 407.656 454.343 407.887ZM493.343 408.913C492.38 409.162 493.168 409.371 495.093 409.371C497.017 409.371 497.805 409.167 496.843 408.913C495.88 408.659 494.305 408.659 493.343 408.913ZM473.532 410.053C471.841 409.803 469.291 409.849 466.333 410.257L460.593 411.052L465.093 411.577C473.17 412.519 475.02 412.528 475.575 411.63C476.056 410.852 475.224 410.306 473.532 410.053ZM453.927 410.204C453.285 410.147 452.573 410.664 452.343 411.352C451.844 412.848 455.889 413.025 458.091 411.601C459.315 410.81 459.179 410.603 457.343 410.467C456.106 410.376 454.569 410.261 453.927 410.204ZM463.343 425.885C461.83 426.116 463.068 426.303 466.093 426.303C469.119 426.303 470.356 426.114 468.843 425.885C467.33 425.655 464.855 425.655 463.343 425.885ZM405.019 477.883L417.058 482.079L418.843 480.934C414.342 480.012 409.778 478.982 405.019 477.883Z" fill="#1B1B1F"/>
<path d="M467.478 149.687C463.831 149.649 462.429 149.984 460.654 150.926C458.657 151.887 455.773 152.407 450.669 152.629C443.643 152.924 441.868 153.219 434.99 155.586C433.141 156.252 430.328 157.066 428.7 157.51C418.864 159.95 407.772 163.944 408.585 164.758C408.808 164.905 410.879 164.388 413.245 163.574C419.532 161.429 432.696 158.175 434.101 158.471C434.84 158.618 434.248 159.358 432.179 160.764C430.478 161.873 428.481 164.018 427.667 165.571C424.783 171.192 414.65 178.439 405.775 181.25C404.148 181.768 401.486 182.803 399.859 183.469C398.232 184.209 395.495 185.17 393.868 185.613C389.949 186.649 380.037 186.649 379.001 185.613C378.558 185.17 377.447 185.023 376.56 185.319C374.489 185.984 375.229 186.649 380.111 188.35C382.181 189.089 383.954 189.978 383.954 190.347C383.954 190.642 383.663 190.718 383.218 190.495C382.848 190.272 382.478 190.419 382.478 190.938C382.478 191.53 381.147 191.678 377.597 191.381C370.941 190.864 372.421 191.752 381.665 193.749C387.434 195.006 390.392 195.303 393.646 194.933C396.086 194.638 398.009 194.634 398.009 194.857C398.009 195.448 390.095 199.296 385.066 201.292C382.255 202.328 379.52 202.697 373.826 202.697C366.355 202.697 366.207 202.697 366.503 204.324C366.651 205.729 367.317 206.098 369.98 206.468L373.234 206.839L370.275 207.505C367.02 208.318 355.631 208.317 352.599 207.58C349.567 206.84 350.082 209.502 353.484 211.795C357.847 214.753 361.548 215.567 369.98 215.641C374.343 215.641 377.523 215.864 377.005 216.161C376.561 216.455 375.304 216.75 374.195 216.75C371.828 216.75 370.793 217.933 372.642 218.451C373.382 218.674 372.272 218.822 370.126 218.895C367.686 218.971 364.432 218.304 361.251 217.121C358.515 216.16 356.149 215.493 355.927 215.641C355.335 216.307 358.294 218.896 362.583 221.485C369.757 225.774 375.525 227.179 386.324 227.401C396.382 227.624 398.971 228.214 393.054 228.953C391.131 229.176 387.508 229.693 384.993 230.063C382.553 230.507 378.335 230.803 375.673 230.803C372.123 230.803 370.569 231.098 369.829 231.986C369.016 233.022 369.092 233.318 370.275 234.206C373.825 236.794 385.361 238.495 396.159 237.977C403.777 237.606 404.149 237.606 401.708 238.643C400.377 239.235 397.196 240.713 394.681 241.822C392.24 243.006 388.172 244.412 385.658 244.856C379.741 246.039 379.593 247.369 385.214 248.996C393.646 251.437 410.581 248.626 420.122 243.155C424.855 240.492 424.485 241.824 419.531 245.004C416.646 246.927 416.426 247.148 418.275 246.778C419.458 246.483 421.307 245.595 422.269 244.782C423.304 244.042 424.338 243.525 424.56 243.747C424.783 244.041 424.635 244.411 424.189 244.707C423.818 245.002 421.894 246.335 419.972 247.666C415.164 251.068 407.104 254.249 401.927 254.84C397.637 255.358 394.308 256.837 394.308 258.168C394.308 258.539 395.565 259.426 397.118 260.092C399.337 261.054 400.743 261.127 405.032 260.61C410.579 259.796 411.616 260.017 409.841 261.348C409.249 261.866 408.214 263.272 407.622 264.455C413.75 263.332 418.863 258.241 419.898 257.354C420.977 257.752 421.814 258.027 422.845 258.401L424.605 263.143C426.025 266.973 428.133 272.133 429.286 274.608C430.44 277.083 432.469 281.549 433.8 284.532C435.865 289.159 444.198 302.708 455.247 319.406C456.812 321.772 458.091 323.904 458.091 324.143C458.091 325.042 464.501 335.198 466.431 337.358C469.268 340.533 469.403 340.424 472.544 332.358C474.097 328.37 476.358 322.858 477.572 320.108C480.259 314.017 484.373 302.202 486.618 294.129C488.375 287.813 490.904 280.161 494.612 275.906C497.817 276.141 501.509 276.107 504.71 275.123C504.994 275.422 505.305 275.252 505.556 274.802C508.911 273.539 511.592 271.112 512.273 266.527C512.496 264.604 514.048 260.24 515.675 256.986C517.228 253.657 518.56 249.96 518.56 248.777C518.56 246.632 520.409 244.117 522.036 244.117C522.407 244.117 523.369 243.452 524.109 242.638C525.81 240.79 525.217 236.647 522.554 231.396L520.704 227.698L521.962 218.824C522.31 216.377 522.541 213.766 522.697 211.13C522.859 210.656 523.002 210.097 523.2 209.9C524.168 208.933 523.693 202.959 522.65 197.086C522.332 192.698 521.732 188.922 520.853 186.578C520.113 184.506 519.671 182.732 520.04 182.732C521.15 182.732 522.037 184.654 523.294 189.757C525.291 197.523 525.29 197.672 525.734 197.228C526.028 197.005 526.622 197.156 527.214 197.598C527.954 198.264 528.175 197.969 528.175 195.972C528.175 192.569 529.58 194.638 529.728 198.263C529.728 199.668 530.098 201.666 530.394 202.702C530.912 204.033 530.987 203.144 530.913 199.595C530.842 196.932 530.984 194.862 531.283 195.01C531.948 195.453 532.983 200.482 532.687 201.888C532.539 202.849 532.686 202.85 533.648 202.035C534.683 201.221 534.832 201.22 534.832 202.254C534.832 202.92 534.537 203.438 534.24 203.438C533.945 203.438 533.798 204.621 533.949 206.1C534.393 209.798 535.576 207.801 535.576 203.215C535.576 200.405 535.352 199.74 534.32 199.666C533.506 199.666 533.357 199.447 533.949 199.223C535.354 198.705 535.059 195.155 533.062 189.09C530.769 182.138 529.512 179.622 525.74 174.741C521.524 169.194 512.649 163.204 505.327 160.911C504.366 160.616 501.702 158.84 499.484 157.064C492.458 151.37 488.685 150.335 471.97 149.817C470.158 149.741 468.693 149.698 467.478 149.687Z" fill="#DFDFD6"/>
</svg>
