<svg width="212" height="212" viewBox="0 0 212 212" fill="none" xmlns="http://www.w3.org/2000/svg">
<g clip-path="url(#clip0_498_97)">
<path fill-rule="evenodd" clip-rule="evenodd" d="M57.8265 108.093L57.034 107.3L56.2415 106.751L55.2416 106.302L54.381 106.128L54.3469 106.097L53.347 106.028L52.2775 106.128L51.2451 106.407L50.3489 106.82L49.3846 107.509L48.5921 108.267L48.0055 109.095L47.4885 110.027L47.0411 111.266L46.8678 112.334L46.7656 113.505L46.8338 114.68L47.0426 115.918L47.4544 117.09L48.041 118.125L48.7298 119.02L49.4201 119.712L50.2126 120.297L51.0732 120.71L52.039 120.986L53.1071 121.09L54.1751 121.055L54.3484 121.021L55.209 120.815L56.1037 120.469L56.8962 119.953L57.6887 119.161L57.862 120.608H61.8926V100.962H57.8279L57.8265 108.093ZM57.7213 114.16L57.4813 115.228L57.2043 115.986L56.8251 116.64L56.3437 117.123L55.7571 117.502L55.0683 117.745L54.5498 117.811L54.3439 117.777H54.2047H53.861L53.5174 117.677L52.8626 117.398L52.242 117.019L51.7606 116.503L51.4139 115.915L51.1043 115.123L50.9666 114.228L50.9325 113.296L51.0362 112.264L51.2436 111.368L51.5191 110.679L51.9324 110.126L52.3812 109.647L53.0004 109.267L53.7248 109.058L54.3454 109.024L54.5513 108.99L55.3438 109.164L56.0341 109.473L56.6548 109.922L57.1036 110.541L57.4132 111.23L57.585 111.922L57.7228 113.024L57.7213 114.16Z" fill="white"/>
<path fill-rule="evenodd" clip-rule="evenodd" d="M45.0412 111.541L44.6279 110.436L44.2146 109.611L43.7658 108.919L43.2147 108.23L42.6282 107.712L41.9394 107.232L41.0772 106.749L40.1144 106.405L39.1486 106.162L38.0806 106.062H37.7369H37.014L35.9786 106.198L34.9461 106.477L33.9463 106.856L32.9819 107.509L32.2235 108.094L31.5703 108.82L31.0874 109.648L30.6741 110.507L30.3986 111.403L30.1556 112.679L30.123 113.747L30.1912 114.779L30.4 115.781L30.7793 116.779L31.2607 117.675L31.9154 118.604L32.6738 119.327L33.5004 119.913L34.4307 120.396L35.3965 120.775L36.4289 121.051L37.4969 121.19H37.7399H38.5664L39.6359 121.051L40.6684 120.811L41.6683 120.432L42.5985 119.913L43.5643 119.121L44.2176 118.398L44.7005 117.606L44.9405 117.087L45.1478 116.607L41.0121 116.26L40.7025 116.813L40.2196 117.296L39.7041 117.675L39.0819 117.951L38.3931 118.09L37.7399 118.124H37.7058L36.9814 118.02L36.3267 117.777L35.7416 117.398L35.1891 116.952L34.7077 116.26L34.4307 115.607L34.2929 114.954L34.2603 114.61H37.7414H45.3908V113.714L45.2871 112.612L45.0412 111.541ZM37.7354 111.886H34.4262L34.5655 111.23L34.841 110.645L35.1846 110.092L35.7031 109.647L36.2897 109.3L36.9444 109.094L37.7369 108.99H37.805L38.4953 109.06L39.1145 109.269L39.7011 109.612L40.1825 110.026L40.5943 110.575L40.9054 111.162L41.0076 111.677L41.0417 111.886H37.7354Z" fill="white"/>
<path fill-rule="evenodd" clip-rule="evenodd" d="M39.1473 104.89L43.2831 101.031H39.008L37.7356 103.166L36.7017 104.89H37.7356H39.1473Z" fill="white"/>
<path fill-rule="evenodd" clip-rule="evenodd" d="M63.9951 120.604H68.0257V106.475H63.9951V120.604Z" fill="white"/>
<path fill-rule="evenodd" clip-rule="evenodd" d="M28.0521 106.302L27.3278 106.475L26.639 106.82L26.0183 107.266L25.5354 107.783L25.1902 108.336L25.0525 108.681L24.9162 106.611H20.9863V120.604L24.9843 120.638V114.021L25.0525 113.262L25.2258 112.47L25.5354 111.713L26.0183 110.989L26.639 110.335L27.3278 109.922L28.0166 109.679L28.775 109.577L29.4638 109.612H29.6356V106.302L28.8105 106.232L28.0521 106.302Z" fill="white"/>
<path fill-rule="evenodd" clip-rule="evenodd" d="M14.8885 114.679L14.613 115.366L14.2338 115.985L13.7509 116.538L13.0621 117.053L12.3036 117.432L11.5112 117.709L10.7187 117.812H9.89062L9.02998 117.641L8.09825 117.332L7.30576 116.952L6.61695 116.434L5.92815 115.745L5.34304 114.953L4.96234 114.16L4.68682 113.332L4.51499 112.332L4.37723 111.229L4.34316 110.092L4.44685 108.955L4.79199 107.749L5.27342 106.681L5.82446 105.785L6.54733 104.96L7.37538 104.304L8.20342 103.924L9.02998 103.718L9.92617 103.579L10.9246 103.649L11.8222 103.855L12.6132 104.198L13.3035 104.613L13.9227 105.166L14.3715 105.819L14.6811 106.475L14.8544 107.094L18.8851 106.921L18.7488 106.097L18.4377 105.166L18.0229 104.304L17.4719 103.476L16.8186 102.753L16.0261 102.098L15.1981 101.511L14.2338 101.098L13.2339 100.753L12.0963 100.479L10.9601 100.34L9.75286 100.304L8.58115 100.443L7.37538 100.683L6.13405 101.063L5.03197 101.581L3.9995 102.2L3.06777 102.926L2.20713 103.819L1.4813 104.751L0.931736 105.718L0.484384 106.751L0.208863 107.819L0.0355514 108.921L0 110.092L0.0355514 111.403L0.139242 112.679L0.448833 113.951L0.828045 115.193L1.44871 116.469L2.17158 117.536L2.99963 118.434L3.92988 119.226L4.99641 119.949L6.03184 120.502L7.13541 120.878L8.27156 121.156L9.44327 121.26H10.5809L11.7867 121.121L12.9584 120.847L14.096 120.502L15.1285 119.985L16.1284 119.362L17.0586 118.638L17.8511 117.776L18.5058 116.778L18.8851 115.85L19.128 114.883L19.2643 114.056H15.0248L14.8885 114.679Z" fill="white"/>
<path fill-rule="evenodd" clip-rule="evenodd" d="M75.8478 102.133H71.8498V106.611H69.6782V109.164H71.8172V116.743L71.8498 117.502L71.9876 118.225L72.2646 118.881L72.6423 119.5L73.1593 120.053L73.7799 120.398L74.331 120.604L74.9191 120.638H78.569V117.776H77.0877L76.6744 117.675L76.3307 117.466L76.0552 117.192L75.8819 116.813L75.8478 116.469V109.164H78.6045V106.577H75.8478V102.133Z" fill="white"/>
<path fill-rule="evenodd" clip-rule="evenodd" d="M63.9951 104.372H68.0613V100.962H63.9951V104.372Z" fill="white"/>
<path fill-rule="evenodd" clip-rule="evenodd" d="M185.707 114.4V114.849L185.605 115.401L185.397 115.951L185.052 116.503L184.603 116.952L184.054 117.331L183.397 117.571L182.744 117.641L182.089 117.571L181.467 117.365L180.953 116.986L180.605 116.537L180.435 116.124L180.365 115.711L180.331 115.296V106.542H176.231V116.917L176.301 117.605L176.506 118.294L176.85 118.947L177.333 119.5L177.988 120.053L178.675 120.501L179.436 120.811L180.262 121.017L181.398 121.121L182.295 121.051L183.192 120.847L184.02 120.534L184.913 119.949L185.431 119.396L185.671 119.053L185.914 120.638H189.739V106.577H185.707V114.4Z" fill="white"/>
<path fill-rule="evenodd" clip-rule="evenodd" d="M207.97 120.604H212V100.996H207.97V120.604Z" fill="white"/>
<path fill-rule="evenodd" clip-rule="evenodd" d="M172.094 102.133H168.133V106.611H165.926V109.164H168.099V116.743V117.502L168.238 118.225L168.512 118.881L168.891 119.5L169.441 120.053L170.063 120.398L170.613 120.604L171.165 120.638H174.817V117.776H173.369L172.956 117.675L172.577 117.466L172.303 117.192L172.129 116.813L172.094 116.469V109.164H174.851V106.577H172.094V102.133Z" fill="white"/>
<path fill-rule="evenodd" clip-rule="evenodd" d="M206.075 111.953L205.796 110.954L205.317 109.922L204.73 109.026L204.041 108.164L203.283 107.441L202.524 106.922L201.662 106.509L200.733 106.234L199.768 106.063L198.666 106.029H198.631L197.46 106.13L196.392 106.303L195.359 106.647L194.463 107.13L193.705 107.679L193.013 108.336L192.428 109.094L191.909 109.922L191.496 110.954L191.186 111.953L191.016 112.988V114.021L191.152 115.056L191.431 116.019L191.841 116.985L192.36 117.948L193.048 118.81L193.807 119.568L194.703 120.153L195.599 120.636L196.528 120.98L197.563 121.189L198.562 121.258H198.666L199.594 121.224L200.63 121.051L201.698 120.741L202.696 120.328L203.628 119.81L204.456 119.156L205.179 118.328L205.662 117.57L205.971 116.812L206.041 116.606L201.973 116.293L201.63 116.88L201.15 117.363L200.563 117.742L199.91 117.982L199.218 118.121H198.668H198.529L197.84 118.017L197.048 117.674L196.463 117.33L195.944 116.847L195.565 116.26L195.29 115.607L195.186 114.954V114.641H198.667H206.316V113.919L206.282 112.99L206.075 111.953ZM198.666 111.92H195.324L195.46 111.229L195.703 110.679L196.047 110.126L196.527 109.678L197.113 109.334L197.732 109.128L198.491 108.989L198.664 109.023H199.18L199.802 109.196L200.421 109.436L200.939 109.815L201.283 110.195L201.558 110.608L201.767 111.091L201.941 111.64L201.972 111.919H198.666V111.92Z" fill="white"/>
<path fill-rule="evenodd" clip-rule="evenodd" d="M160.62 114.4L160.586 114.849L160.519 115.401L160.276 115.951L159.967 116.503L159.518 116.952L158.93 117.331L158.276 117.571L157.623 117.641L157.001 117.571L156.346 117.365L155.863 116.986L155.52 116.537L155.348 116.124L155.28 115.711L155.244 115.296V106.542H151.146V116.917L151.211 117.605L151.42 118.294L151.765 118.947L152.248 119.5L152.901 120.053L153.59 120.501L154.348 120.811L155.175 121.017L156.312 121.121L157.174 121.051L158.071 120.847L158.93 120.534L159.827 119.949L160.346 119.396L160.586 119.053L160.829 120.638H164.618V106.577H160.62V114.4Z" fill="white"/>
<path fill-rule="evenodd" clip-rule="evenodd" d="M138.704 115.262L134.431 100.996H128.159V120.604H132.157V106.542L136.636 120.604H140.874L145.321 106.475V120.604H149.352V100.996L143.078 100.962L138.704 115.262Z" fill="white"/>
<path fill-rule="evenodd" clip-rule="evenodd" d="M115.992 103.684H115.958L116.028 103.958L116.062 104.234L116.096 104.82L116.062 105.339L115.958 105.923L115.856 106.475L115.649 106.991L115.409 107.543L115.133 108.023L114.79 108.509L114.407 108.921L113.996 109.334L113.615 109.612L113.133 109.922L112.616 110.232L112.064 110.472L111.514 110.645L110.926 110.784L110.343 110.885H110.168L109.894 110.506L109.688 110.3L109.275 109.817L108.826 109.404L108.309 109.024L107.793 108.681L107.241 108.371L106.656 108.093L106.034 107.888L105.277 107.679L104.622 107.579L104 107.543L103.76 107.509L103.622 107.164L103.416 106.647L103.243 106.062L103.176 105.543L103.107 104.96L103.141 104.372L103.207 103.819L103.347 103.27L103.486 102.717L103.76 102.2L104.035 101.719L104.382 101.271L104.761 100.822L105.171 100.409L105.656 100.03L106.139 99.7204L106.688 99.4108L107.241 99.2019L107.793 98.9975L108.377 98.8583L108.996 98.7561H109.894L110.48 98.7887L111.066 98.8923L111.649 99.0316L112.203 99.2375L112.756 99.4804L113.236 99.79L113.753 100.134L113.822 100.169L108.137 91L99.1426 91.0696L93.6633 99.9263L94.0425 99.6848L94.595 99.4108L95.1461 99.2019L95.7312 98.9975L96.3178 98.8923L96.9384 98.7887L97.5221 98.7561L98.1442 98.7887L98.7293 98.8923L99.3159 98.9975L99.901 99.2019L100.454 99.4108L100.969 99.6848L101.452 99.9944L101.899 100.34L102.314 100.753L102.693 101.202L102.797 101.305L102.658 101.615L102.418 102.167L102.175 102.753L102.039 103.339L101.935 103.924L101.865 104.543V105.13L101.935 105.749L102.039 106.371L102.209 106.957L102.484 107.679L102.761 108.232L102.797 108.336L102.554 108.645L102.348 108.854L101.969 109.233L101.522 109.612L101.037 109.956L100.522 110.232L99.9706 110.472L99.4537 110.679L98.8686 110.784L98.2479 110.885L97.6968 110.919L97.0762 110.885L96.4896 110.815L95.9045 110.679L95.352 110.506L94.5595 110.162L94.0425 109.887L93.5611 109.577L93.1137 109.198L92.699 108.784L92.3212 108.336L91.9761 107.853L91.6991 107.37L91.4236 106.751L91.2858 106.232L91.1495 105.683L91.114 105.096L91.0799 104.543L91.114 104.234V104.132L85.6006 113.194L89.9082 120.638L101.727 120.604L101.384 120.502L101.107 120.398L100.556 120.155L100.04 119.879L99.5559 119.536L99.1085 119.156L98.6938 118.743L98.3145 118.294L98.0064 117.811L97.6968 117.332L97.4895 116.778L97.3176 116.228L97.1784 115.502L97.1429 114.918L97.1784 114.366L97.2125 113.815L97.3176 113.262L97.4895 112.71L97.7309 112.16L97.7991 112.023L98.1783 111.987H98.4893L99.1085 111.886L99.7633 111.713L100.35 111.541L100.935 111.298L101.522 110.989L102.039 110.679L102.554 110.3L103.207 109.713L103.622 109.267L104 108.784L104.105 108.681H104.175L104.518 108.715L105.071 108.819L105.69 108.955L106.242 109.164L106.792 109.404L107.31 109.713L107.759 110.057L108.207 110.405L108.586 110.815L108.965 111.264L109.275 111.747L109.549 112.265L109.755 112.78L109.928 113.332L110.033 113.885L110.103 114.434V114.883L110.067 115.471L109.963 115.985L109.79 116.538L109.584 117.087L109.344 117.571L108.965 118.225L108.586 118.638L108.242 119.053L107.759 119.432L107.31 119.776L106.792 120.085L106.242 120.328L105.69 120.534L105.551 120.568H116.924L121.577 112.748L115.992 103.684Z" fill="white"/>
</g>
<defs>
<clipPath id="clip0_498_97">
<rect width="212" height="212" fill="white"/>
</clipPath>
</defs>
</svg>
