<svg width="212" height="212" viewBox="0 0 212 212" fill="none" xmlns="http://www.w3.org/2000/svg">
<path d="M112.638 18.0906C109.602 18.4015 106.664 19.8148 104.771 21.8854C104.094 22.6203 100.527 27.8638 97.724 32.238C89.1371 45.6223 83.0853 56.9855 80.0488 65.409C78.347 70.1154 77.5985 74.1999 78.121 75.8606C78.4388 76.864 79.2579 77.9099 80.1195 78.4187C80.529 78.6519 97.1379 85.1038 97.1944 85.0472C97.2156 85.0331 97.2579 84.708 97.2933 84.3264C98.183 74.4826 109.7 55.3531 127.602 33.9906C132.75 27.8426 134.148 26.3939 135.694 25.5883C136.407 25.2138 136.951 25.0442 137.707 24.9452C138.575 24.8322 138.688 24.8039 138.618 24.7332C138.582 24.6979 137.996 24.4364 137.318 24.1467C131.669 21.7511 125.01 19.7724 118.994 18.6983C115.752 18.1188 114.022 17.9563 112.638 18.0906Z" fill="#001EA4"/>
<path d="M99.5738 18.557C94.7437 19.3273 81.5738 22.0126 79.879 22.5709C78.0783 23.1645 76.6731 24.0125 75.4585 25.228C73.2129 27.4752 69.675 33.7292 66.8998 40.3506C63.7292 47.9049 61.0811 56.6746 59.817 63.7837C59.1886 67.31 59.0544 69.1261 59.3439 70.0306C59.7888 71.4086 60.9751 72.3202 63.3267 73.1046C65.2968 73.7548 74.1591 76.3695 74.8512 76.4967C75.176 76.5603 75.1831 76.4613 74.8794 76.1221C74.145 75.2812 73.799 73.5286 73.9685 71.55C74.3569 67.098 76.4471 60.6885 80.1897 52.4346C85.5071 40.7252 93.4938 27.037 98.5216 21.0233C99.3055 20.0834 100.52 18.8962 100.993 18.5924L101.339 18.3733L100.986 18.3804C100.795 18.3804 100.16 18.4652 99.5738 18.557Z" fill="#001EA4"/>
<path d="M67.3375 25.977C61.2928 28.1889 59.4286 28.938 57.1335 30.0757C55.813 30.7258 54.2736 31.6162 53.6875 32.0756C52.826 32.7328 51.6467 34.0472 50.9193 35.1566C50.1991 36.259 49.9519 36.8668 48.8079 40.393C46.5835 47.283 45.7008 50.3288 44.9947 53.636C44.1402 57.6357 43.66 62.2432 43.9566 63.6353C44.4933 66.1864 46.181 68.2569 48.5043 69.2109C48.7585 69.3169 52.5011 70.3345 54.8738 70.9493C55.4953 71.1118 56.0602 71.2602 56.1308 71.2744C56.3144 71.3309 56.272 71.1754 56.0531 70.9846C55.1351 70.2144 54.9939 67.2676 55.6506 62.9852C56.8581 55.1977 60.4596 44.0253 64.6541 35.0506C66.1653 31.8141 67.9378 28.5493 69.5266 26.0689C69.8797 25.5318 70.1622 25.0725 70.1622 25.0513C70.1622 24.9594 69.7314 25.1008 67.3375 25.977Z" fill="#001EA4"/>
<path d="M143.144 28.415C141.252 28.6624 139.62 29.5033 137.58 31.2912C136.718 32.0473 136.181 32.648 134.416 34.8033C127.912 42.7674 120.858 51.9612 115.632 59.2893C104.27 75.1964 99.6023 84.7152 101.996 87.1037C102.109 87.2168 103.119 87.7962 104.242 88.3969C110.089 91.5133 113.45 93.4566 117.122 95.8452C119.41 97.3362 119.297 97.2656 119.445 97.1949C119.523 97.1596 120.031 96.5094 120.589 95.7533C127.602 86.1356 134.811 77.2881 141.661 69.8893C143.645 67.7481 148.652 62.752 150.523 61.0418C156.646 55.4592 161.85 51.6078 166.85 48.9578C168.396 48.1452 168.389 48.1452 168.389 47.9897C168.389 47.912 168.128 47.495 167.817 47.0498C164.844 42.9158 160.953 38.7677 156.738 35.2414C154.252 33.1638 149.86 30.0474 148.37 29.3054C146.774 28.514 144.902 28.196 143.144 28.415Z" fill="#001EA4"/>
<path d="M154.789 72.2284C148.179 75.6275 139.253 83.4291 127.926 95.718C126.846 96.884 125.066 98.8415 123.965 100.064C122.093 102.142 121.924 102.304 121.472 102.537C121.027 102.763 120.935 102.785 120.37 102.785H119.756L116.868 101.357C113.443 99.6683 111.741 98.898 109.001 97.8027C103.458 95.5837 98.0486 93.9584 92.5477 92.856C90.408 92.4249 87.6257 91.9727 86.6865 91.8949L86.1569 91.8525L85.2883 92.4249C81.5386 94.8912 77.9231 98.5871 74.9502 102.997C74.1593 104.17 73.2342 105.703 73.2836 105.76C73.3048 105.781 73.8768 105.936 74.5477 106.113C85.9309 109.06 98.2958 115.561 113.252 126.451C115.004 127.723 115.583 128.09 116.402 128.437C117.207 128.776 117.736 128.896 118.428 128.896C119.678 128.896 120.617 128.479 122.913 126.917C133.06 120.02 143.017 113.879 151.477 109.3C153.2 108.367 157.324 106.261 158.778 105.576C159.541 105.216 159.59 105.173 159.718 104.883C160.198 103.809 160.664 100.976 160.953 97.414C161.123 95.294 161.13 89.2732 160.953 87.1673C160.424 80.7084 159.287 76.3412 157.387 73.4439C156.942 72.7725 156.01 71.7267 155.855 71.7267C155.805 71.7267 155.325 71.9528 154.789 72.2284Z" fill="#FF295B"/>
<path d="M38.8089 156.986V166.632H36.4433H34.0776V171.579V176.525H36.4433H38.8089V185.182V193.839H44.5994H50.3899V185.217V176.596L60.3679 176.582L70.3389 176.561L70.3601 171.685C70.3672 168.999 70.3601 166.738 70.3389 166.646L70.3036 166.491H60.3468H50.3899V162.039V157.587L62.9101 157.572L75.4233 157.551L75.4444 152.442L75.4586 147.34H57.1337H38.8089V156.986Z" fill="black"/>
<path d="M87.7459 156.986V166.632H85.3803H83.0146V171.579V176.525H85.3803H87.7459V185.182V193.839H93.5364H99.3269V185.217V176.596L109.305 176.582L119.276 176.561L119.297 171.685C119.304 168.999 119.297 166.738 119.276 166.646L119.241 166.491H109.284H99.3269V162.039V157.587L111.847 157.572L124.36 157.551L124.381 152.442L124.396 147.34H106.071H87.7459V156.986Z" fill="black"/>
<path d="M133.152 170.483V193.627H138.907H144.662V185.182V176.737L147.466 176.751L150.276 176.773L157.197 185.196L164.117 193.62H171.129C176.715 193.627 178.134 193.605 178.085 193.542C178.057 193.492 173.841 188.32 168.721 182.044C163.601 175.776 159.379 170.589 159.336 170.519C159.273 170.42 160.572 168.66 167.909 158.958C172.661 152.668 176.581 147.474 176.609 147.425C176.651 147.361 175.281 147.34 169.858 147.34H163.058L156.66 156.618L150.269 165.89L147.466 165.911L144.662 165.925V156.633V147.34H138.907H133.152V170.483Z" fill="black"/>
</svg>
