<svg width="212" height="212" viewBox="0 0 212 212" fill="none" xmlns="http://www.w3.org/2000/svg">
<g clip-path="url(#clip0_496_28)">
<path d="M44.3825 135.31H39.1198C37.9875 135.31 37.1186 134.577 37.1186 133.445V132.711C37.1186 131.579 37.9875 130.845 39.1198 130.845H42.4489C45.6502 130.845 46.8464 129.047 46.8464 126.647V119.188C46.8464 118.586 46.4477 117.92 45.9135 117.92C43.7166 117.92 40.6508 120.85 35.5875 120.85H34.5869C29.392 120.85 25.9951 117.92 25.9951 112.988V96.7338C25.9951 91.8699 29.9261 89.0712 33.5224 89.0712H48.5806C49.7129 89.0712 50.578 89.8047 50.578 90.937V91.6705C50.578 92.8028 49.7129 93.5364 48.5806 93.5364H34.523C32.6571 93.5364 30.923 94.9997 30.923 97.2642V112.191C30.923 114.391 32.7249 116.19 34.9217 116.19H42.8514C45.0483 116.19 46.8464 114.391 46.8464 112.191V104.728C46.8464 103.595 47.7154 102.73 48.8477 102.73H49.7806C50.8451 102.73 51.778 103.595 51.778 104.728V127.847C51.778 131.914 48.4452 135.31 44.3825 135.31Z" fill="black"/>
<path d="M82.2267 106.86H65.235V112.123C65.235 114.591 66.6344 116.19 69.5685 116.19H78.7622C79.8945 116.19 80.7597 116.923 80.7597 118.055V118.785C80.7597 119.917 79.8945 120.651 78.7622 120.651H67.5673C63.704 120.651 60.3071 117.186 60.3071 113.056V96.3991C60.3071 92.3364 63.8394 89.0712 67.9698 89.0712H78.4274C82.5615 89.0712 86.0901 92.3364 86.0901 96.3991V102.862C86.0901 105.728 84.2919 106.86 82.2267 106.86ZM81.1584 97.1326C81.1584 95.0674 79.4957 93.5364 77.5622 93.5364H68.835C66.9015 93.5364 65.235 95.0674 65.235 97.1326V102.73H81.1584V97.1326Z" fill="black"/>
<path d="M117.138 120.652H116.205C115.073 120.652 114.208 119.787 114.208 118.655V97.5325C114.208 95.3319 112.409 93.5338 110.209 93.5338H102.279C100.082 93.5338 98.2842 95.3319 98.2842 97.5325V118.655C98.2842 119.787 97.3513 120.652 96.2829 120.652H95.35C94.2177 120.652 93.3525 119.787 93.3525 118.655V90.7388C93.3525 89.7382 94.0184 89.0723 94.8873 89.0723H95.8165C96.7494 89.0723 97.1519 89.6027 97.3513 90.0053L98.0171 91.2015C98.3481 91.8034 98.6152 91.935 99.1494 91.935C101.414 91.935 104.48 88.8692 109.543 88.8692H110.544C115.739 88.8692 119.139 91.8711 119.139 96.735V118.655C119.139 119.787 118.206 120.652 117.138 120.652Z" fill="black"/>
<path d="M150.918 120.652H149.985C149.387 120.652 148.785 120.186 148.521 119.719L147.852 118.587C147.453 117.921 147.186 117.921 146.652 117.921C144.455 117.921 141.389 120.851 136.326 120.851H135.329C129.596 120.851 126.733 117.319 126.733 112.989V108.46C126.733 104.131 129.596 100.598 135.329 100.598H136.326C141.389 100.598 144.455 103.66 146.652 103.66C147.186 103.66 147.588 103.13 147.588 102.464V97.7995C147.588 95.2002 146.121 93.5337 143.255 93.5337H131.462C130.33 93.5337 129.397 92.8002 129.397 91.6679V90.9381C129.397 89.8058 130.33 89.0723 131.398 89.0723H144.989C149.119 89.0723 152.516 92.6008 152.516 96.4002V118.986C152.516 119.855 151.918 120.652 150.918 120.652ZM147.588 108.66C147.588 106.794 146.054 105.263 144.12 105.263H135.126C133.196 105.263 131.661 106.794 131.661 108.66V112.79C131.661 114.656 133.196 116.187 135.126 116.187H144.12C146.054 116.187 147.588 114.656 147.588 112.79V108.66Z" fill="black"/>
<path d="M178.7 120.652H162.243C161.11 120.652 160.245 119.919 160.245 118.786V118.053C160.245 116.92 161.11 116.187 162.243 116.187H177.767C180.032 116.187 180.634 113.855 180.634 112.391V109.724C180.634 108.524 180.032 106.862 177.767 106.862H166.839C163.574 106.862 160.313 104.131 160.313 100.132V96.0015C160.313 93.2704 162.976 89.0723 167.908 89.0723H181.032C182.165 89.0723 183.098 89.8059 183.098 90.9382V91.6679C183.098 92.8002 182.165 93.5338 181.1 93.5338H169.04C166.576 93.5338 165.241 94.9331 165.241 96.9344V99.3983C165.241 100.929 166.508 102.731 168.905 102.731H179.633C182.763 102.731 185.562 104.729 185.562 108.724V113.189C185.562 117.853 182.831 120.652 178.7 120.652Z" fill="black"/>
<path d="M123.648 146.031H123.279C122.835 146.031 122.497 145.692 122.497 145.245V136.946C122.497 136.081 121.79 135.378 120.924 135.378H117.81C116.944 135.378 116.241 136.081 116.241 136.946V145.245C116.241 145.692 115.872 146.031 115.455 146.031H115.09C114.642 146.031 114.304 145.692 114.304 145.245V134.276C114.304 133.884 114.563 133.621 114.906 133.621H115.27C115.635 133.621 115.793 133.832 115.872 133.99L116.136 134.46C116.267 134.697 116.373 134.75 116.58 134.75C117.471 134.75 118.675 133.546 120.665 133.546H121.056C123.099 133.546 124.434 134.719 124.434 136.634V145.245C124.434 145.692 124.065 146.031 123.648 146.031Z" fill="black"/>
<path d="M136.291 145.938H135.922C135.689 145.938 135.452 145.754 135.346 145.573L135.087 145.126C134.929 144.866 134.823 144.866 134.617 144.866C133.751 144.866 132.548 146.017 130.558 146.017H130.163C127.913 146.017 126.785 144.629 126.785 142.929V141.149C126.785 139.445 127.913 138.057 130.163 138.057H130.558C132.548 138.057 133.751 139.265 134.617 139.265C134.823 139.265 134.981 139.054 134.981 138.791V136.959C134.981 135.939 134.406 135.285 133.277 135.285H128.647C128.199 135.285 127.834 134.995 127.834 134.551V134.262C127.834 133.818 128.199 133.528 128.62 133.528H133.958C135.583 133.528 136.919 134.916 136.919 136.41V145.284C136.919 145.626 136.682 145.938 136.291 145.938ZM134.981 141.225C134.981 140.495 134.38 139.889 133.62 139.889H130.087C129.328 139.889 128.726 140.495 128.726 141.225V142.85C128.726 143.583 129.328 144.185 130.087 144.185H133.62C134.38 144.185 134.981 143.583 134.981 142.85V141.225Z" fill="black"/>
<path d="M148.904 135.284H145.447V145.154C145.447 145.598 145.082 145.937 144.664 145.937H144.296C143.852 145.937 143.513 145.598 143.513 145.154V135.284H140.083C139.635 135.284 139.27 134.994 139.27 134.55V134.26C139.27 133.817 139.635 133.531 140.056 133.531H148.877C149.325 133.531 149.69 133.817 149.69 134.26V134.55C149.69 134.994 149.325 135.284 148.904 135.284Z" fill="black"/>
<path d="M161.624 145.938H161.18C160.996 145.938 160.733 145.806 160.605 145.573L160.341 145.099C160.236 144.892 160.082 144.866 159.871 144.866C159.006 144.866 157.829 146.017 155.812 146.017H155.421C153.589 146.017 152.043 144.866 152.043 142.929V134.314C152.043 133.87 152.385 133.528 152.829 133.528H153.194C153.612 133.528 153.98 133.87 153.98 134.314V142.613C153.98 143.478 154.687 144.185 155.553 144.185H158.667C159.529 144.185 160.236 143.478 160.236 142.613V134.314C160.236 133.87 160.578 133.528 161.022 133.528H161.387C161.805 133.528 162.173 133.87 162.173 134.314V145.31C162.173 145.648 161.94 145.938 161.624 145.938Z" fill="black"/>
<path d="M173 135.284H168.735C167.711 135.284 167.057 135.938 167.057 136.958V145.154C167.057 145.598 166.692 145.937 166.274 145.937H165.906C165.462 145.937 165.12 145.598 165.12 145.154V134.159C165.12 133.764 165.462 133.531 165.722 133.531H166.116C166.35 133.531 166.587 133.685 166.692 133.896L166.952 134.366C167.031 134.497 167.11 134.655 167.399 134.655C168.106 134.655 168.603 133.531 170.251 133.531H173C173.444 133.531 173.787 133.817 173.787 134.26V134.55C173.787 134.994 173.444 135.284 173 135.284Z" fill="black"/>
<path d="M184.157 140.519H177.48V142.588C177.48 143.555 178.033 144.183 179.184 144.183H182.795C183.239 144.183 183.581 144.473 183.581 144.917V145.206C183.581 145.65 183.239 145.94 182.795 145.94H178.398C176.878 145.94 175.542 144.578 175.542 142.953V136.411C175.542 134.813 176.931 133.53 178.556 133.53H182.663C184.289 133.53 185.677 134.813 185.677 136.411V138.947C185.677 140.075 184.969 140.519 184.157 140.519ZM183.736 136.697C183.736 135.885 183.085 135.283 182.325 135.283H178.894C178.134 135.283 177.48 135.885 177.48 136.697V138.894H183.736V136.697Z" fill="black"/>
<path d="M101.519 78.1166H93.3784V66.4928C93.3784 66.0489 93.717 65.7066 94.1609 65.7066H94.5295C94.9471 65.7066 95.3157 66.0489 95.3157 66.4928V76.3636H101.519C101.963 76.3636 102.305 76.6495 102.305 77.0971V77.383C102.305 77.8269 101.963 78.1166 101.519 78.1166Z" fill="black"/>
<path d="M115.158 78.1166H114.789C114.556 78.1166 114.323 77.9322 114.214 77.7517L113.954 77.304C113.796 77.0445 113.691 77.0445 113.484 77.0445C112.619 77.0445 111.415 78.1956 109.425 78.1956H109.034C106.781 78.1956 105.656 76.8075 105.656 75.1072V73.3279C105.656 71.6238 106.781 70.2357 109.034 70.2357H109.425C111.415 70.2357 112.619 71.4432 113.484 71.4432C113.691 71.4432 113.849 71.2326 113.849 70.9693V69.1373C113.849 68.1179 113.273 67.4633 112.145 67.4633H107.514C107.07 67.4633 106.702 67.1737 106.702 66.7298V66.4401C106.702 65.9963 107.07 65.7066 107.488 65.7066H112.826C114.451 65.7066 115.786 67.0947 115.786 68.5881V77.462C115.786 77.8043 115.549 78.1166 115.158 78.1166ZM113.849 73.4031C113.849 72.6733 113.247 72.0677 112.487 72.0677H108.955C108.195 72.0677 107.593 72.6733 107.593 73.4031V75.0282C107.593 75.7617 108.195 76.3636 108.955 76.3636H112.487C113.247 76.3636 113.849 75.7617 113.849 75.0282V73.4031Z" fill="black"/>
<path d="M133.721 77.0953C133.484 77.6972 132.908 78.1147 132.517 78.1147H131.81C131.419 78.1147 130.839 77.6972 130.606 77.0953L126.652 66.8596C126.521 66.4947 126.573 66.0734 127.096 65.8628L127.465 65.7085C127.988 65.4979 128.33 65.6822 128.484 66.1261L131.208 73.5367C131.783 75.1317 132.122 76.4144 132.122 76.4144H132.201C132.201 76.4144 132.543 75.1317 133.119 73.5367L135.842 66.1261C135.997 65.6822 136.339 65.4979 136.862 65.7085L137.227 65.8628C137.753 66.0734 137.806 66.4947 137.674 66.8596L133.721 77.0953Z" fill="black"/>
<path d="M146.813 78.1166H141.893C141.446 78.1166 141.107 77.8269 141.107 77.383V77.0971C141.107 76.6758 141.446 76.3636 141.893 76.3636H143.387V67.4633H142.025C141.577 67.4633 141.239 67.1737 141.239 66.7298V66.4402C141.239 66.0226 141.577 65.7066 142.025 65.7066H146.682C147.129 65.7066 147.468 66.0226 147.468 66.4402V66.7298C147.468 67.1737 147.129 67.4633 146.682 67.4633H145.32V76.3636H146.813C147.257 76.3636 147.6 76.6758 147.6 77.0971V77.383C147.6 77.8269 147.257 78.1166 146.813 78.1166Z" fill="black"/>
<path d="M159.115 78.1166H150.974V66.4928C150.974 66.0489 151.313 65.7066 151.76 65.7066H152.125C152.543 65.7066 152.911 66.0489 152.911 66.4928V76.3636H159.115C159.558 76.3636 159.901 76.6495 159.901 77.0971V77.383C159.901 77.8269 159.558 78.1166 159.115 78.1166Z" fill="black"/>
<path d="M171.415 78.1166H163.275V66.4928C163.275 66.0489 163.613 65.7066 164.061 65.7066H164.426C164.844 65.7066 165.212 66.0489 165.212 66.4928V76.3636H171.415C171.859 76.3636 172.201 76.6495 172.201 77.0971V77.383C172.201 77.8269 171.859 78.1166 171.415 78.1166Z" fill="black"/>
<path d="M184.188 72.6978H177.511V74.7667C177.511 75.7335 178.064 76.3617 179.215 76.3617H182.826C183.27 76.3617 183.613 76.6513 183.613 77.0952V77.3849C183.613 77.8288 183.27 78.1184 182.826 78.1184H178.429C176.909 78.1184 175.574 76.7567 175.574 75.1316V68.5899C175.574 66.9912 176.962 65.7084 178.587 65.7084H182.695C184.32 65.7084 185.708 66.9912 185.708 68.5899V71.1253C185.708 72.2539 185.001 72.6978 184.188 72.6978ZM183.767 68.8758C183.767 68.0633 183.116 67.4614 182.356 67.4614H178.925C178.166 67.4614 177.511 68.0633 177.511 68.8758V71.0727H183.767V68.8758Z" fill="black"/>
<path d="M211.654 0H0V2.35975H211.654V0Z" fill="black"/>
<path d="M211.655 209.408H0.00146484V211.767H211.655V209.408Z" fill="black"/>
</g>
<defs>
<clipPath id="clip0_496_28">
<rect width="212" height="212" fill="white"/>
</clipPath>
</defs>
</svg>
