<svg width="1000" height="1000" viewBox="0 0 1000 1000" fill="none" xmlns="http://www.w3.org/2000/svg">
<path d="M583.241 550.444C579.613 550.149 576.323 551.208 571.091 553.434C566.416 555.424 559.004 558.395 554.618 560.039C550.232 561.684 546.513 563.162 546.354 563.321C546.196 563.479 547.214 566.205 548.616 569.376C553.688 580.845 560.487 606.414 562.718 622.416C564.605 635.955 564.187 635.56 573.727 632.86C578.053 631.635 582.837 630.481 584.358 630.294C585.879 630.105 588.466 629.258 590.108 628.409C591.75 627.56 593.093 627.055 593.093 627.286C593.093 627.516 594.968 627.283 597.259 626.768C600.399 626.062 601.629 626.15 602.259 627.127C602.793 627.954 603.363 628.058 603.843 627.418C604.891 626.021 619.731 625.525 620.556 626.86C620.922 627.45 620.412 627.956 619.403 628.002C613.344 628.282 605.04 630.024 605.583 630.903C605.855 631.346 603.496 632.199 600.337 632.801C594.862 633.844 587.317 635.58 578.593 637.803C576.393 638.364 572.442 639.098 569.812 639.436C565.082 640.044 565.031 640.086 565.567 643.234C566.569 649.115 568.09 668.355 568.091 675.168V681.918L572.843 681.956C575.455 681.956 578.716 682.633 580.091 683.419C581.466 684.205 584.254 684.864 586.284 684.884C588.314 684.884 590.245 685.358 590.575 685.892C590.904 686.426 593.417 687.159 596.157 687.522C598.897 687.885 601.38 688.574 601.675 689.052C601.97 689.529 603.108 689.919 604.204 689.919C616.662 689.919 640.091 710.074 640.091 720.79C640.091 721.741 640.45 722.947 640.888 723.47C641.325 723.992 642.503 727.119 643.505 730.419C644.507 733.719 645.684 737.319 646.124 738.419C646.563 739.519 647.691 742.894 648.632 745.919C649.572 748.944 650.964 752.613 651.72 754.073C652.476 755.533 653.093 757.362 653.093 758.136C653.093 759.836 656.753 767.592 657.886 768.292C660.474 769.891 682.097 769.732 683.015 768.107C683.656 766.97 684.301 766.749 684.989 767.429C688.003 770.407 684.338 771.421 671.071 771.285C658.78 771.156 658.085 771.247 659.542 772.865C660.395 773.807 661.091 775.539 661.091 776.714C661.091 781.786 666.605 789.296 675.089 795.782C683.477 802.196 687.655 825.458 682.593 837.574C679.89 844.042 681.262 850.362 686.032 853.419C686.893 853.971 699.021 854.711 713.093 855.068C740.97 855.776 754.499 856.926 756.317 858.743C758.482 860.908 801.04 860.301 803.948 858.064C809.461 853.824 804.417 850.207 787.091 845.972C783.054 844.986 777.373 843.042 774.856 841.787C773.901 841.311 772.455 840.919 771.642 840.919C769.823 840.919 762.719 837.701 762.261 836.669C762.079 836.257 761.45 835.919 760.868 835.919C760.286 835.919 756.959 834.12 753.476 831.92C749.992 829.72 746.901 827.919 746.606 827.919C745.818 827.919 733.922 819.763 731.593 817.625C730.493 816.615 728.209 814.928 726.517 813.878C715.446 807.012 715.371 783.064 726.421 782.884C727.616 782.847 729.718 782.205 731.093 781.419C732.468 780.633 735.254 779.976 737.284 779.957C739.315 779.957 741.253 779.469 741.593 778.919C741.933 778.369 742.973 777.917 743.903 777.914C744.833 777.91 746.883 777.235 748.458 776.413C750.034 775.592 751.94 774.919 752.694 774.919C756.687 774.919 763.571 767.951 761.093 766.42C760.543 766.079 760.09 765.041 760.087 764.11C760.084 763.18 759.409 761.132 758.587 759.556C757.765 757.981 757.093 756.08 757.093 755.333C757.093 754.586 756.012 751.599 754.691 748.697C753.37 745.794 752.058 742.52 751.776 741.419C750.749 737.406 746.659 726.628 745.046 723.683C744.522 722.728 744.093 721.347 744.093 720.613C744.093 719.878 743.234 717.513 742.185 715.355C741.135 713.198 740.476 711.112 740.718 710.72C741.363 709.677 736.355 706.64 735.183 707.365C733.826 708.204 729.093 706.939 729.093 705.738C729.093 705.173 731.17 704.995 734.093 705.31C738.063 705.738 739.093 705.548 739.093 704.384C739.093 703.572 738.09 702.861 736.843 702.785L734.593 702.649L736.843 702.215C740.583 701.495 739.648 698.892 735.843 699.432C733.089 699.823 732.974 699.768 735.093 699.069C736.538 698.592 737.433 697.649 737.212 696.833C737 696.056 736.54 694.099 736.185 692.485C735.447 689.132 732.97 688.127 726.343 688.485C724.006 688.61 722.093 688.311 722.093 687.817C722.093 686.874 724.121 686.605 730.401 686.717C735.164 686.804 735.875 680.744 731.181 680.081C729.283 679.812 729.07 679.533 730.181 678.772C731.132 678.12 729.226 677.916 724.343 678.145C713.676 678.647 714.677 676.817 725.843 675.401C728.73 675.034 731.093 674.27 731.093 673.703C731.093 673.079 729.846 672.922 727.933 673.305L724.771 673.938L727.085 671.93C728.358 670.826 729.781 669.921 730.247 669.921C731.495 669.921 731.255 666.956 729.638 662.423C728.853 660.223 727.675 658.556 727.02 658.717C724.287 659.392 711.313 660.863 707.843 660.891C700.994 660.948 703.967 659.17 711.843 658.499C729.371 657.005 729.179 657.147 724.96 648.686C724.483 647.731 724.093 646.361 724.093 645.639C724.093 639.904 713.67 625.622 706.353 621.335C704.01 619.962 702.093 618.504 702.093 618.096C702.093 617.688 700.63 616.491 698.843 615.438C697.055 614.384 694.793 612.78 693.813 611.871C692.834 610.962 689.608 609.029 686.644 607.577C683.679 606.125 680.654 604.374 679.923 603.682C679.191 602.99 676.394 601.348 673.704 600.034C671.015 598.719 668.066 596.918 667.153 596.032C666.241 595.147 662.049 592.724 657.837 590.647C653.625 588.57 649.902 586.42 649.563 585.872C649.223 585.324 646.365 583.574 643.21 581.981C640.054 580.389 636.851 578.337 636.091 577.421C634.659 575.695 629.629 575.869 622.593 577.891C617.117 579.465 612.093 580.032 612.093 579.076C612.093 578.561 613.33 577.848 614.843 577.493C630.672 573.768 639.335 567.921 629.024 567.921C628.021 567.921 625.083 566.797 622.497 565.422C619.911 564.047 617.186 562.921 616.44 562.921C615.695 562.921 612.752 561.797 609.901 560.422C607.051 559.047 604.17 557.923 603.499 557.923C602.828 557.923 600.099 556.868 597.436 555.581C590.84 552.392 586.87 550.745 583.241 550.45L583.241 550.444Z" fill="#1B1B1F"/>
<path d="M504.79 577.495C503.441 577.801 503.177 579.092 502.788 581.64C502.471 583.715 501.727 588.111 501.136 591.411C499.86 598.537 496.492 636.137 495.515 654.161L494.823 666.913H499.899C502.691 666.913 505.253 667.363 505.593 667.913C505.933 668.463 506.904 668.913 507.751 668.913C509.239 668.913 511.71 669.848 519.093 673.199C521.114 674.116 525.447 674.814 529.345 674.851L536.093 674.911V660.079C536.093 643.529 536.093 643.475 531.718 645.294C530 646.01 526.119 647.175 523.095 647.884C520.07 648.593 517.145 649.486 516.595 649.868C516.044 650.249 513.634 651.122 511.239 651.807C508.845 652.493 506.145 653.332 505.239 653.67C503.811 654.205 503.771 654.063 504.958 652.606C505.709 651.683 509.538 649.976 513.462 648.813C517.386 647.65 523.745 645.68 527.595 644.435L534.597 642.173L534.558 625.792C534.486 594.379 532.511 584.654 525.829 582.823C523.501 582.185 517.869 580.575 513.316 579.247C508.577 577.863 506.14 577.185 504.79 577.491L504.79 577.495Z" fill="#1B1B1F"/>
<path d="M692.153 614.919C691.636 614.919 690.933 615.368 690.593 615.918C690.253 616.468 690.677 616.919 691.534 616.919C692.392 616.919 693.093 616.468 693.093 615.918C693.093 615.368 692.671 614.919 692.153 614.919ZM670.022 622.208C668.825 622.279 667.091 623.194 667.091 624.026C667.091 625.166 668.195 625.14 670.065 623.958C670.875 623.446 671.275 622.768 670.958 622.45C670.761 622.254 670.421 622.17 670.022 622.208ZM651.093 625.919C649.993 625.919 649.091 626.328 649.091 626.827C649.091 627.327 649.993 627.497 651.093 627.21C652.193 626.923 653.093 626.515 653.093 626.304C653.093 626.092 652.193 625.919 651.093 625.919ZM642.903 628.237C642.105 628.559 642.346 628.791 643.511 628.84C644.566 628.886 645.156 628.651 644.823 628.317C644.491 627.984 643.625 627.95 642.903 628.237ZM663.376 630.919C659.571 630.919 657.093 631.794 657.093 633.137C657.093 634.319 664.099 633.247 665.544 631.842C666.13 631.274 665.3 630.919 663.376 630.919ZM654.059 633.214C653.559 633.153 652.584 633.213 651.151 633.38C648.705 633.674 646.268 634.351 645.737 634.882C644.55 636.069 651.898 635.071 654.099 633.745C654.576 633.454 654.556 633.278 654.059 633.214ZM639.843 635.934C638.33 635.934 637.091 636.369 637.091 636.919C637.091 638.183 639.136 638.183 641.093 636.919C642.261 636.165 641.986 635.934 639.843 635.934ZM649.913 639.122C649.773 638.99 649.193 639.073 648.093 639.296C646.718 639.575 643.905 640.074 641.843 640.407C639.78 640.739 638.093 641.384 638.093 641.842C638.093 643.186 647.451 641.804 649.091 640.237C649.751 639.6 650.051 639.255 649.913 639.122ZM691.194 648.325C689.828 648.234 688.059 649.054 688.6 649.93C688.873 650.369 690.025 650.49 691.161 650.191C692.384 649.874 692.859 649.284 692.327 648.752C692.062 648.487 691.65 648.363 691.194 648.325ZM719.761 648.404C718.753 648.688 716.165 648.918 714.011 648.918C711.856 648.918 710.093 649.368 710.093 649.918C710.093 651.385 715.132 651.055 718.593 649.359C720.242 648.551 720.768 648.121 719.761 648.404ZM685.181 648.968C684.17 648.813 683.129 649.056 682.677 649.785C682.382 650.261 680.992 650.43 679.589 650.163C678.185 649.895 675.137 650.166 672.815 650.766C670.493 651.367 660.493 652.384 650.593 653.024C625.973 654.617 625.069 654.703 621.093 655.841C618.25 656.657 619.095 656.759 625.593 656.403C629.993 656.161 638.318 655.705 644.093 655.392C659.045 654.577 667.596 653.943 675.403 653.068C679.148 652.648 682.436 652.668 682.712 653.113C683.541 654.455 682.129 655.871 680.561 655.269C679.754 654.959 679.091 655.205 679.091 655.814C679.091 656.423 677.799 656.921 676.218 656.921C671.781 656.921 667.067 658.07 667.647 659.009C668.188 659.884 672.02 659.426 678.093 657.761C680.018 657.234 682.943 656.563 684.593 656.265C686.243 655.97 687.847 655.313 688.161 654.81C688.473 654.306 692.748 653.41 697.661 652.819C708.293 651.542 712.042 649.404 702.093 650.292C698.518 650.61 693.911 651.155 691.854 651.503C688.944 651.996 687.977 651.783 687.497 650.531C687.171 649.679 686.191 649.123 685.181 648.968ZM714.431 653.308C710.769 653.426 706.159 653.791 703.091 654.322C701.716 654.56 699.243 654.844 697.593 654.953L694.593 655.157L697.593 655.917C699.243 656.333 701.268 656.477 702.093 656.231C702.918 655.985 706.968 655.543 711.093 655.252C715.218 654.961 719.268 654.296 720.093 653.772C720.808 653.307 718.092 653.191 714.431 653.308ZM727.32 654.472C727.454 657.168 723.719 657.49 711.843 658.502C703.967 659.172 700.994 660.951 707.843 660.894C711.313 660.856 724.287 659.395 727.02 658.72C727.647 658.565 728.768 660.131 729.55 662.189C728.5 659.315 727.531 657.214 727.32 654.472ZM693.798 656.273C693.616 656.205 693.367 656.235 693.091 656.417C692.541 656.757 692.091 657.486 692.091 658.036C692.091 658.587 692.541 658.757 693.091 658.417C693.641 658.077 694.091 657.35 694.091 656.8C694.091 656.524 693.979 656.341 693.798 656.273ZM665.905 662.236C665.107 662.558 665.346 662.793 666.511 662.842C667.564 662.883 668.154 662.645 667.821 662.314C667.489 661.982 666.627 661.949 665.905 662.236ZM671.397 666.031C670.9 666.031 669.967 666.326 668.591 666.918C666.664 667.746 666.67 667.779 668.782 667.847C669.987 667.885 671.251 667.468 671.591 666.918C671.957 666.326 671.895 666.031 671.397 666.031ZM731.04 668.502C731.006 669.347 730.742 669.924 730.247 669.924C729.781 669.924 728.358 670.829 727.085 671.933L724.77 673.941L727.933 673.308C729.812 672.93 731.047 673.089 731.09 673.688C730.926 672.039 731.01 670.315 731.04 668.502ZM717.093 670.519C716.543 670.572 714.968 670.686 713.593 670.769C712.218 670.852 711.093 671.381 711.093 671.946C711.093 673.22 717.499 672.666 717.843 671.363C717.98 670.844 717.643 670.463 717.093 670.519ZM731.09 673.723C731.051 674.288 728.706 675.002 725.843 675.365C714.677 676.782 713.5 678.815 724.343 678.149C729.226 677.918 731.132 678.111 730.181 678.775C729.07 679.536 729.283 679.816 731.181 680.084C732.328 680.246 733.159 680.736 733.68 681.375C732.008 678.428 731.332 676.103 731.09 673.723ZM711.903 674.236C711.105 674.557 711.346 674.792 712.511 674.841C713.566 674.883 714.156 674.645 713.823 674.315C713.491 673.982 712.625 673.949 711.903 674.236ZM697.362 675.226C696.389 675.479 696.943 675.687 698.593 675.724C700.241 675.762 701.039 675.536 700.362 675.264C699.685 674.991 698.335 674.973 697.362 675.226ZM713.153 677.918C712.021 677.918 711.093 678.368 711.093 678.918C711.093 679.468 711.742 679.918 712.534 679.918C713.327 679.918 714.253 679.468 714.593 678.918C714.933 678.368 714.286 677.918 713.153 677.918ZM730.401 686.72C724.121 686.607 722.093 686.879 722.093 687.82C722.093 688.313 724.005 688.613 726.343 688.488C732.97 688.129 735.447 689.135 736.185 692.488C736.54 694.102 737 696.059 737.212 696.836C737.433 697.652 736.538 698.595 735.093 699.072C732.974 699.771 733.089 699.827 735.843 699.435C736.5 699.315 738 699.315 738.72 699.815C736.372 697.828 736.06 690.4 734.29 682.643C734.29 683.566 734.29 686.72 730.401 686.72ZM706.034 682.918C704.352 682.918 703.216 683.308 703.511 683.785C704.009 684.59 709.091 684.151 709.091 683.302C709.091 683.091 707.716 682.918 706.034 682.918ZM722.478 684.029C719.08 684.184 711.453 685.285 710.134 686.002C707.905 687.213 695.151 689.955 684.321 691.553C681.971 691.9 679.789 692.603 679.472 693.115C679.136 693.659 680.293 693.813 682.245 693.493C684.087 693.187 689.349 692.456 693.938 691.868C698.528 691.279 703.392 690.375 704.751 689.858C706.11 689.341 708.039 688.919 709.036 688.919C710.033 688.919 712.592 688.164 714.722 687.241C716.851 686.317 719.71 685.386 721.075 685.175C722.44 684.963 723.792 684.543 724.075 684.241C724.273 684.033 723.61 683.976 722.478 684.029ZM719.899 687.394C719.591 687.084 719.031 687.64 718.657 688.627C718.115 690.052 718.23 690.168 719.218 689.187C719.901 688.509 720.209 687.704 719.899 687.394ZM714.321 688.98C713.814 688.98 713.06 689.294 712.091 689.92C710.878 690.702 711.023 690.906 712.843 690.906C714.081 690.906 715.091 690.47 715.091 689.92C715.091 689.294 714.829 688.98 714.321 688.98ZM729.692 694.935C725.35 695.381 719.093 697.052 719.093 698.111C719.093 698.632 719.88 698.824 720.843 698.541C721.805 698.258 724.393 697.753 726.593 697.416C728.792 697.08 731.716 696.54 733.091 696.218L735.593 695.633L733.091 694.967C732.372 694.77 731.14 694.782 729.692 694.929V694.935ZM729.046 699.347C728.424 699.347 727.777 699.555 727.079 699.929C725.099 700.989 725.186 702.92 727.212 702.92C727.762 702.92 727.933 702.47 727.593 701.92C727.238 701.346 728.172 700.929 729.784 700.891C732.162 700.853 732.326 700.706 730.856 699.848C730.262 699.504 729.667 699.347 729.046 699.347ZM736.843 702.195L734.593 702.652L736.843 702.788C738.09 702.864 739.093 703.576 739.093 704.388C739.093 705.464 738.063 705.723 734.093 705.295C731.17 704.981 729.093 705.177 729.093 705.741C729.093 706.942 733.826 708.207 735.182 707.368C736.5 706.815 740.185 709.67 740.43 709.815C739.624 707.907 738.71 706.575 739.19 700.837C739 701.315 738.176 701.938 736.843 702.195ZM732.534 701.92C731.676 701.92 731.253 702.37 731.593 702.92C731.933 703.47 732.634 703.92 733.151 703.92C733.669 703.92 734.093 703.47 734.093 702.92C734.093 702.37 733.392 701.92 732.534 701.92ZM700.091 705.92C699.541 705.92 699.093 706.37 699.093 706.919C699.093 707.47 699.541 707.92 700.091 707.92C700.641 707.92 701.093 707.47 701.093 706.919C701.093 706.37 700.641 705.92 700.091 705.92ZM715.403 706.033C708.225 705.965 702.955 706.328 702.593 706.918C701.837 708.142 717.749 708.187 723.593 706.978C726.617 706.352 724.62 706.12 715.403 706.033ZM694.905 707.238C694.107 707.56 694.345 707.794 695.511 707.844C696.566 707.889 697.156 707.651 696.823 707.319C696.491 706.986 695.627 706.951 694.905 707.238ZM729.093 711.92C727.993 711.92 727.091 712.275 727.091 712.707C727.091 713.141 727.993 713.492 729.093 713.492C730.193 713.492 731.093 713.14 731.093 712.707C731.093 712.275 730.193 711.92 729.093 711.92ZM711.093 712.918C709.993 712.918 709.091 713.368 709.091 713.918C709.091 714.468 709.993 714.918 711.093 714.918C712.193 714.918 713.093 714.468 713.093 713.918C713.093 713.368 712.193 712.918 711.093 712.918ZM711.903 721.236C711.105 721.557 711.346 721.792 712.511 721.841C713.566 721.883 714.156 721.649 713.823 721.316C713.491 720.984 712.625 720.949 711.903 721.236ZM697.343 728.23C696.38 728.484 697.168 728.687 699.093 728.687C701.016 728.687 701.805 728.48 700.843 728.23C699.88 727.977 698.305 727.977 697.343 728.23ZM701.661 730.237C701.27 729.938 700.525 729.923 699.567 730.289C698.685 730.629 698.239 731.359 698.583 731.913C699.393 733.224 700.798 733.197 701.628 731.856C702.092 731.111 702.058 730.533 701.667 730.238L701.661 730.237ZM661.368 731.971C660.89 731.971 660.068 732.285 659.089 732.918C657.798 733.753 657.825 733.904 659.282 733.904C660.212 733.904 661.251 733.468 661.591 732.918C661.984 732.286 661.85 731.971 661.372 731.971H661.368ZM683.915 734.42C683.099 734.575 682.204 734.881 681.425 735.303L678.589 736.838L681.089 736.8C682.464 736.8 684.489 736.399 685.589 735.947C687.361 735.219 687.403 735.047 685.927 734.443C685.468 734.25 684.733 734.25 683.917 734.405L683.915 734.42ZM709.163 743.668C708.013 743.777 707.093 744.09 707.093 744.535C707.093 744.747 708.78 744.886 710.843 744.849C713.699 744.796 714.122 744.595 712.61 744.005C711.696 743.631 710.313 743.557 709.163 743.668ZM705.903 746.236C705.105 746.558 705.346 746.792 706.511 746.842C707.566 746.883 708.156 746.649 707.823 746.316C707.491 745.984 706.625 745.949 705.903 746.236ZM684.216 752.636C683.285 752.636 681.932 752.916 679.807 753.461C676.94 754.194 673.468 754.826 672.093 754.863C666.172 755.03 658.122 756.157 658.501 756.769C658.889 757.396 676.41 757.257 705.46 756.399C716.758 756.062 720.484 755.586 719.011 754.655C718.782 754.511 712.966 754.617 706.091 754.927C696.669 755.331 693.32 755.15 692.483 754.191C691.007 752.5 689.744 752.57 690.411 754.308C691.072 756.03 687.679 755.331 686.091 753.418C685.655 752.891 685.147 752.636 684.216 752.636ZM693.903 753.234C693.105 753.556 693.346 753.791 694.511 753.84C695.566 753.885 696.156 753.647 695.823 753.315C695.491 752.982 694.625 752.947 693.903 753.234ZM710.593 763.924C709.702 763.924 709.253 764.374 709.593 764.924C709.932 765.474 710.381 765.924 710.593 765.924C710.803 765.924 711.253 765.474 711.593 764.924C711.933 764.374 711.483 763.924 710.593 763.924ZM703.011 764.937C699.149 764.937 698.023 765.232 699.093 765.922C700.402 766.767 706.855 766.31 708.011 765.291C708.24 765.091 705.99 764.937 703.011 764.937ZM656.27 765.969C657.349 767.992 658.823 769.819 659 771.915C659.263 771.256 662.052 771.193 671.071 771.287C684.338 771.423 688.004 770.409 684.989 767.432C684.301 766.752 683.656 766.972 683.015 768.109C682.097 769.734 660.474 769.894 657.886 768.294C657.5 767.815 657 767.315 656.27 765.969ZM689.093 765.924C688.543 765.924 688.091 766.374 688.091 766.924C688.091 767.474 688.543 767.924 689.093 767.924C689.643 767.924 690.093 767.474 690.093 766.924C690.093 766.374 689.643 765.924 689.093 765.924Z" fill="white"/>
<path d="M472.363 121.094C412.598 125 351.855 144.922 300.684 177.441C258.008 204.59 220.605 240.82 193.652 281.25C142.578 357.91 121.582 451.465 134.863 542.48C150.977 652.637 212.207 746.094 308.008 806.64C374.121 848.437 460.352 867.773 541.016 858.887C600.977 852.246 654.004 832.617 704.199 798.34C778.027 747.949 831.348 674.023 855.469 588.867C863.477 560.351 866.895 537.598 867.773 505.859C868.555 481.348 867.48 464.258 863.77 436.328C861.328 418.75 859.473 411.133 860.742 424.316C862.793 444.726 863.184 452.148 863.184 466.797C863.086 488.476 861.914 491.699 860.938 472.656C859.668 446.875 858.594 447.754 858.496 474.609C858.398 498.437 857.617 508.301 854.102 533.301C852.539 544.238 846.289 574.512 844.727 578.613C843.066 582.812 842.871 581.25 844.238 575.293C845.02 572.168 846.094 566.992 846.582 563.867C847.168 560.742 848.242 554.101 849.121 549.316C851.66 534.18 855.371 501.953 855.859 489.746C856.348 477.246 856.25 477.832 853.027 499.023C852.246 504.687 851.074 511.719 850.586 514.648C850.098 517.578 849.316 522.851 848.73 526.367C847.949 532.324 843.848 552.93 843.457 553.32C843.359 553.418 843.164 535.254 843.066 512.89C842.969 484.277 842.578 468.848 841.602 460.937L840.137 449.707L840.039 471.68C839.941 508.789 836.328 536.719 826.758 574.219C824.902 581.445 822.461 589.551 821.387 592.285C819.043 597.754 819.141 596.875 823.242 581.543C830.664 553.711 835.742 521.973 836.621 498.047C837.207 480.371 836.719 476.074 835.547 489.746C835.156 494.043 834.473 500.586 833.984 504.394C833.496 508.105 833.105 511.816 833.008 512.598C833.008 513.379 832.715 513.769 832.422 513.379C832.129 513.086 831.836 505.859 831.836 497.363C831.934 488.867 831.543 477.344 831.152 471.68C830.371 461.426 830.371 461.426 830.273 477.539C830.176 495.605 829.102 507.031 825.586 526.367C815.234 582.812 793.164 634.18 760.938 677.246C708.496 747.07 634.863 790.527 549.316 801.953C530.469 804.492 491.504 804.98 474.121 802.93C424.805 797.07 380.957 782.324 339.355 757.617C297.949 733.105 257.91 692.773 231.836 649.414C200.586 597.265 184.277 530.176 188.379 471.191C191.113 432.812 197.949 401.465 210.449 370.703C233.887 312.695 266.797 268.848 313.086 234.375C356.25 202.051 405.371 182.812 462.891 175.586C479.199 173.535 534.082 173.828 551.27 176.074C595.41 181.836 630.078 193.262 663.672 212.988C674.609 219.433 697.656 233.984 701.953 237.109C706.543 240.527 706.836 239.16 702.344 235.254C689.355 223.828 675 213.672 658.398 204.101C653.418 201.269 649.512 198.73 649.805 198.535C650.293 198.047 664.746 205.371 673.34 210.449C676.562 212.305 680.859 214.746 682.812 215.82C690.918 220.215 713.086 234.082 722.754 240.82C734.766 249.219 741.016 254.394 750.781 263.965C754.59 267.676 757.812 270.508 757.812 270.019C757.812 267.676 742.285 248.144 731.738 237.207C725 230.273 719.824 224.609 720.215 224.609C721.387 224.609 736.621 237.793 746.973 247.851C752.344 253.125 758.887 260.351 761.621 264.062C764.355 267.773 766.602 270.508 766.602 270.215C766.602 268.848 762.012 261.426 757.031 254.785C754.004 250.683 749.512 244.824 747.168 241.601C737.207 228.32 717.48 207.617 712.402 205.078C710.84 204.297 709.277 203.32 708.984 203.027C708.691 202.637 705.859 200.781 702.637 198.926C696.387 195.215 688.086 188.574 688.867 187.793C689.453 187.207 693.066 189.551 703.613 197.265C714.941 205.664 715.332 205.859 713.965 203.223C711.621 198.926 701.758 191.992 671.387 173.535C631.934 149.609 579.297 130.469 532.715 123.144C517.773 120.898 490.625 119.922 472.363 121.094ZM805.566 628.906C804.395 631.055 803.125 632.519 802.832 632.226C802.148 631.543 805.762 625 806.836 625C807.324 625 806.738 626.758 805.566 628.906Z" fill="#B22222"/>
<path d="M543.164 120.605C543.359 120.898 547.07 121.582 551.367 122.07C559.863 123.242 583.691 128.808 591.113 131.347C599.414 134.18 597.168 132.226 588.574 129.101C575.586 124.414 540.332 117.773 543.164 120.605Z" fill="#B22222"/>
<path d="M777.344 277.246C777.344 277.832 777.734 278.516 778.32 278.809C778.906 279.101 779.004 278.711 778.711 277.93C778.027 276.172 777.344 275.879 777.344 277.246Z" fill="#B22222"/>
<path d="M760.742 300.098C760.742 301.953 764.551 306.641 764.648 304.883C764.648 304.101 763.77 302.441 762.695 301.074C761.426 299.414 760.742 299.023 760.742 300.098Z" fill="#B22222"/>
<path d="M791.016 312.5C792.09 314.648 793.262 316.406 793.457 316.406C793.75 316.406 793.066 314.648 791.992 312.5C790.918 310.351 789.746 308.594 789.551 308.594C789.258 308.594 789.941 310.351 791.016 312.5Z" fill="#B22222"/>
<path d="M252.421 790.267C252.058 790.63 252.315 790.927 252.995 790.927C253.757 790.927 253.993 791.663 253.616 792.849C253.28 793.909 253.579 795.254 254.302 795.849C255.013 796.442 256.718 797.815 258.093 798.896C260.8 801.025 262.091 801.411 262.091 800.089C262.091 799.627 260.968 798.737 259.593 798.111C258.218 797.484 257.093 796.131 257.093 795.105C257.093 793.016 253.447 789.24 252.421 790.267Z" fill="#1B1B1F"/>
<path d="M418.992 550.229C417.687 550.531 416.025 551.703 412.173 554.167C408.517 556.504 404.815 558.867 403.948 559.416C398.793 562.688 395.67 565.177 387.593 572.448C382.643 576.904 377.103 581.585 375.281 582.848C373.269 584.242 372.181 585.702 372.511 586.563C372.851 587.447 372.121 588.335 370.575 588.923C369.211 589.442 368.093 590.31 368.093 590.848C368.093 591.387 366.968 592.952 365.593 594.327C362.688 597.231 362.328 599.266 364.843 598.558C370.151 597.063 373.307 596.763 372.659 597.811C372.281 598.42 370.989 598.943 369.784 598.973C366.367 599.06 358.783 602.457 358.157 604.18C357.847 605.034 355.681 607.828 353.343 610.389C351.006 612.95 349.095 615.352 349.103 615.729C349.103 616.741 361.649 621.917 364.083 621.917C365.233 621.917 367.935 622.816 370.091 623.917C372.247 625.016 374.679 625.917 375.493 625.917C377.059 625.917 378.636 627.709 377.802 628.543C377.53 628.815 374.445 628.127 370.949 627.016C361.403 623.984 346.727 619.887 345.593 619.936C343.611 620.023 339.009 624.94 339.298 626.659C339.491 627.806 338.954 628.42 337.749 628.424C335.135 628.424 332.188 632.482 331.454 637.069C331.074 639.447 329.909 641.706 328.484 642.827C327.194 643.841 325.681 645.873 325.122 647.343C324.509 648.955 322.704 650.601 320.569 651.493C317.16 652.918 314.669 656.406 312.263 662.227C311.991 662.886 311.69 663.187 311.419 663.917C309.366 669.459 307.35 671.953 305.492 671.241C304.714 670.942 303.067 671.35 301.833 672.149C300.6 672.948 298.468 673.878 297.093 674.215C295.718 674.552 291.551 676.87 287.833 679.364C284.116 681.858 279.56 684.532 277.708 685.305C275.857 686.079 271.883 688.935 268.882 691.653C265.077 695.099 261.965 696.965 258.597 697.813C255.94 698.482 251.926 700.326 249.679 701.911C247.094 703.733 243.204 705.222 239.093 705.965C230.798 707.464 221.541 710.707 217.204 713.632C215.34 714.889 213.195 715.917 212.437 715.917C209.679 715.917 191.021 726.016 188.452 728.899C185.698 731.99 175.301 737.917 172.634 737.917C171.787 737.917 171.093 738.319 171.093 738.809C171.093 739.3 169.968 739.984 168.593 740.329C164.823 741.275 165.486 742.703 173.71 751.376C177.862 755.753 181.929 760.705 182.745 762.377C184.354 765.669 181.246 762.706 168.843 749.108L163.095 742.801L159.843 744.61C158.055 745.604 156.42 746.515 156.208 746.635C155.547 747.01 158.739 751.215 163.513 756.253C166.032 758.912 168.087 761.611 168.079 762.252C168.079 762.893 165.014 760.152 161.286 756.165C157.559 752.177 153.854 748.924 153.052 748.932C137.868 749.087 131.122 762.879 140.648 774.291C144.252 778.609 146.982 782.363 146.714 782.631C145.858 783.488 144.147 781.903 140.193 776.594C134.965 769.578 132.544 766.916 131.386 766.916C127.884 766.916 107.368 790.193 102.593 799.584C99.843 804.993 97.2553 809.567 96.843 809.751C96.4306 809.932 96.093 810.655 96.093 811.352C96.093 812.049 94.968 814.734 93.593 817.321C92.218 819.907 91.0911 822.701 91.0911 823.528C91.0911 824.356 89.968 827.047 88.593 829.51C85.9927 834.168 85.086 843.176 87.093 844.416C87.6429 844.757 88.091 846.065 88.091 847.323C88.091 850.477 90.6377 853.121 97.0969 856.684L102.593 859.719L123.222 859.817C148.837 859.942 150.932 858.288 139.849 846.722C131.652 838.167 131.15 821.397 138.929 815.954C139.352 815.659 141.009 813.615 142.609 811.415C146.508 806.055 148.208 804.425 151.888 802.523C157.542 799.599 158.918 800.262 170.343 811.419C176.255 817.193 181.544 821.916 182.099 821.916C182.654 821.916 185.006 823.289 187.322 824.966C192.061 828.399 199.497 831.915 202.019 831.915C202.939 831.915 204.195 832.417 204.808 833.03C206.074 834.296 215.052 834.678 216.886 833.544C219.355 832.018 218.234 828.04 214.843 826.293C210.494 824.052 200.029 816.648 200.519 816.158C201.15 815.527 206.195 818.456 212.025 822.836C219.011 828.085 220.081 827.99 226.411 821.558C229.312 818.611 233.463 814.989 235.638 813.509C237.813 812.029 242.068 809.054 245.093 806.898C248.118 804.742 251.552 802.963 252.722 802.947C258.164 802.867 256.218 797.146 249.88 794.587C248.88 794.184 248.925 793.823 250.091 792.964C251.365 792.026 251.104 791.437 248.343 789.064C244.769 785.992 244.313 784.915 246.591 784.915C247.416 784.915 248.091 785.403 248.091 785.999C248.091 786.595 248.64 786.9 249.31 786.677C249.979 786.454 251.948 787.203 253.685 788.343C255.422 789.483 257.687 790.956 258.718 791.615C260.195 792.559 260.316 793.003 259.284 793.71C258.277 794.4 258.537 794.978 260.415 796.209C263.605 798.298 267.091 798.034 267.091 795.702C267.091 794.719 266.547 794.028 265.882 794.165C265.217 794.301 264.603 793.403 264.519 792.165C264.334 789.463 264.481 789.443 268.208 791.644C269.816 792.594 270.912 793.944 270.644 794.644C270.009 796.297 271.235 796.264 273.558 794.564C275.299 793.291 275.221 793.104 272.247 791.348C270.511 790.322 269.093 789.131 269.093 788.699C269.093 787.381 270.328 787.806 274.103 790.422L277.716 792.928L285.654 788.832C290.019 786.58 295.024 783.653 296.775 782.326C298.525 781 300.256 779.914 300.62 779.914C300.983 779.914 302.477 779.067 303.937 778.031C305.397 776.995 309.741 774.466 313.591 772.412C317.441 770.358 321.52 767.832 322.656 766.797C323.791 765.762 325.185 764.914 325.753 764.914C326.321 764.914 327.867 763.954 329.189 762.779C330.51 761.605 333.953 759.548 336.841 758.207C339.729 756.866 342.091 755.426 342.091 755.01C342.091 754.593 343.317 753.614 344.814 752.834C346.31 752.054 350.023 749.708 353.064 747.623C356.105 745.538 360.225 742.753 362.222 741.435C364.219 740.118 367.098 737.888 368.618 736.479C370.139 735.07 371.741 733.914 372.177 733.914C372.613 733.914 375.049 732.114 377.591 729.914C380.133 727.714 382.522 725.907 382.901 725.897C383.281 725.897 385.391 724.306 387.591 722.385C389.791 720.465 392.405 718.634 393.398 718.319C397.003 717.172 394.283 715.451 387.019 714.281C370.759 711.662 370.944 711.106 387.943 711.502C401.772 711.824 404.209 711.665 403.747 710.461C403.434 709.644 403.925 708.85 404.898 708.594C405.999 708.303 405.715 708.096 404.091 708.002C402.716 707.923 398.443 706.94 394.593 705.821C390.743 704.701 386.466 703.556 385.091 703.276C383.716 702.996 381.691 702.398 380.591 701.949C379.491 701.501 376.341 700.433 373.591 699.576C363.714 696.501 351.403 691.395 351.497 690.414C351.626 689.087 352.315 689.255 361.091 692.737C365.216 694.374 369.941 696.165 371.591 696.719C373.241 697.272 376.166 698.268 378.091 698.93C388.628 702.554 408.727 706.264 405.091 703.914C404.266 703.381 402.243 702.931 400.593 702.914C398.286 702.877 397.937 702.661 399.091 701.914C400.143 701.234 398.61 700.94 393.958 700.93C383.095 700.892 382.984 695.382 393.841 695.084C395.629 695.035 397.095 695.315 397.099 695.705C397.103 696.096 399.363 696.496 402.118 696.596C405.002 696.701 406.882 696.38 406.55 695.846C406.233 695.334 405.325 694.914 404.532 694.914C403.74 694.914 403.091 694.239 403.091 693.414C403.091 691.53 402.599 691.458 410.169 694.475C413.702 695.882 417.338 697.907 418.251 698.975C419.944 700.953 422.715 701.732 421.591 699.914C421.243 699.349 422.062 698.914 423.474 698.914C424.849 698.914 426.233 699.335 426.55 699.848C426.883 700.389 428.272 700.18 429.859 699.354C431.362 698.57 433.085 697.925 433.687 697.922C434.815 697.922 440.984 692.998 440.091 692.816C439.815 692.76 435.204 692.422 429.841 692.064C420.998 691.475 417.981 691.898 421.341 693.252C422.029 693.528 420.99 693.793 419.031 693.836C417.072 693.878 413.557 692.992 411.22 691.863C408.883 690.734 406.21 689.884 405.281 689.977C404.352 690.067 403.071 690.094 402.435 690.029C400.798 689.867 402.021 685.914 403.708 685.914C404.469 685.914 405.091 685.464 405.091 684.914C405.091 684.364 404.416 683.914 403.591 683.914C402.766 683.914 402.091 683.435 402.091 682.848C402.091 682.26 402.88 682 403.843 682.268C404.805 682.536 408.603 683.049 412.283 683.408C417.23 683.892 418.84 684.406 418.466 685.381C417.689 687.407 425.468 689.802 434.591 690.346C442.353 690.808 442.502 690.776 439.591 689.244C437.941 688.376 435.86 687.027 434.966 686.248C434.072 685.469 432.949 684.904 432.468 684.992C430.381 685.374 428.091 684.841 428.091 683.973C428.091 682.986 437.337 683.33 439.036 684.381C440.9 685.532 452.849 685.084 455.218 683.774C463.474 679.205 467.093 676.515 467.093 674.947C467.093 673.745 464.774 672.739 459.534 671.078C457.063 670.295 455.438 669.727 450.341 668.258C444.056 666.447 440.539 664.243 445.591 665.282C447.241 665.622 450.741 666.341 453.368 666.885C455.995 667.428 458.922 668.28 459.87 668.778C460.818 669.276 463.556 670.009 465.956 670.406C467.61 670.679 468.503 670.898 469.109 671.203V659.676C469.014 656.499 468.706 655.914 466.534 655.914C465.039 655.914 464.242 655.489 464.613 654.889C464.96 654.324 465.982 653.986 466.884 654.139C468.694 654.445 469.544 650.517 470.48 637.524C471.228 627.149 475.774 599.451 477.966 591.914C479.904 585.251 484.344 571.698 485.544 568.784C486.101 567.432 485.136 566.971 479.905 566.096C476.434 565.514 471.568 564.591 469.093 564.043C464.73 563.077 460.646 563.42 458.593 564.922C458.043 565.324 455.793 565.953 453.593 566.319C451.393 566.685 448.243 567.214 446.593 567.496C443.844 567.966 443.744 567.889 445.392 566.567C446.381 565.773 450.188 564.558 453.849 563.867C461.561 562.412 461.177 562.123 447.093 558.754C439.95 557.045 436.557 556.811 425.843 557.285C412.787 557.863 408.313 556.636 418.843 555.365C427.168 554.361 428.31 553.449 423.673 551.512C421.245 550.497 420.297 549.928 418.992 550.229Z" fill="#1B1B1F"/>
<path d="M167.765 740.718H167.65C166.016 741.215 164.547 741.988 163.112 742.817L168.843 749.105C181.246 762.703 184.354 765.666 182.745 762.374C181.929 760.702 177.862 755.75 173.71 751.372C166.36 743.621 165.269 741.716 167.765 740.71V740.718ZM190.909 743.919C190.247 743.919 190.326 744.494 191.115 745.445C192.485 747.097 193.708 746.729 192.632 744.987C192.27 744.401 191.494 743.919 190.909 743.919ZM156.991 746.204C154.203 747.545 151.415 748.469 148.626 749.416C150.022 749.117 151.462 748.953 153.052 748.937C153.854 748.937 157.559 752.181 161.286 756.169C165.014 760.156 168.079 762.898 168.079 762.257C168.087 761.615 166.032 758.916 163.513 756.257C158.739 751.219 155.547 747.014 156.208 746.64C156.254 746.602 156.826 746.296 156.991 746.204ZM175.034 746.919C174.453 746.919 174.253 747.369 174.593 747.919C174.933 748.469 175.412 748.919 175.654 748.919C175.896 748.919 176.093 748.469 176.093 747.919C176.093 747.369 175.617 746.919 175.034 746.919ZM190.595 747.07C190.037 747.01 189.619 747.07 189.419 747.263C188.846 747.836 196.146 751.629 198.093 751.769C199.017 751.837 198.633 751.137 197.093 749.949C195.183 748.476 192.268 747.256 190.595 747.07ZM188.37 751.348C188.404 751.556 188.794 752.04 189.554 752.879C191.731 755.286 192.233 755.447 191.486 753.5C191.186 752.717 190.21 751.797 189.322 751.457C188.657 751.204 188.333 751.14 188.37 751.348ZM166.976 753.918C166.427 753.918 166.253 754.368 166.593 754.918C166.933 755.468 167.662 755.918 168.212 755.918C168.763 755.918 168.933 755.468 168.593 754.918C168.253 754.368 167.526 753.918 166.976 753.918ZM195.986 753.96C195.026 753.997 195.133 754.3 196.345 755.006C197.307 755.567 198.095 756.588 198.095 757.276C198.095 758.694 200.074 760.927 201.331 760.927C201.789 760.927 201.706 760.138 201.146 759.176C199.148 755.743 197.354 753.924 195.986 753.96ZM182.782 754.942C182.068 754.942 182.192 755.344 183.093 755.926C185.014 757.168 185.36 757.168 184.593 755.926C184.253 755.376 183.437 754.942 182.782 754.942ZM137.544 757.525C135.275 761.287 132.825 765.018 129.5 767.816C129.984 767.536 131.105 766.924 131.386 766.924C132.544 766.924 134.965 769.585 140.193 776.602C144.147 781.91 145.858 783.495 146.714 782.639C146.982 782.37 144.252 778.617 140.648 774.299C135.924 768.639 135.22 762.402 137.544 757.525ZM204.901 761.965C204.521 761.927 206.318 763.919 208.894 766.353C214.028 771.204 215.568 771.623 212.124 767.231C210.09 764.638 206.538 762.048 204.901 761.965ZM169.218 763.473C168.687 764 175.402 770.84 176.497 770.889C176.995 770.927 176.547 769.933 175.499 768.717C172.925 765.728 169.678 763.017 169.218 763.473Z" fill="white"/>
<path d="M220.091 744.974C219.103 744.974 219.447 745.632 221.093 746.919C223.655 748.924 225.093 749.413 225.093 748.28C225.093 747.226 221.701 744.974 220.091 744.974ZM220.593 750.673L223.091 752.649C226.518 755.355 232.091 757.08 232.091 755.435C232.091 754.91 226.919 752.62 223.007 751.415L220.593 750.673ZM218.976 752.919C218.427 752.919 218.253 753.369 218.593 753.919C218.933 754.469 219.662 754.919 220.212 754.919C220.763 754.919 220.933 754.469 220.593 753.919C220.253 753.369 219.526 752.919 218.976 752.919ZM228.017 758.95C227.528 758.95 227.093 759.23 227.093 759.837C227.093 760.719 236.668 765.925 238.29 765.925C238.734 765.925 239.093 765.475 239.093 764.925C239.093 764.375 238.509 763.925 237.794 763.925C237.08 763.925 235.96 763.391 235.308 762.739C234.655 762.086 233.102 761.399 231.857 761.21C230.612 761.021 229.446 760.432 229.261 759.898C229.05 759.283 228.506 758.95 228.017 758.95ZM241.407 766.212C241.155 766.254 241.091 766.609 241.091 767.302C241.091 768.299 241.929 768.923 243.261 768.923C244.453 768.923 245.241 768.798 245.011 768.643C244.782 768.488 243.805 767.757 242.843 767.021C242.094 766.446 241.657 766.171 241.407 766.212ZM246.591 784.896C244.313 784.896 244.769 785.996 248.343 789.068C251.104 791.44 251.365 792.029 250.091 792.968C248.925 793.827 248.88 794.187 249.88 794.591C255.338 796.794 257.507 801.354 254.538 802.626C264.619 801.222 269.997 796.477 277.72 792.925L274.103 790.425C270.328 787.809 269.093 787.384 269.093 788.703C269.093 789.134 270.511 790.325 272.247 791.351C275.221 793.107 275.299 793.295 273.558 794.568C271.235 796.268 270.009 796.301 270.644 794.647C270.913 793.947 269.816 792.566 268.208 791.616C264.483 789.415 264.334 789.466 264.519 792.168C264.603 793.406 265.217 794.304 265.882 794.168C266.547 794.032 267.091 794.723 267.091 795.706C267.091 798.037 263.605 798.301 260.415 796.211C258.537 794.98 258.277 794.404 259.284 793.714C260.316 793.006 260.195 792.562 258.718 791.618C257.687 790.958 255.422 789.486 253.685 788.346C251.948 787.206 249.979 786.443 249.31 786.666C248.64 786.889 248.091 786.597 248.091 786.002C248.091 785.406 247.416 784.896 246.591 784.896ZM242.777 788.558C241.795 788.358 241.861 789.292 243.294 790.726C244.649 792.081 246.093 792.309 246.093 791.167C246.093 790.75 245.191 789.844 244.091 789.158C243.543 788.814 243.105 788.626 242.777 788.558ZM252.421 790.265C253.447 789.238 257.093 793.014 257.093 795.103C257.093 796.129 258.218 797.482 259.593 798.109C260.968 798.735 262.091 799.625 262.091 800.087C262.091 801.409 260.8 801.023 258.093 798.894C256.718 797.812 255.013 796.44 254.302 795.847C253.579 795.252 253.28 793.907 253.616 792.847C253.993 791.661 253.757 790.925 252.995 790.925C252.315 790.925 252.058 790.626 252.421 790.265ZM242.595 793.615C242.222 793.653 242.093 793.913 242.093 794.447C242.093 795.597 243.476 796.366 246.343 796.81C246.756 796.874 247.089 796.587 247.085 796.175C247.081 795.763 245.956 794.907 244.585 794.271C243.591 793.811 242.969 793.577 242.595 793.615ZM200.519 816.161C200.029 816.651 210.494 824.055 214.843 826.296C217.37 827.598 218.625 830.136 218.085 831.978C219.672 828.358 221.151 826.677 224 823.916C219.5 827.816 218 827.316 212.025 822.837C206.195 818.458 201.149 815.531 200.519 816.161Z" fill="white"/>
<path d="M474.841 707.49C473.605 707.452 472.593 707.959 472.593 708.619C472.593 709.279 472.031 710.381 471.343 711.068C469.348 713.063 469.867 715.828 472.343 716.404C473.581 716.691 476.393 717.329 478.593 717.822C487.517 719.819 489.25 719.372 488.902 715.167L488.591 711.418L481.749 710.742C472.596 709.837 471.999 708.889 480.976 709.513C485.573 709.831 488.091 709.638 488.091 708.962C488.091 708.384 485.635 707.839 482.591 707.74C479.567 707.642 476.079 707.528 474.841 707.49Z" fill="#1B1B1F"/>
<path d="M469.8 718.719L470.501 726.569C471.661 739.544 471.132 738.869 481.593 740.776C488.937 742.115 489.093 741.907 489.093 730.868C489.093 719.578 489.96 720.45 477.697 719.397L469.8 718.719Z" fill="#1B1B1F"/>
<path d="M542.564 574.325C541.935 574.529 541.212 575.023 540.298 575.727L538.005 577.492L539.107 592.956C539.813 602.869 539.961 620.487 539.521 642.053C538.908 672.033 539.011 676.045 540.464 678.958C541.565 681.164 542.093 684.835 542.093 690.256C542.093 699.363 544.076 702.916 549.154 702.916C550.645 702.916 553.377 703.574 555.228 704.377C562.769 707.652 563.033 707.112 563.724 686.848C565.099 646.503 559.835 610.902 548.319 582.667C545.493 575.738 544.45 573.715 542.564 574.325Z" fill="#1B1B1F"/>
<path d="M493.982 573.467C492.635 573.399 491.544 575.833 487.997 584.471C477.905 609.051 475.236 619.26 472.064 645.414C469.647 665.342 471.748 661.411 469.769 674.516C469.444 676.515 469.712 678.417 470.419 679.16C475.21 684.184 477.036 693.265 474.835 701.121C474.004 704.089 475.472 704.703 484.591 705.199L488.591 705.415L489.278 695.415C489.656 689.915 490.471 682.265 491.091 678.415C491.711 674.565 492.569 655.215 492.997 635.415C493.555 609.585 494.278 596.047 495.552 587.489C497.264 575.991 497.262 575.514 495.513 574.235C494.907 573.792 494.43 573.49 493.982 573.467Z" fill="#1B1B1F"/>
<path d="M519.093 535.916V549.355C519.093 556.748 518.757 563.009 518.343 563.265C517.93 563.522 517.74 559.638 517.919 554.635C518.414 540.836 517.957 539.416 512.517 537.893C506.599 536.236 505.858 537.048 504.943 546.18C502.804 567.505 503.273 568.552 518.302 576.056C522.312 578.059 526.043 579.442 526.593 579.129C537.291 573.036 540.093 567.853 540.093 554.166V542.715L536.695 539.316C533.467 536.088 532.936 535.916 526.195 535.916H519.093Z" fill="#1B1B1F"/>
<path d="M574.9 527.233C574.001 527.029 572.594 527.535 570.437 528.459C565.123 530.737 549.698 535.71 545.521 536.494C541.138 537.316 540.792 537.953 542.503 542.061C543.272 543.907 544.223 547.554 544.613 550.166C545.48 555.977 545.634 555.992 558.093 551.348C563.318 549.4 568.943 547.323 570.593 546.731C575.358 545.021 575.927 543.892 576.259 535.496C576.482 529.879 576.399 527.572 574.9 527.233Z" fill="#1B1B1F"/>
<path d="M425.683 521.076C424.776 522.27 422.128 541.34 422.785 541.953C425.194 544.202 462.865 554.492 483.093 558.427C498.195 561.365 500.093 560.286 500.093 548.761C500.093 541.232 500.002 540.916 497.785 540.916C496.514 540.916 491.902 540.044 487.535 538.977C483.168 537.91 475.543 536.052 470.593 534.849C454.247 530.878 437.68 525.963 431.767 523.33C428.562 521.903 425.825 520.889 425.683 521.076Z" fill="#1B1B1F"/>
<path d="M474.722 701.606C474.264 704.353 473.458 706.575 472.56 708.661H472.567C472.567 708.661 472.594 708.623 472.594 708.608C472.594 707.949 473.605 707.441 474.842 707.479C476.08 707.517 479.567 707.631 482.592 707.729C485.635 707.827 488.092 708.373 488.092 708.951C488.092 709.627 485.574 709.819 480.977 709.502C471.999 708.878 472.596 709.827 481.75 710.73L488.59 711.406C488.522 709.968 488.479 708.326 488.592 705.404L484.592 705.189C476.102 704.727 474.351 704.083 474.807 701.612L474.722 701.606ZM470.276 713.032L470.177 713.145C469.811 715.109 469.736 716.826 469.824 718.721L477.697 719.397C486.889 720.187 488.704 719.897 489.037 724.456C488.889 721.665 488.885 718.998 488.921 716.196L488.871 715.528C489.054 719.318 487.193 719.748 478.593 717.823C476.393 717.331 473.581 716.693 472.343 716.405C470.628 716.006 469.928 714.549 470.276 713.032ZM489.036 724.483C489.04 724.555 489.034 724.71 489.038 724.786H489.05C489.042 724.684 489.042 724.581 489.035 724.479L489.036 724.483Z" fill="#1B1B1F"/>
<path d="M481.544 312.96C480.725 312.998 479.813 313.489 479.454 314.423C479.137 315.247 478.29 315.923 477.57 315.923C476.849 315.923 476.097 316.407 475.9 316.999C475.703 317.59 471.729 318.651 467.068 319.354C462.406 320.058 456.793 321.137 454.593 321.753C452.393 322.369 443.618 324.245 435.093 325.923C401.724 332.487 394.654 335.619 379.501 350.55C375.773 354.223 367.807 361.02 361.796 365.653C343.86 379.479 307.068 411.086 304.284 415.06C298.339 423.548 319.821 491.317 331.931 502.276C334.756 504.832 336.526 504.145 363.335 490.083C374.838 484.049 375.231 483.925 382.833 483.968C393.273 484.024 412.139 486.344 415.109 487.933C418.587 489.794 446.808 488.621 453.593 486.333C462.386 483.368 463.068 482.345 466.56 466.878C466.56 466.878 468.661 460.291 467.5 456.316C466.715 453.629 463.859 450.142 463.859 450.142C453.971 440.045 446.008 438.481 436.513 444.77C433.295 446.902 430.415 447.849 425.849 448.28C416.202 449.191 363.357 449.518 362.511 448.673C362.098 448.26 370.048 447.905 380.177 447.882L398.593 447.84L392.593 445.383C381.191 440.711 379.578 438.77 384.343 435.451C401.071 423.803 400.646 423.827 410.224 434.002C415.523 439.632 418.091 443.142 418.091 444.752C418.091 446.724 418.487 447.047 420.343 446.601C421.581 446.303 424.301 445.752 426.388 445.373C428.787 444.938 431.729 443.243 434.388 440.762C443.549 432.216 457.133 434.214 468.492 445.777C470.795 448.122 472.086 449.437 474.39 451.781L473.769 457.006C470.34 485.955 460.035 492.757 419.343 492.92C413.552 492.958 425.498 513.185 433.031 516.113C444.098 520.415 479.072 528.925 498.093 531.943C518.625 535.202 545.168 532.731 562.626 525.937C580.016 519.17 581.542 518.383 583.833 514.983C588.171 508.547 587.29 508.509 571.115 514.457C549.248 522.498 555.639 518.223 579.093 509.119C585.262 506.724 586.646 505.784 586.886 503.816C587.045 502.501 587.574 500.526 588.06 499.426C590.913 492.965 589.083 490.378 584.343 494.17C583.656 494.72 583.091 494.776 583.091 494.291C583.091 493.807 585.118 492.186 587.593 490.691C592.989 487.432 594.476 482.069 589.454 483.978C585.33 485.546 585.695 484.485 589.921 482.621C593.473 481.054 597.074 476.044 597.101 472.64C597.101 471.972 598.217 469.176 599.57 466.426C600.922 463.676 602.049 460.301 602.068 458.926C602.106 457.551 602.777 455.136 603.599 453.56C604.42 451.985 605.093 449.649 605.093 448.369C605.093 447.089 605.481 445.802 605.956 445.508C606.432 445.213 607.056 443.244 607.339 441.131C608.464 432.744 614.188 423.479 620.374 420.031C624.6 417.676 683.197 416.667 684.593 418.925C684.952 419.509 690.634 419.926 698.239 419.926H711.265L714.679 416.705C716.557 414.934 718.091 412.896 718.091 412.177C718.091 409.901 726.864 401.926 729.367 401.926C730.646 401.926 732.256 401.363 732.943 400.675C733.866 399.751 742.359 399.295 765.56 398.926C782.814 398.65 797.223 398.132 797.579 397.775C799.455 395.893 789.589 394.713 771.759 394.687C759.11 394.649 754.121 394.392 757.091 393.867C759.566 393.431 765.019 393.041 769.206 393C773.394 392.958 779.134 392.487 781.96 391.951C784.787 391.415 789.577 390.893 792.603 390.794C797.647 390.628 801.334 388.833 799.792 387.291C798.573 386.071 783.909 385.006 765.593 384.804L746.593 384.596L760.593 383.77C768.293 383.316 776.393 382.782 778.593 382.583C780.793 382.383 798.116 381.89 817.091 381.489C836.066 381.088 852.756 380.396 854.177 379.952C857.23 378.999 864.823 382.261 868.362 386.048C869.588 387.359 872.393 389.278 874.593 390.313C876.793 391.348 880.732 393.288 883.345 394.624C886.263 396.115 889.35 396.931 891.345 396.739L894.593 396.425L895.351 386.529C896.579 370.53 897.897 368.392 898.003 382.224L898.093 394.021L904.345 393.722C909.717 393.465 910.735 393.107 911.583 391.173C912.126 389.936 912.912 388.923 913.331 388.923C914.554 388.923 914.23 363.06 912.974 360.608C910.016 354.825 911.219 354.969 866.31 354.947C831.913 354.947 824.428 354.674 821.437 353.423C819.117 352.454 814.55 351.923 808.529 351.923C803.403 351.923 798.972 351.542 798.683 351.073C798.395 350.605 793.843 349.964 788.57 349.65C783.296 349.336 778.444 348.642 777.786 348.109C777.129 347.575 774.566 346.906 772.091 346.623C766.594 345.993 757.529 343.696 756.507 342.673C755.446 341.612 720.325 341.738 719.665 342.806C719.367 343.29 715.292 344.004 710.611 344.394C705.929 344.784 701.846 345.512 701.536 346.013C700.604 347.521 684.719 347.082 680.788 345.44C677.863 344.218 673.32 344.059 654.915 344.524C638.979 344.926 633.02 344.785 634.091 344.02C634.916 343.434 636.379 342.948 637.341 342.94C638.303 342.94 639.091 342.473 639.091 341.923C639.091 341.354 642.041 340.925 645.941 340.925C663.687 340.925 673.516 338.506 663.31 336.65C660.358 336.113 654.642 334.182 651.829 332.774C650.859 332.289 647.372 331.61 644.079 331.266C640.787 330.922 638.091 330.288 638.091 329.858C638.091 329.009 625.763 327.909 614.591 327.761C606.081 327.647 602.015 328.491 596.222 331.571C593.787 332.866 591.186 333.925 590.443 333.925C589.7 333.925 589.091 334.375 589.091 334.925C589.091 335.503 592.576 335.967 597.341 336.026C612.313 336.211 601.025 337.81 579.9 338.497L560.206 339.137L558.734 343.282C557.924 345.561 555.035 353.725 552.316 361.425C543.857 385.37 534.532 405.901 523.863 424.069C511.971 444.32 511.958 444.452 522.242 443.077C529.94 442.047 539.752 442.568 540.671 444.056C540.966 444.534 540.395 444.962 539.402 445.007C538.407 445.052 536.387 445.286 534.915 445.53C533.444 445.772 531.955 445.493 531.607 444.948C531.259 444.385 530.299 443.923 529.474 443.923C528.649 443.923 528.251 444.375 528.591 444.925C528.986 445.563 525.982 445.925 520.29 445.925H511.37L495.917 466.675C487.418 478.087 477.259 491.923 473.341 497.423C464.01 510.524 461.433 513.586 460.505 512.665C460.083 512.247 460.891 510.672 462.3 509.165C463.709 507.658 469.486 499 475.136 489.925C480.786 480.85 486.696 471.624 488.269 469.424C489.842 467.224 494.385 460.923 498.364 455.423C513.242 434.858 526.073 411.082 523.306 409.204C521.757 408.153 521.806 408.035 523.816 407.982C528.251 407.865 533.119 394.92 529.972 391.61C518.46 379.501 483.091 321.157 483.091 314.276C483.091 313.358 482.364 312.927 481.544 312.96Z" fill="#1B1B1F"/>
<path fill-rule="evenodd" clip-rule="evenodd" d="M351.815 689.731C352.475 689.381 354.509 690.128 361.091 692.74C365.216 694.376 369.941 696.168 371.591 696.722C373.241 697.276 376.166 698.271 378.091 698.933C388.628 702.557 408.727 706.267 405.091 703.917C404.266 703.384 402.242 702.917 400.593 702.917C398.286 702.879 397.937 702.664 399.091 701.917C400.143 701.239 398.61 700.933 393.958 700.933C383.095 700.895 382.985 695.386 393.841 695.087C395.628 695.038 397.095 695.318 397.099 695.708C397.102 696.099 399.363 696.501 402.118 696.599C405.002 696.705 406.881 696.384 406.55 695.849C406.232 695.337 405.325 694.917 404.532 694.917C403.74 694.917 403.091 694.242 403.091 693.417C403.091 691.534 402.599 691.461 410.169 694.478C413.701 695.885 417.338 697.91 418.251 698.978C419.944 700.956 422.714 701.736 421.591 699.917C421.243 699.353 422.062 698.906 423.474 698.906C424.849 698.906 426.233 699.338 426.55 699.851C426.819 700.288 427.805 700.223 429 699.751L428.239 700.061C409.062 706.781 407.317 708.908 394.882 717.496C395.084 716.496 392.296 715.134 387.019 714.284C370.759 711.664 370.944 711.11 387.942 711.506C401.77 711.827 404.208 711.668 403.747 710.465C403.433 709.648 403.925 708.855 404.897 708.598C405.998 708.308 405.715 708.101 404.091 708.006C402.716 707.927 398.442 706.944 394.593 705.824C390.743 704.705 386.466 703.559 385.091 703.28C383.716 703 381.691 702.402 380.591 701.953C379.491 701.505 376.341 700.437 373.591 699.58C363.713 696.505 351.403 691.399 351.497 690.418C351.529 690.086 351.596 689.848 351.815 689.731Z" fill="white"/>
<path d="M386.905 710.24C387.627 709.953 388.489 709.988 388.821 710.321C389.154 710.653 388.564 710.888 387.511 710.846C386.346 710.797 386.108 710.562 386.905 710.24Z" fill="white"/>
<path d="M458.751 681.946C452.181 686.405 445.134 691.17 438.192 694.986C439.463 693.919 440.476 692.9 440.091 692.821C439.814 692.764 435.204 692.424 429.841 692.069C420.998 691.479 417.981 691.902 421.341 693.256C422.028 693.53 420.99 693.795 419.03 693.84C417.071 693.882 413.556 692.996 411.22 691.867C408.883 690.738 406.21 689.89 405.28 689.981C404.351 690.071 403.071 690.098 402.435 690.033C400.798 689.871 402.021 685.918 403.708 685.918C404.469 685.918 405.091 685.469 405.091 684.918C405.091 684.368 404.416 683.918 403.591 683.918C402.766 683.918 402.091 683.439 402.091 682.852C402.091 682.272 402.88 682.003 403.843 682.272C404.805 682.54 408.602 683.053 412.282 683.412C417.229 683.896 418.84 684.41 418.466 685.385C417.689 687.411 425.469 689.806 434.591 690.35C442.352 690.812 442.501 690.78 439.591 689.247C437.941 688.379 435.86 687.031 434.966 686.252C434.072 685.473 432.949 684.909 432.468 684.995C430.381 685.377 428.091 684.845 428.091 683.977C428.091 682.99 437.337 683.335 439.036 684.385C440.9 685.537 452.849 685.088 455.218 683.778C456.678 682.97 460.458 680.817 462.218 679.636L458.751 681.946Z" fill="white"/>
<path d="M397.521 690.16C397.864 689.816 399.136 690.52 400.343 691.727C401.931 693.315 402.131 693.921 401.065 693.883C399.293 693.838 396.635 691.046 397.521 690.16Z" fill="white"/>
<path d="M341.901 687.334C342.4 687.274 343.087 687.335 343.843 687.487C348.366 688.478 349.091 688.811 349.091 689.891C349.091 690.458 348.53 690.889 347.843 690.844C345.434 690.693 341.094 688.747 341.093 687.821C341.093 687.563 341.403 687.395 341.901 687.334Z" fill="white"/>
<path d="M373.091 685.92C373.091 685.125 373.586 684.834 374.423 685.012C375.26 685.19 376.443 685.835 377.821 686.92C379.22 688.02 379.88 688.92 379.288 688.92C378.697 688.92 377.933 688.47 377.593 687.92C377.253 687.37 376.102 686.92 375.034 686.92C373.967 686.92 373.091 686.47 373.091 685.92Z" fill="white"/>
<path d="M367.767 684.067C368.992 683.813 371.491 684.584 371.849 685.67C372.083 686.378 371.429 686.92 370.343 686.92C368.268 686.92 367.091 686.114 367.091 684.686C367.091 684.35 367.359 684.15 367.767 684.067Z" fill="white"/>
<path d="M385.093 683.367C385.097 682.694 390.403 684.006 391.429 684.936C391.889 685.353 391.889 685.926 391.427 686.213C390.579 686.737 385.094 684.273 385.093 683.367Z" fill="white"/>
<path d="M395.464 681.619C396.817 681.442 399.092 681.868 399.093 682.534C399.093 682.747 397.942 682.918 396.534 682.918C395.127 682.918 394.229 682.512 394.536 682.014C394.665 681.805 395.013 681.676 395.464 681.619Z" fill="white"/>
<path fill-rule="evenodd" clip-rule="evenodd" d="M419.309 499.855C421.77 505.266 426.925 512.327 431.295 515.117L431.294 515.124C431.848 515.478 432.408 515.856 432.929 516.06C439.553 518.634 454.711 522.639 469.917 526.149L483.741 529.199C488.886 530.254 493.918 531.244 497.991 531.891C518.523 535.149 545.066 532.679 562.524 525.885C566.612 524.294 568.466 523.429 570.809 522.448V522.447C578.552 519.257 581.892 517.85 583.6 515.316C587.937 508.88 587.189 508.567 571.014 514.516C570.514 514.701 570.453 514.746 569.982 514.916C553 521.316 554 519.316 569.775 512.823C572.633 511.633 575.191 510.534 578.992 509.059C582.048 507.873 586.447 506.794 587 503.032C586.982 506.285 587.906 509.453 583.6 515.316C579.935 520.285 577 524.316 576.35 531.816C576.323 529.048 575.875 527.419 574.799 527.177C574.171 527.034 572.75 527.478 571.403 527.99V528C563.173 531.325 554.377 534.835 545.419 536.516C541.269 537.294 540.889 537.903 542.6 542.011C543.369 543.857 544.21 547.505 544.6 550.117C545.467 555.928 545.532 555.943 557.991 551.299C563.216 549.352 568.841 547.273 570.491 546.681C571.807 546.209 574.623 545.376 575.57 542.316C576.07 542.816 577.519 544.688 579.447 546.255C582.087 548.4 587.402 551.292 587.447 551.316C580.448 549.316 574.046 552.195 570.989 553.496C566.314 555.486 558.902 558.421 554.517 560.066C550.133 561.71 546.511 563.166 546.35 563.326C546.191 563.484 547.198 566.155 548.6 569.326C553.672 580.795 560.489 606.364 562.72 622.366C565 635.816 564.086 635.511 573.626 632.811C577.952 631.586 582.736 630.433 584.257 630.244C585.778 630.055 588.365 629.208 590.007 628.359C591.648 627.511 593.09 627.006 593.09 627.237C593.092 627.466 594.868 627.232 597.157 626.718C600.297 626.014 601.62 626.101 602.25 627.077C602.784 627.904 603.262 628.008 603.741 627.368C604.79 625.971 619.723 625.476 620.55 626.81C621 627.536 620.31 627.97 619.302 628.016C613.243 628.295 605.074 630.084 605.58 630.906C605.88 631.393 603.394 632.314 600.235 632.916C594.76 633.958 587.216 635.613 578.491 637.836C576.291 638.396 572.341 639.179 569.71 639.516C565.093 640.106 565.064 640.036 565.6 643.185C566.602 649.066 568.089 668.305 568.09 675.118V681.916C566.634 681.612 565.302 681.118 563.88 680.755C564.547 642.919 559.149 609.422 548.218 582.618C545.392 575.69 544.348 573.907 542.462 574.516C541.833 574.72 541.11 575.112 540.196 575.816L538.01 577.496L539.2 592.907C539.907 602.821 539.991 620.44 539.55 642.005C539.118 663.204 539 669.816 539.48 675.183C538.33 675.055 536.598 674.866 536.09 674.916L535.992 660.033C535.992 643.484 535.992 643.497 531.617 645.316C529.899 646.032 526.019 647.207 522.994 647.916C519.969 648.625 517.044 649.534 516.494 649.916C515.944 650.297 513.533 651.13 511.139 651.816C508.744 652.501 506.044 653.376 505.139 653.716C503.711 654.25 503.671 654.018 504.857 652.561C505.609 651.637 509.437 649.93 513.361 648.768C517.285 647.605 523.644 645.634 527.494 644.389L534.496 642.127L534.457 625.746C534.385 594.333 532.41 584.608 525.729 582.778C523.4 582.14 517.768 580.53 513.215 579.201C508.476 577.82 506.037 577.139 504.688 577.446C503.338 577.752 503.076 579.042 502.688 581.59C502.37 583.666 501.626 588.062 501.035 591.362C499.759 598.488 496.391 636.087 495.414 654.112L494.723 666.864H494.797L491.742 666.992C492.189 658.637 492.625 647.909 492.896 635.362C493.455 609.532 494.177 595.993 495.451 587.435C497.163 575.938 497.161 575.46 495.412 574.182C494.806 573.739 494.33 573.553 493.881 573.516C492.716 573.418 491.646 575.781 488.1 584.418C478.008 608.998 475.372 619.207 472.2 645.361C469.783 665.289 471.779 661.36 469.8 674.465C469.5 676.316 469.77 677.527 469.77 677.706C468.47 677.316 466.039 677.959 463.95 678.458C466.094 676.906 466.992 675.716 466.992 674.893C466.992 673.691 464.673 672.684 459.434 671.023C456.962 670.239 455.337 669.672 450.24 668.203C443.955 666.392 440.438 664.189 445.49 665.227C447.14 665.567 450.64 666.286 453.268 666.829C455.895 667.373 458.822 668.226 459.77 668.723C460.717 669.221 463.455 669.954 465.855 670.352C467.509 670.624 468.402 670.843 469.008 671.149V659.621C468.913 656.445 468.606 655.86 466.434 655.86C464.938 655.86 464.141 655.434 464.512 654.834C464.859 654.269 465.881 653.933 466.783 654.084C468.593 654.39 469.443 650.462 470.379 637.469C471.127 627.094 475.673 599.397 477.865 591.86C479.803 585.196 484.243 571.643 485.443 568.729C486 567.377 485.036 566.951 479.805 566.076C476.334 565.494 471.467 564.563 468.992 564.016C464.629 563.05 460.546 563.613 458.492 565.116C457.942 565.518 455.692 566.049 453.492 566.416C451.292 566.782 448.142 567.232 446.492 567.516C443.744 567.986 443.643 567.834 445.291 566.512C446.28 565.718 450.087 564.503 453.748 563.813C461.46 562.358 461.077 562.134 446.992 558.766C439.85 557.059 436.456 556.841 425.742 557.316C424.099 557.376 423.031 557.478 421.672 557.516C412.292 557.777 408.948 556.49 418.742 555.308C427.067 554.303 428.209 553.433 423.572 551.496C421.144 550.483 420.196 550.013 418.891 550.316C417.586 550.618 415.924 551.773 412.072 554.236C411.151 554.825 410.881 555.003 410 555.566C419.464 548.365 419.947 548.755 420.947 546.755C421.403 545.843 422.49 541.685 422.78 541.956C423.27 542.413 425.9 543.31 428.863 544.312C440.472 548.235 466.878 555.239 482.992 558.373C498.094 561.311 499.992 560.231 499.992 548.706C499.992 541.179 499.901 540.916 497.684 540.916C496.413 540.916 491.801 540.033 487.434 538.966C483.067 537.899 475.442 536.068 470.492 534.866C454.146 530.894 437.579 525.909 431.666 523.276C431.129 523.034 431.147 523.109 430.646 522.898C428.159 521.844 425.798 520.921 425.68 521.076C426 519.816 422.702 507.316 419.309 499.855ZM519.1 549.3C519.1 556.693 518.753 563.009 518.34 563.266C517.928 563.522 517.639 559.582 517.818 554.579C518.313 540.781 517.856 539.36 512.416 537.837C506.78 536.259 505.855 536.993 504.94 546.124C502.802 567.449 503.5 568.316 518.201 576.001C522.211 578.003 525.942 579.387 526.492 579.073C537.19 572.981 539.992 567.798 539.992 554.111L540.09 542.716L536.594 539.261C533.366 536.035 532.835 535.916 526.094 535.916H519.09L519.1 549.3Z" fill="white"/>
<path d="M389.862 669.096C390.422 669.013 391.61 669.409 393.458 670.287C395.348 671.184 397.862 671.918 399.044 671.918C401.159 671.918 407.093 674.52 407.093 675.446C407.092 677.029 391.2 672.711 390.022 670.807C389.369 669.75 389.301 669.179 389.862 669.096Z" fill="white"/>
<path d="M378.481 670.053C380.97 669.781 387.587 670.985 388.997 672.395C390.363 673.759 390.359 673.918 388.958 673.918C388.107 673.918 387.125 673.629 386.774 673.281C386.423 672.93 384.493 672.514 382.481 672.356C380.47 672.197 378.318 671.525 377.7 670.864C377.266 670.397 377.636 670.144 378.464 670.053H378.481Z" fill="white"/>
<path d="M392.591 657.494C394.24 657.816 395.779 658.27 396.009 658.5C397.178 659.669 395.24 659.567 392.593 658.319L389.593 656.908L392.591 657.494Z" fill="white"/>
<path d="M411.69 653.459C412.105 653.459 412.849 653.637 414.017 654.043C415.708 654.633 417.093 655.522 417.093 656.018C417.093 656.512 416.979 656.875 416.843 656.819C416.707 656.766 415.502 656.415 414.167 656.041C412.833 655.667 411.562 654.825 411.343 654.167C411.192 653.712 411.279 653.497 411.69 653.459Z" fill="white"/>
<path d="M453.593 648.541C455.243 648.893 457.022 649.572 457.544 650.051C459.11 651.487 455.831 650.99 453.093 649.377L450.593 647.905L453.593 648.541Z" fill="white"/>
<path d="M532.712 639.92C533.537 639.92 533.933 640.37 533.593 640.92C533.252 641.47 532.301 641.92 531.476 641.92C530.651 641.92 530.253 641.47 530.593 640.92C530.933 640.37 531.887 639.92 532.712 639.92Z" fill="white"/>
<path d="M349.874 614.763C349.757 614.955 349.101 615.666 349.103 615.734C349.107 616.747 361.649 621.921 364.083 621.921C365.232 621.921 367.935 622.821 370.091 623.921C372.247 625.021 374.678 625.921 375.493 625.921C377.059 625.921 378.636 627.714 377.802 628.548C377.528 628.82 374.444 628.131 370.948 627.021C361.403 623.989 346.727 619.892 345.593 619.941C345.168 619.959 344.59 620.282 343.999 620.665C345.492 619.418 347.36 617.622 349.874 614.763Z" fill="white"/>
<path d="M642.991 619.207C643.737 619.015 644.278 618.976 644.583 619.052C644.889 619.128 644.959 619.329 644.763 619.643C644.419 620.201 641.918 620.952 639.206 621.311C636.494 621.67 631.758 622.831 628.683 623.889C625.608 624.947 623.091 625.423 623.091 624.948C623.091 623.947 630.75 621.387 636.591 620.436C638.791 620.077 641.671 619.525 642.991 619.207Z" fill="white"/>
<path d="M627.593 620.227C623.898 621.912 619.091 623.15 619.091 622.416C619.091 621.677 622.847 620.316 627.093 619.518L630.593 618.86L627.593 620.227Z" fill="white"/>
<path d="M342.829 621.593C342.453 621.919 342.076 622.206 341.718 622.58L341.548 622.521C341.946 622.246 342.376 621.937 342.829 621.593Z" fill="white"/>
<path d="M407.653 617.92C407.895 617.92 408.093 618.37 408.093 618.92C408.093 619.47 407.615 619.92 407.032 619.92C406.45 619.92 406.253 619.47 406.593 618.92C406.933 618.371 407.411 617.92 407.653 617.92Z" fill="white"/>
<path d="M422.333 616.307C423.107 616.352 423.214 616.52 422.591 616.792C419.41 618.188 409.421 619.295 410.591 618.124C411.141 617.574 414.516 616.853 418.091 616.521C420.121 616.347 421.559 616.258 422.333 616.307Z" fill="white"/>
<path d="M455.093 614.016C455.093 613.597 456.106 613.366 457.343 613.502C458.58 613.638 460.605 613.793 461.843 613.838C463.08 613.883 464.093 614.372 464.093 614.922C464.093 615.92 461.577 616.029 457.343 615.213C456.105 614.975 455.093 614.436 455.093 614.016Z" fill="white"/>
<path d="M419.509 603.807C420.684 603.735 421.508 603.77 421.651 604.016C421.912 604.438 421.784 604.989 421.36 605.239C419.84 606.143 407.606 607.13 408.421 606.283C409.305 605.365 415.984 604.026 419.509 603.807Z" fill="white"/>
<path d="M424.034 602.92C424.552 602.92 425.253 603.37 425.593 603.92C425.933 604.47 425.51 604.92 424.653 604.92C423.796 604.92 423.093 604.47 423.093 603.92C423.093 603.37 423.517 602.92 424.034 602.92Z" fill="white"/>
<path d="M370.985 597.236C372.357 597.105 372.983 597.292 372.659 597.816C372.281 598.424 370.989 598.94 369.784 598.978C367.278 599.042 362.568 600.886 359.968 602.544C360.56 602.064 361.34 601.151 363.187 597.806C363.051 598.599 363.589 598.913 364.843 598.562C367.497 597.815 369.614 597.364 370.985 597.236Z" fill="white"/>
<path d="M615.56 592.573C615.963 592.418 616.399 592.384 616.772 592.455C617.147 592.527 617.456 592.701 617.618 592.965C617.943 593.491 617.286 593.92 616.151 593.92C613.737 593.92 613.493 593.365 615.56 592.573Z" fill="white"/>
<path d="M589.653 590.922C591.771 590.922 592.961 591.327 592.593 591.922C592.253 592.472 590.652 592.922 589.034 592.922C587.417 592.922 586.091 592.472 586.091 591.922C586.091 591.372 587.696 590.922 589.653 590.922Z" fill="white"/>
<path d="M396.593 590.422C401.12 590.422 403.041 591.813 398.843 592.051C397.605 592.123 395.58 592.286 394.343 592.414C393.105 592.543 392.093 592.15 392.093 591.537C392.093 590.885 393.954 590.422 396.593 590.422Z" fill="white"/>
<path d="M594.843 591.258C595.53 590.982 596.655 590.982 597.343 591.258C598.03 591.533 597.468 591.764 596.093 591.764C594.718 591.764 594.155 591.538 594.843 591.258Z" fill="white"/>
<path d="M407.093 589.75C408.193 589.644 409.194 589.636 409.919 589.708C410.644 589.781 411.093 589.933 411.093 590.145C411.092 590.571 409.292 590.918 407.093 590.918C404.893 590.918 403.091 590.741 403.091 590.526C403.091 590.306 404.893 589.958 407.093 589.75Z" fill="white"/>
<path d="M608.854 590.199C610.098 589.961 611.898 589.973 612.854 590.238C613.81 590.486 612.794 590.671 610.593 590.671C608.393 590.671 607.61 590.452 608.854 590.214V590.199Z" fill="white"/>
<path d="M391.239 581.984C393.98 581.397 395.783 581.182 396.521 581.318C397.258 581.454 396.93 581.938 395.411 582.751C394.391 583.297 391.876 584.059 389.823 584.445C383.986 585.539 385.299 583.258 391.239 581.984Z" fill="white"/>
<path d="M399.343 580.234C400.305 579.98 401.88 579.98 402.843 580.234C403.805 580.488 403.017 580.689 401.093 580.689C399.168 580.689 398.381 580.487 399.343 580.234Z" fill="white"/>
<path d="M636.5 577.826C636.339 577.683 636.184 577.536 636.091 577.423C634.659 575.698 629.629 575.872 622.593 577.894C617.117 579.467 612.094 580.035 612.093 579.079C612.093 578.564 613.33 577.851 614.843 577.495C626.459 574.762 634.219 570.905 633.45 569.034C635.21 573.316 634.671 575.24 636.5 577.826Z" fill="white"/>
<path d="M416.843 572.259C417.53 571.983 418.655 571.983 419.343 572.259C420.03 572.534 419.467 572.765 418.091 572.765C416.716 572.765 416.155 572.539 416.843 572.259Z" fill="white"/>
<path d="M421.843 571.259C422.53 570.983 423.655 570.983 424.343 571.259C425.03 571.534 424.467 571.765 423.093 571.765C421.718 571.765 421.156 571.539 421.843 571.259Z" fill="white"/>
<path d="M429.593 568.921C430.418 568.921 431.093 569.371 431.093 569.921C431.093 570.471 430.418 570.921 429.593 570.921C428.768 570.921 428.093 570.471 428.093 569.921C428.093 569.371 428.768 568.921 429.593 568.921Z" fill="white"/>
<path d="M435.731 567.868C437.123 567.339 438.217 567.211 438.765 567.4C439.313 567.589 439.314 568.09 438.526 568.825C438.013 569.304 436.58 570.002 435.343 570.376C432.13 571.347 432.478 569.105 435.731 567.868Z" fill="white"/>
<path d="M420.321 566.982C420.829 566.982 421.091 567.296 421.091 567.921C421.091 568.471 420.081 568.907 418.843 568.907C417.023 568.907 416.878 568.703 418.091 567.921C419.06 567.295 419.814 566.982 420.321 566.982Z" fill="white"/>
<path d="M489.605 311.455C491.026 315.285 493.134 320.445 494.287 322.92C495.44 325.395 497.47 329.86 498.801 332.843C500.866 337.47 509.199 351.02 520.248 367.719C521.812 370.083 523.091 372.215 523.092 372.454C523.092 373.353 529.502 383.51 531.432 385.67C534.269 388.846 534.404 388.736 537.545 380.67C539.098 376.683 541.359 371.171 542.572 368.42C545.259 362.33 549.374 350.515 551.619 342.442C552.395 339.653 553.392 336.614 554.504 333.711C564.254 337.031 575.244 338.467 590.107 334.014L590.15 334.015C589.566 334.124 589.092 334.459 589.092 334.925C589.092 335.503 592.577 335.966 597.342 336.027C612.314 336.212 601.026 337.811 579.9 338.497L560.207 339.138L558.734 343.282C557.924 345.561 555.036 353.725 552.316 361.425C543.857 385.371 534.533 405.901 523.863 424.07C511.971 444.321 511.959 444.453 522.242 443.077C529.94 442.048 539.752 442.569 540.672 444.056C540.967 444.535 540.396 444.963 539.402 445.008C538.408 445.053 536.388 445.289 534.916 445.531C533.445 445.772 531.956 445.494 531.607 444.949C531.26 444.386 530.3 443.923 529.475 443.923C528.65 443.923 528.252 444.375 528.592 444.925C528.986 445.562 525.983 445.925 520.291 445.925H511.371L495.918 466.675C487.418 478.088 477.259 491.924 473.342 497.424C464.011 510.524 461.434 513.586 460.506 512.665C460.084 512.247 460.891 510.672 462.301 509.165C463.71 507.658 469.486 499 475.137 489.925C480.787 480.85 486.696 471.625 488.27 469.425C489.843 467.225 494.386 460.923 498.365 455.423C513.242 434.859 526.073 411.084 523.307 409.205C521.758 408.153 521.807 408.035 523.816 407.982C528.252 407.864 533.119 394.921 529.973 391.611C518.461 379.501 483.092 321.157 483.092 314.277C483.092 313.359 482.364 312.92 481.545 312.958C481.36 312.966 481.183 313.083 480.996 313.136L481.022 313.027C483.644 312.65 486.264 311.243 488.886 309.522L489.605 311.455Z" fill="white"/>
<path d="M592.045 486.332C590.839 489.96 589.838 492.976 589.35 495.302C589.784 492.079 587.876 491.345 584.344 494.171C583.656 494.721 583.092 494.777 583.092 494.292C583.092 493.808 585.118 492.188 587.593 490.693C589.772 489.377 591.312 487.717 592.045 486.332Z" fill="white"/>
<path d="M446.21 435.544C453.425 435.06 461.392 438.55 468.491 445.778L474.39 451.781L473.769 457.005C470.644 483.382 461.453 490.051 429.21 492.716C428 492.816 420.449 492.926 419.343 492.926C417.952 492.935 417.83 493.998 417.83 495.249C417.658 492.159 417.912 489.712 415.09 487.92C419 488.816 422.905 488.76 426.808 488.734L426.813 488.743C436.596 488.687 449.269 487.79 453.593 486.332C462.385 483.368 463.068 482.344 466.56 466.877C466.56 466.877 469.741 460.017 468 455.816C466.875 453.1 463.858 450.14 463.858 450.14C453.971 440.044 446.008 438.481 436.513 444.77C433.295 446.901 430.415 447.848 425.849 448.28C424.736 448.385 419.9 448.389 417.786 448.476C417.903 447.355 418.07 446.316 418.2 445.216C418.303 446.6 418.722 446.99 420.343 446.601C421.58 446.302 424.301 445.751 426.388 445.372C428.787 444.937 431.728 443.242 434.388 440.761C437.823 437.556 441.881 435.835 446.21 435.544Z" fill="white"/>
<path d="M592.337 485.687C592.261 485.893 592.163 486.109 592.045 486.332C592.053 486.307 592.063 486.281 592.071 486.255C592.133 486.138 592.223 485.944 592.337 485.687Z" fill="white"/>
<path d="M596.423 475.509C595.027 479.136 593.121 483.916 592.337 485.687C592.952 484.003 592.122 482.966 589.455 483.98C585.33 485.548 585.696 484.487 589.922 482.622C592.557 481.46 595.205 478.402 596.415 475.511L596.423 475.509Z" fill="white"/>
<path d="M528.343 474.201C529.855 473.971 532.33 473.971 533.843 474.201C535.355 474.43 534.119 474.619 531.093 474.619C528.068 474.619 526.83 474.432 528.343 474.201Z" fill="white"/>
<path d="M518.927 458.52C519.568 458.576 521.105 458.692 522.343 458.782C524.179 458.919 524.315 459.126 523.091 459.917C520.889 461.341 516.844 461.164 517.343 459.668C517.573 458.98 518.285 458.463 518.927 458.52Z" fill="white"/>
<path d="M531.333 458.573C534.29 458.164 536.841 458.119 538.532 458.368C540.224 458.622 541.056 459.167 540.575 459.946C540.02 460.844 538.17 460.835 530.093 459.893L525.593 459.367L531.333 458.573Z" fill="white"/>
<path d="M558.343 457.229C559.305 456.976 560.88 456.976 561.843 457.229C562.805 457.483 562.017 457.687 560.093 457.687C558.168 457.687 557.38 457.478 558.343 457.229Z" fill="white"/>
<path d="M519.343 456.202C520.855 455.972 523.33 455.972 524.843 456.202C526.355 456.433 525.119 456.618 522.093 456.618C519.068 456.618 517.83 456.433 519.343 456.202Z" fill="white"/>
<path d="M358.091 447.948C360.715 447.948 361.218 448.19 360.093 448.917C359.268 449.45 358.366 449.888 358.091 449.888C357.815 449.888 356.918 449.45 356.093 448.917C354.968 448.19 355.467 447.949 358.091 447.948Z" fill="white"/>
<path d="M532.093 447.435C533.442 447.321 534.417 447.306 534.942 447.382C535.467 447.458 535.544 447.629 535.095 447.874C532.471 449.312 521.093 450.241 521.093 449.017C521.093 448.413 522.555 447.906 524.343 447.868C526.13 447.831 529.618 447.646 532.093 447.435Z" fill="white"/>
<path d="M402.214 448.857C383.696 449.155 363.072 449.232 362.511 448.672C362.098 448.259 370.048 447.918 380.177 447.88L398.593 447.839L395.759 446.679L402.214 448.857Z" fill="white"/>
<path d="M348.343 448.228C349.305 447.975 350.88 447.975 351.843 448.228C352.805 448.483 352.017 448.687 350.093 448.687C348.168 448.687 347.38 448.477 348.343 448.228Z" fill="white"/>
<path d="M552.548 442.939C553.819 442.939 555.176 443.241 555.522 443.804C555.825 444.291 554.96 444.901 553.604 445.161C551.092 445.641 550.091 445.241 550.091 443.751C550.091 443.192 551.277 442.939 552.548 442.939Z" fill="white"/>
<path d="M545.905 444.236C546.627 443.948 547.489 443.983 547.821 444.316C548.154 444.648 547.564 444.885 546.511 444.84C545.346 444.791 545.108 444.557 545.905 444.236Z" fill="white"/>
<path d="M365.032 428.917C366.165 428.917 367.091 429.367 367.091 429.917C367.091 430.467 366.446 430.917 365.653 430.917C364.861 430.917 363.933 430.467 363.593 429.917C363.253 429.367 363.899 428.917 365.032 428.917Z" fill="white"/>
<path d="M414.903 419.236C415.625 418.948 416.491 418.983 416.823 419.316C417.156 419.648 416.566 419.886 415.511 419.841C414.346 419.792 414.106 419.557 414.903 419.236Z" fill="white"/>
<path d="M357.093 416.917C357.643 416.917 358.091 417.367 358.091 417.917C358.091 418.467 357.643 418.917 357.093 418.917C356.543 418.917 356.093 418.467 356.093 417.917C356.093 417.367 356.543 416.917 357.093 416.917Z" fill="white"/>
<path d="M367.091 416.917C371.226 416.917 373.967 417.307 373.634 417.847C372.95 418.955 361.15 418.817 360.456 417.696C360.194 417.268 363.177 416.917 367.091 416.917Z" fill="white"/>
<path d="M560.653 414.917C561.511 414.917 561.932 415.367 561.593 415.917C561.253 416.468 560.55 416.917 560.032 416.917C559.515 416.917 559.091 416.467 559.091 415.917C559.091 415.367 559.796 414.917 560.653 414.917Z" fill="white"/>
<path d="M587.093 413.917C588.258 413.917 588.933 414.367 588.593 414.917C588.253 415.467 587.578 415.917 587.093 415.917C586.608 415.917 585.933 415.467 585.593 414.917C585.253 414.367 585.929 413.917 587.093 413.917Z" fill="white"/>
<path d="M580.321 413.978C580.829 413.978 581.093 414.291 581.093 414.917C581.093 415.467 580.08 415.904 578.843 415.904C577.024 415.904 576.88 415.699 578.093 414.917C579.062 414.291 579.814 413.978 580.321 413.978Z" fill="white"/>
<path d="M593.179 413.47C593.861 413.47 594.696 413.583 595.616 413.859C598.557 414.737 598.547 414.744 594.644 414.831C592.081 414.888 591.036 414.578 591.667 413.945C591.969 413.64 592.497 413.47 593.179 413.47Z" fill="white"/>
<path d="M475.593 408.559C482.515 407.599 500.148 406.99 508.532 407.194C511.326 407.262 513.091 407.421 513.093 407.686C513.093 408.277 510.505 409.041 507.343 409.389C504.18 409.737 498.969 410.378 495.763 410.814C492.556 411.25 486.031 411.484 481.263 411.333C476.494 411.182 464.493 411.48 454.593 411.996C444.693 412.512 434.484 413.085 431.905 413.267C429.327 413.448 426.627 413.224 425.905 412.766C425.121 412.268 427.204 411.884 431.093 411.805C438.641 411.654 442.24 411.305 447.093 410.245C449.018 409.825 455.318 409.4 461.093 409.298C466.867 409.196 473.393 408.865 475.593 408.559Z" fill="white"/>
<path d="M499.843 411.255C500.53 410.979 501.655 410.979 502.343 411.255C503.03 411.53 502.467 411.761 501.093 411.761C499.718 411.761 499.155 411.535 499.843 411.255Z" fill="white"/>
<path d="M640.94 411.195C642.732 410.983 645.361 410.983 646.847 411.195C648.314 411.419 646.884 411.597 643.593 411.597C640.387 411.593 639.362 411.406 640.94 411.195Z" fill="white"/>
<path d="M622.843 410.257C623.53 409.981 624.655 409.981 625.343 410.257C626.03 410.532 625.467 410.763 624.093 410.763C622.717 410.763 622.155 410.537 622.843 410.257Z" fill="white"/>
<path d="M580.091 405.906C581.255 405.906 581.933 406.356 581.593 406.906C581.253 407.456 580.576 407.906 580.091 407.906C579.606 407.906 578.933 407.456 578.593 406.906C578.253 406.356 578.925 405.907 580.091 405.906Z" fill="white"/>
<path d="M567.161 406.08C570.749 406.137 574.34 406.496 574.718 407.106C574.99 407.544 571.558 407.903 567.093 407.903C561.741 407.903 559.194 407.551 559.616 406.865C559.987 406.269 563.572 406.024 567.161 406.08Z" fill="white"/>
<path d="M552.343 407.232C553.305 406.982 554.88 406.982 555.843 407.232C556.805 407.481 556.017 407.689 554.093 407.689C552.168 407.689 551.38 407.485 552.343 407.232Z" fill="white"/>
<path d="M800.013 388.48C799.36 391.823 798.613 394.677 797.8 397.34C797.809 395.718 788.146 394.725 771.759 394.689C759.11 394.651 754.121 394.394 757.091 393.868C759.566 393.432 765.019 393.043 769.206 393.001C773.394 392.96 779.133 392.489 781.96 391.952C784.787 391.416 789.576 390.894 792.603 390.796C796.37 390.672 799.373 389.638 800.013 388.48Z" fill="white"/>
<path d="M568.12 395.22C569.206 395.054 570.093 395.368 570.093 395.914C570.092 396.461 568.893 396.908 567.427 396.908C564.491 396.908 564.988 395.698 568.12 395.22Z" fill="white"/>
<path d="M561.386 395.28C561.567 395.2 561.816 395.238 562.091 395.408C562.641 395.749 563.093 396.223 563.093 396.465C563.093 396.706 562.641 396.906 562.091 396.906C561.541 396.906 561.093 396.428 561.093 395.846C561.093 395.554 561.208 395.359 561.386 395.28Z" fill="white"/>
<path d="M581.343 395.005C587.007 395.073 588.809 395.356 587.093 395.906C583.43 397.078 573.093 397.078 573.093 395.906C573.093 395.311 576.443 394.945 581.343 395.005Z" fill="white"/>
<path d="M590.907 395.223C591.629 394.939 592.489 394.968 592.821 395.301C593.154 395.632 592.564 395.869 591.511 395.823C590.35 395.775 590.119 395.54 590.907 395.223Z" fill="white"/>
<path d="M897.097 373.189C897.593 372.383 897.95 375.309 898.003 382.225L898.093 394.026C897.058 394.203 895.913 394.251 894.755 394.304L895.351 386.529C895.965 378.529 896.6 373.994 897.097 373.189Z" fill="white"/>
<path d="M474.759 391.081C475.683 391.134 476.093 391.36 476.093 391.767C476.093 392.393 474.63 392.908 472.843 392.911C471.055 392.915 466.442 393.204 462.593 393.552C458.743 393.899 455.918 393.835 456.315 393.405C456.713 392.976 458.738 392.54 460.815 392.438C462.893 392.336 467.18 391.885 470.343 391.44C472.395 391.152 473.834 391.032 474.759 391.081Z" fill="white"/>
<path d="M479.032 390.907C479.615 390.907 480.093 391.357 480.093 391.907C480.093 392.457 479.896 392.907 479.653 392.907C479.411 392.907 478.932 392.457 478.593 391.907C478.253 391.357 478.449 390.907 479.032 390.907Z" fill="white"/>
<path d="M607.517 387.786C610.74 387.245 613.653 387.113 615.28 387.286C616.908 387.46 617.252 387.945 615.339 388.627C612.674 389.579 614.299 390.407 618.839 390.41C627.512 390.41 650.37 391.856 650.946 392.43C651.412 392.896 615.827 392.491 612.589 391.992C612.037 391.909 605.489 391.996 598.036 392.189C590.582 392.381 584.057 392.431 583.536 392.306C583.015 392.181 581.351 391.804 579.839 391.472C573.513 390.077 577.586 388.91 588.542 388.978C594.841 389.019 603.379 388.482 607.517 387.786Z" fill="white"/>
<path d="M572.343 388.923C573.855 388.923 575.093 389.358 575.093 389.907C575.093 391.172 573.047 391.172 571.091 389.907C569.922 389.154 570.2 388.923 572.343 388.923Z" fill="white"/>
<path d="M781.38 388.407C783.615 388.279 785.023 388.612 784.821 389.22C784.396 390.494 781.065 390.798 778.509 389.796C776.161 388.876 776.556 388.683 781.38 388.407Z" fill="white"/>
<path d="M665.431 386.021C686.405 386.1 706.357 386.404 704.489 386.851C702.781 387.259 687.256 387.693 669.989 387.814C652.722 387.935 633.994 388.208 628.372 388.419C618.402 388.793 614.006 387.772 620.235 386.527C622.46 386.081 644.456 385.941 665.431 386.021Z" fill="white"/>
<path d="M800.843 381.866C800.684 384.031 800.454 386.1 800.13 387.894C800.104 387.691 799.99 387.488 799.792 387.289C798.571 386.07 783.908 385.003 765.593 384.803L746.593 384.595L760.593 383.769C768.293 383.315 776.393 382.782 778.593 382.581C779.864 382.466 792.069 382.104 800.843 381.866Z" fill="white"/>
<path d="M625.806 376.243C628.457 376.206 629.703 376.387 629.093 376.761C627.035 378.018 616.455 378.767 614.876 377.765C614.17 377.317 613.818 376.947 614.093 376.909C619.099 376.493 623.154 376.281 625.806 376.243Z" fill="white"/>
<path d="M653.843 376.243C654.53 375.968 655.655 375.968 656.343 376.243C657.03 376.521 656.468 376.747 655.091 376.747C653.716 376.747 653.156 376.519 653.843 376.243Z" fill="white"/>
<path d="M841.091 375.216C856.543 375.254 856.958 375.296 847.593 375.969C833.74 376.962 806.466 376.894 817.091 375.89C821.216 375.499 832.016 375.178 841.091 375.216Z" fill="white"/>
<path d="M607.091 369.921C607.641 369.921 608.093 370.371 608.093 370.921C608.093 371.471 607.641 371.921 607.091 371.921C606.541 371.921 606.093 371.471 606.093 370.921C606.093 370.371 606.541 369.921 607.091 369.921Z" fill="white"/>
<path d="M612.784 369.834C619.444 369.645 623.914 369.555 626.772 369.646C629.631 369.736 630.876 369.992 631.091 370.423C631.771 371.788 611.446 372.299 610.604 370.938C610.238 370.348 611.153 369.887 612.784 369.834Z" fill="white"/>
<path d="M798.394 366.928C815.683 366.89 826.717 367.041 825.593 367.43C824.652 367.755 772.253 369.076 749.093 369.36C743.318 369.431 738.143 369.733 737.593 370.035C735.205 371.341 720.092 371.104 720.077 369.759C720.077 368.667 719.907 368.661 719.231 369.722C718.722 370.525 716.513 371 713.497 370.958C710.798 370.92 691.605 371.104 670.843 371.368C639.347 371.771 627.313 371.285 633.343 369.855C638.366 368.662 746.525 367.008 798.394 366.917V366.928Z" fill="white"/>
<path d="M667.177 337.789C684.654 342.524 702.498 344.775 721.001 342.584C721.105 342.596 721.209 342.634 721.313 342.634C720.953 342.698 719.711 342.732 719.665 342.808C719.384 343.262 715.785 343.917 711.48 344.319L709.74 344.473C705.433 344.876 701.826 345.545 701.536 346.015C700.602 347.523 684.718 347.084 680.788 345.442C677.863 344.22 673.319 344.062 654.915 344.527C638.98 344.929 633.021 344.786 634.091 344.023C634.915 343.437 636.378 342.943 637.341 342.943C638.303 342.943 639.091 342.475 639.091 341.925C639.091 341.356 642.041 340.927 645.94 340.927C660.238 340.927 669.193 339.355 666.874 337.774L667.177 337.789Z" fill="white"/>
<path d="M617.843 343.929C624.553 343.929 622.792 345.566 615.343 346.27C607.033 347.055 604.155 347.002 601.634 346.017C599.585 345.215 609.459 343.929 617.843 343.929Z" fill="white"/>
<path d="M525.654 199.242C527.429 198.3 528.831 197.965 532.478 198.003C533.693 198.014 535.158 198.057 536.97 198.132C553.685 198.65 557.458 199.686 564.484 205.38C566.702 207.155 569.366 208.932 570.328 209.227C577.649 211.52 586.524 217.51 590.74 223.057C594.512 227.938 595.769 230.454 598.062 237.406C600.059 243.471 600.354 247.021 598.949 247.539C598.357 247.763 598.506 247.982 599.32 247.982C600.353 248.056 600.576 248.72 600.576 251.531C600.576 256.116 599.393 258.114 598.949 254.416C598.798 252.936 598.945 251.754 599.24 251.754C599.537 251.754 599.832 251.235 599.832 250.57C599.832 249.536 599.683 249.537 598.648 250.351C597.686 251.165 597.54 251.165 597.687 250.203C597.983 248.798 596.948 243.769 596.283 243.326C595.984 243.178 595.842 245.248 595.913 247.91C595.988 251.46 595.912 252.349 595.394 251.018C595.098 249.982 594.728 247.984 594.728 246.578C594.58 242.954 593.175 240.885 593.175 244.287C593.175 246.285 592.954 246.58 592.214 245.914C591.622 245.472 591.028 245.321 590.734 245.544C590.32 245.958 590.293 245.856 588.668 239.528C588.552 239.076 588.428 238.591 588.294 238.073C587.037 232.97 586.15 231.048 585.04 231.048C584.671 231.048 585.113 232.822 585.853 234.893C586.732 237.238 587.332 241.013 587.65 245.402C588.693 251.275 589.168 257.249 588.201 258.216C588.045 258.37 587.923 258.749 587.799 259.134C587.766 259.239 587.732 259.344 587.697 259.446C587.541 262.082 587.31 264.693 586.962 267.139L585.705 276.014L587.554 279.712C590.217 284.963 590.81 289.105 589.109 290.954C588.369 291.768 587.407 292.432 587.036 292.432C585.409 292.432 583.56 294.948 583.56 297.092C583.56 298.276 582.228 301.973 580.675 305.301C579.048 308.556 577.496 312.919 577.273 314.842C576.592 319.428 573.5 322.316 570.556 323.118C567.612 323.92 562.505 324.434 559.613 324.222C555.904 328.477 553.375 336.129 551.618 342.445C549.373 350.518 545.259 362.333 542.572 368.423C541.358 371.174 539.097 376.686 537.544 380.673C534.403 388.74 534.268 388.849 531.431 385.674C529.501 383.514 523.091 373.357 523.091 372.459C523.091 372.219 521.813 370.087 520.247 367.722C509.198 351.023 500.865 337.475 498.8 332.847C497.469 329.865 495.44 325.399 494.287 322.924C493.133 320.449 491.026 315.289 489.605 311.458L487.845 306.716C487.384 306.549 486.962 306.402 486.54 306.254C486.017 306.072 485.495 305.89 484.898 305.67C484.799 305.754 484.664 305.877 484.494 306.031C482.879 307.491 478.166 311.754 472.623 312.771C473.214 311.588 474.249 310.181 474.841 309.664C476.616 308.332 475.579 308.112 470.033 308.925C465.743 309.443 464.338 309.369 462.119 308.408C460.566 307.742 459.308 306.854 459.308 306.484C459.308 305.153 462.637 303.674 466.927 303.156C472.104 302.565 480.164 299.384 484.972 295.982C486.895 294.651 488.818 293.318 489.189 293.023C489.635 292.727 489.783 292.357 489.56 292.062C489.338 291.841 488.304 292.358 487.269 293.097C486.307 293.911 484.458 294.799 483.275 295.094C481.426 295.464 481.646 295.243 484.531 293.32C489.486 290.14 489.855 288.808 485.122 291.47C475.581 296.942 458.646 299.752 450.214 297.312C444.593 295.684 444.741 294.355 450.658 293.172C453.172 292.728 457.24 291.321 459.681 290.138C461.211 289.463 462.989 288.651 464.445 287.986C465.383 287.558 466.187 287.19 466.708 286.959C469.149 285.922 468.777 285.922 461.16 286.293C450.361 286.81 438.825 285.11 435.275 282.521C434.092 281.634 434.016 281.337 434.83 280.302C435.569 279.414 437.123 279.119 440.673 279.119C443.336 279.119 447.553 278.822 449.994 278.379C452.508 278.009 456.131 277.492 458.054 277.269C463.971 276.53 461.382 275.94 451.324 275.717C440.526 275.495 434.758 274.09 427.583 269.8C423.294 267.212 420.335 264.622 420.927 263.957C421.149 263.809 423.515 264.475 426.251 265.437C429.432 266.62 432.686 267.286 435.126 267.211C437.272 267.138 438.382 266.99 437.642 266.767C435.793 266.249 436.828 265.066 439.195 265.066C440.304 265.066 441.561 264.771 442.005 264.476C442.523 264.18 439.343 263.957 434.98 263.957C426.549 263.883 422.848 263.069 418.484 260.111C415.082 257.818 414.567 255.156 417.599 255.896C420.631 256.633 432.02 256.634 435.275 255.821L438.234 255.154L434.98 254.784C432.317 254.414 431.651 254.045 431.503 252.639C431.207 251.013 431.355 251.013 438.822 251.013C444.516 251.013 447.255 250.644 450.066 249.608C455.095 247.612 463.009 243.764 463.009 243.173C463.009 242.95 461.086 242.953 458.646 243.248C455.392 243.618 452.434 243.322 446.665 242.064C437.421 240.068 435.941 239.18 442.597 239.697C446.147 239.993 447.478 239.846 447.478 239.254C447.478 238.735 447.848 238.587 448.218 238.81C448.664 239.033 448.955 238.958 448.955 238.663C448.955 238.294 447.181 237.405 445.111 236.665C440.229 234.964 439.489 234.3 441.56 233.634C442.447 233.338 443.558 233.485 444.001 233.929C445.037 234.965 454.949 234.965 458.868 233.929C460.496 233.485 463.232 232.524 464.859 231.785C466.486 231.119 469.148 230.083 470.775 229.566C479.65 226.755 489.783 219.507 492.667 213.886C493.481 212.333 495.478 210.189 497.179 209.079C499.248 207.674 499.841 206.934 499.101 206.786C497.696 206.49 484.532 209.745 478.245 211.89C475.879 212.703 473.808 213.221 473.585 213.073C472.772 212.26 483.864 208.266 493.701 205.825C495.328 205.382 498.141 204.568 499.99 203.902C506.868 201.535 508.644 201.239 515.669 200.945C520.773 200.723 523.657 200.203 525.654 199.242Z" fill="#1B1B1F"/>
</svg>
