<svg width="1000" height="1000" viewBox="0 0 1000 1000" fill="none" xmlns="http://www.w3.org/2000/svg">
<path d="M472.363 121.094C412.598 125 351.855 144.922 300.684 177.441C258.008 204.59 220.605 240.82 193.652 281.25C142.578 357.91 121.582 451.465 134.863 542.48C150.977 652.637 212.207 746.094 308.008 806.64C374.121 848.437 460.352 867.773 541.016 858.887C600.977 852.246 654.004 832.617 704.199 798.34C778.027 747.949 831.348 674.023 855.469 588.867C863.477 560.351 866.895 537.598 867.773 505.859C868.555 481.348 867.48 464.258 863.77 436.328C861.328 418.75 859.473 411.133 860.742 424.316C862.793 444.726 863.184 452.148 863.184 466.797C863.086 488.476 861.914 491.699 860.937 472.656C859.668 446.875 858.594 447.754 858.496 474.609C858.398 498.437 857.617 508.301 854.102 533.301C852.539 544.238 846.289 574.512 844.727 578.613C843.066 582.812 842.871 581.25 844.238 575.293C845.02 572.168 846.094 566.992 846.582 563.867C847.168 560.742 848.242 554.101 849.121 549.316C851.66 534.18 855.371 501.953 855.859 489.746C856.348 477.246 856.25 477.832 853.027 499.023C852.246 504.687 851.074 511.719 850.586 514.648C850.098 517.578 849.316 522.851 848.73 526.367C847.949 532.324 843.848 552.93 843.457 553.32C843.359 553.418 843.164 535.254 843.066 512.89C842.969 484.277 842.578 468.848 841.602 460.937L840.137 449.707L840.039 471.68C839.941 508.789 836.328 536.719 826.758 574.219C824.902 581.445 822.461 589.551 821.387 592.285C819.043 597.754 819.141 596.875 823.242 581.543C830.664 553.711 835.742 521.973 836.621 498.047C837.207 480.371 836.719 476.074 835.547 489.746C835.156 494.043 834.473 500.586 833.984 504.394C833.496 508.105 833.105 511.816 833.008 512.598C833.008 513.379 832.715 513.769 832.422 513.379C832.129 513.086 831.836 505.859 831.836 497.363C831.934 488.867 831.543 477.344 831.152 471.68C830.371 461.426 830.371 461.426 830.273 477.539C830.176 495.605 829.102 507.031 825.586 526.367C815.234 582.812 793.164 634.18 760.937 677.246C708.496 747.07 634.863 790.527 549.316 801.953C530.469 804.492 491.504 804.98 474.121 802.93C424.805 797.07 380.957 782.324 339.355 757.617C297.949 733.105 257.91 692.773 231.836 649.414C200.586 597.265 184.277 530.176 188.379 471.191C191.113 432.812 197.949 401.465 210.449 370.703C233.887 312.695 266.797 268.848 313.086 234.375C356.25 202.051 405.371 182.812 462.891 175.586C479.199 173.535 534.082 173.828 551.27 176.074C595.41 181.836 630.078 193.262 663.672 212.988C674.609 219.433 697.656 233.984 701.953 237.109C706.543 240.527 706.836 239.16 702.344 235.254C689.355 223.828 675 213.672 658.398 204.101C653.418 201.269 649.512 198.73 649.805 198.535C650.293 198.047 664.746 205.371 673.34 210.449C676.562 212.305 680.859 214.746 682.812 215.82C690.918 220.215 713.086 234.082 722.754 240.82C734.766 249.219 741.016 254.394 750.781 263.965C754.59 267.676 757.812 270.508 757.812 270.019C757.812 267.676 742.285 248.144 731.738 237.207C725 230.273 719.824 224.609 720.215 224.609C721.387 224.609 736.621 237.793 746.973 247.851C752.344 253.125 758.887 260.351 761.621 264.062C764.355 267.773 766.602 270.508 766.602 270.215C766.602 268.848 762.012 261.426 757.031 254.785C754.004 250.683 749.512 244.824 747.168 241.601C737.207 228.32 717.48 207.617 712.402 205.078C710.84 204.297 709.277 203.32 708.984 203.027C708.691 202.637 705.859 200.781 702.637 198.926C696.387 195.215 688.086 188.574 688.867 187.793C689.453 187.207 693.066 189.551 703.613 197.266C714.941 205.664 715.332 205.859 713.965 203.223C711.621 198.926 701.758 191.992 671.387 173.535C631.934 149.609 579.297 130.469 532.715 123.144C517.773 120.898 490.625 119.922 472.363 121.094ZM805.566 628.906C804.395 631.055 803.125 632.519 802.832 632.226C802.148 631.543 805.762 625 806.836 625C807.324 625 806.738 626.758 805.566 628.906Z" fill="#B22222"/>
<path d="M543.164 120.605C543.359 120.898 547.07 121.582 551.367 122.07C559.863 123.242 583.691 128.808 591.113 131.348C599.414 134.18 597.168 132.226 588.574 129.101C575.586 124.414 540.332 117.773 543.164 120.605Z" fill="#B22222"/>
<path d="M777.344 277.246C777.344 277.832 777.734 278.516 778.32 278.808C778.906 279.101 779.004 278.711 778.711 277.93C778.027 276.172 777.344 275.879 777.344 277.246Z" fill="#B22222"/>
<path d="M760.742 300.098C760.742 301.953 764.551 306.641 764.648 304.883C764.648 304.102 763.77 302.441 762.695 301.074C761.426 299.414 760.742 299.023 760.742 300.098Z" fill="#B22222"/>
<path d="M791.016 312.5C792.09 314.648 793.262 316.406 793.457 316.406C793.75 316.406 793.066 314.648 791.992 312.5C790.918 310.352 789.746 308.594 789.551 308.594C789.258 308.594 789.941 310.352 791.016 312.5Z" fill="#B22222"/>
</svg>
