<svg width="1000" height="1000" viewBox="0 0 1000 1000" fill="none" xmlns="http://www.w3.org/2000/svg">
<path d="M473.372 131.168C413.609 135.074 352.871 154.993 301.702 187.509C259.028 214.655 221.628 250.881 194.676 291.306C143.605 367.958 122.61 461.502 135.89 552.508C152.003 662.651 213.23 756.098 309.025 816.638C375.135 858.43 461.361 877.764 542.02 868.879C601.978 862.239 655.002 842.612 705.195 808.338C779.019 757.953 832.336 684.036 856.456 598.889C864.464 570.377 867.881 547.625 868.76 515.89C869.541 491.382 868.467 474.294 864.756 446.367C862.315 428.791 860.46 421.174 861.729 434.357C863.78 454.764 864.171 462.186 864.171 476.832C864.073 498.51 862.901 501.732 861.925 482.691C860.655 456.913 859.581 457.791 859.483 484.644C859.386 508.469 858.604 518.332 855.089 543.329C853.527 554.265 847.277 584.535 845.715 588.636C844.054 592.835 843.859 591.273 845.226 585.316C846.008 582.192 847.082 577.017 847.57 573.892C848.156 570.767 849.23 564.127 850.109 559.343C852.648 544.208 856.358 511.985 856.847 499.779C857.335 487.28 857.237 487.866 854.015 509.055C853.234 514.719 852.062 521.749 851.574 524.679C851.085 527.608 850.304 532.881 849.718 536.396C848.937 542.352 844.836 562.956 844.445 563.346C844.347 563.444 844.152 545.282 844.054 522.921C843.957 494.311 843.566 478.883 842.59 470.974L841.125 459.744L841.027 481.715C840.93 518.82 837.317 546.746 827.747 584.242C825.891 591.468 823.45 599.573 822.376 602.307C820.032 607.775 820.13 606.896 824.231 591.566C831.653 563.737 836.731 532.002 837.61 508.079C838.195 490.405 837.707 486.109 836.535 499.779C836.145 504.075 835.461 510.618 834.973 514.426C834.485 518.136 834.094 521.847 833.996 522.628C833.996 523.409 833.703 523.8 833.411 523.409C833.118 523.116 832.825 515.89 832.825 507.395C832.922 498.9 832.532 487.378 832.141 481.715C831.36 471.462 831.36 471.462 831.262 487.573C831.165 505.638 830.09 517.062 826.575 536.396C816.224 592.835 794.155 644.196 761.93 687.258C709.492 757.075 635.863 800.527 550.321 811.951C531.474 814.49 492.511 814.978 475.13 812.928C425.816 807.069 381.971 792.325 340.371 767.62C298.967 743.111 258.93 702.784 232.858 659.429C201.609 607.287 185.302 540.204 189.403 481.226C192.137 442.852 198.973 411.508 211.472 380.749C234.908 322.748 267.817 278.905 314.103 244.436C357.265 212.116 406.383 192.88 463.9 185.654C480.207 183.603 535.087 183.896 552.274 186.142C596.412 191.903 631.078 203.328 664.67 223.052C675.607 229.497 698.652 244.046 702.949 247.17C707.539 250.588 707.832 249.221 703.34 245.315C690.352 233.891 675.997 223.736 659.397 214.166C654.417 211.335 650.51 208.796 650.803 208.6C651.292 208.112 665.744 215.436 674.337 220.513C677.56 222.368 681.856 224.81 683.809 225.884C691.914 230.278 714.081 244.143 723.749 250.881C735.76 259.278 742.009 264.454 751.774 274.023C755.583 277.733 758.805 280.565 758.805 280.077C758.805 277.733 743.279 258.204 732.733 247.268C725.995 240.335 720.819 234.672 721.21 234.672C722.382 234.672 737.615 247.854 747.966 257.911C753.337 263.184 759.879 270.41 762.614 274.121C765.348 277.831 767.594 280.565 767.594 280.272C767.594 278.905 763.004 271.484 758.024 264.844C754.997 260.743 750.505 254.884 748.161 251.662C738.201 238.382 718.475 217.682 713.398 215.143C711.835 214.362 710.273 213.385 709.98 213.092C709.687 212.702 706.855 210.846 703.633 208.991C697.383 205.281 689.083 198.641 689.864 197.859C690.45 197.274 694.063 199.617 704.609 207.331C715.937 215.729 716.327 215.924 714.96 213.287C712.616 208.991 702.754 202.058 672.384 183.603C632.933 159.68 580.3 140.542 533.72 133.218C518.779 130.972 491.633 129.996 473.372 131.168ZM806.557 638.924C805.385 641.072 804.115 642.537 803.822 642.244C803.139 641.56 806.752 635.018 807.826 635.018C808.314 635.018 807.728 636.775 806.557 638.924Z" fill="#B22222"/>
<path d="M544.169 130.679C544.364 130.972 548.075 131.656 552.371 132.144C560.867 133.316 584.694 138.882 592.115 141.42C600.416 144.252 598.17 142.299 589.576 139.175C576.589 134.488 541.337 127.848 544.169 130.679Z" fill="#B22222"/>
<path d="M778.335 287.303C778.335 287.889 778.726 288.572 779.312 288.865C779.898 289.158 779.995 288.767 779.703 287.986C779.019 286.229 778.335 285.936 778.335 287.303Z" fill="#B22222"/>
<path d="M761.735 310.152C761.735 312.007 765.543 316.694 765.641 314.936C765.641 314.155 764.762 312.495 763.688 311.128C762.418 309.468 761.735 309.078 761.735 310.152Z" fill="#B22222"/>
<path d="M792.007 322.553C793.081 324.701 794.252 326.458 794.448 326.458C794.741 326.458 794.057 324.701 792.983 322.553C791.909 320.404 790.737 318.647 790.542 318.647C790.249 318.647 790.932 320.404 792.007 322.553Z" fill="#B22222"/>
</svg>
